G04 Layer_Color=2752767*
%FSLAX25Y25*%
%MOIN*%
G70*
G01*
G75*
%ADD33C,0.00200*%
%ADD34C,0.00267*%
%ADD35C,0.00133*%
D33*
X322035Y250657D02*
Y252257D01*
X323635D01*
Y250657D01*
X322035D01*
Y220657D02*
Y222257D01*
X323635D01*
Y220657D01*
X322035D01*
Y230657D02*
Y232257D01*
X323635D01*
Y230657D01*
X322035D01*
Y240657D02*
Y242257D01*
X323635D01*
Y240657D01*
X322035D01*
X154724Y217231D02*
X153924Y218831D01*
X155524D01*
X154724Y217231D01*
X164724D02*
X163924Y218831D01*
X165524D01*
X164724Y217231D01*
X174724D02*
X173924Y218831D01*
X175524D01*
X174724Y217231D01*
X184724D02*
X183924Y218831D01*
X185524D01*
X184724Y217231D01*
X194724D02*
X193924Y218831D01*
X195524D01*
X194724Y217231D01*
X204724D02*
X203924Y218831D01*
X205524D01*
X204724Y217231D01*
X214724D02*
X213924Y218831D01*
X215524D01*
X214724Y217231D01*
X224724D02*
X223924Y218831D01*
X225524D01*
X224724Y217231D01*
X234724D02*
X233924Y218831D01*
X235524D01*
X234724Y217231D01*
X244724D02*
X243924Y218831D01*
X245524D01*
X244724Y217231D01*
X254724D02*
X253924Y218831D01*
X255524D01*
X254724Y217231D01*
X264724D02*
X263924Y218831D01*
X265524D01*
X264724Y217231D01*
Y277232D02*
X263924Y278832D01*
X265524D01*
X264724Y277232D01*
X254724D02*
X253924Y278832D01*
X255524D01*
X254724Y277232D01*
X244724D02*
X243924Y278832D01*
X245524D01*
X244724Y277232D01*
X234724D02*
X233924Y278832D01*
X235524D01*
X234724Y277232D01*
X224724D02*
X223924Y278832D01*
X225524D01*
X224724Y277232D01*
X214724D02*
X213924Y278832D01*
X215524D01*
X214724Y277232D01*
X204724D02*
X203924Y278832D01*
X205524D01*
X204724Y277232D01*
X194724D02*
X193924Y278832D01*
X195524D01*
X194724Y277232D01*
X184724D02*
X183924Y278832D01*
X185524D01*
X184724Y277232D01*
X174724D02*
X173924Y278832D01*
X175524D01*
X174724Y277232D01*
X164724D02*
X163924Y278832D01*
X165524D01*
X164724Y277232D01*
X154724D02*
X153924Y278832D01*
X155524D01*
X154724Y277232D01*
X433071Y161602D02*
X433471Y162002D01*
X433871D01*
X433471Y162402D01*
X433871Y162802D01*
X433471D01*
X433071Y163202D01*
X432671Y162802D01*
X432271D01*
X432671Y162402D01*
X432271Y162002D01*
X432671D01*
X433071Y161602D01*
X457411Y170302D02*
X457811Y171102D01*
X457411Y171902D01*
X458211Y171502D01*
X459011Y171902D01*
X458611Y171102D01*
X459011Y170302D01*
X458211Y170702D01*
X457411Y170302D01*
X452775Y164940D02*
X453175Y165740D01*
X452775Y166540D01*
X453575Y166140D01*
X454375Y166540D01*
X453975Y165740D01*
X454375Y164940D01*
X453575Y165340D01*
X452775Y164940D01*
X422611Y180802D02*
Y180402D01*
X423411D01*
Y180802D01*
X423811D01*
Y181602D01*
X423411D01*
Y182002D01*
X422611D01*
Y181602D01*
X422211D01*
Y180802D01*
X422611D01*
X462611D02*
Y180402D01*
X463411D01*
Y180802D01*
X463811D01*
Y181602D01*
X463411D01*
Y182002D01*
X462611D01*
Y181602D01*
X462211D01*
Y180802D01*
X462611D01*
X442211Y180402D02*
X442611D01*
X443011Y180802D01*
X443411Y180402D01*
X443811D01*
Y180802D01*
X443411Y181202D01*
X443811Y181602D01*
Y182002D01*
X443411D01*
X443011Y181602D01*
X442611Y182002D01*
X442211D01*
Y181602D01*
X442611Y181202D01*
X442211Y180802D01*
Y180402D01*
Y201202D02*
X443011Y202002D01*
X443811Y201202D01*
X443011Y200402D01*
X442211Y201202D01*
X358268Y161602D02*
X358668Y162002D01*
X359068D01*
X358668Y162402D01*
X359068Y162802D01*
X358668D01*
X358268Y163202D01*
X357868Y162802D01*
X357468D01*
X357868Y162402D01*
X357468Y162002D01*
X357868D01*
X358268Y161602D01*
X382608Y170302D02*
X383008Y171102D01*
X382608Y171902D01*
X383407Y171502D01*
X384208Y171902D01*
X383807Y171102D01*
X384208Y170302D01*
X383407Y170702D01*
X382608Y170302D01*
X377972Y164940D02*
X378372Y165740D01*
X377972Y166540D01*
X378772Y166140D01*
X379572Y166540D01*
X379172Y165740D01*
X379572Y164940D01*
X378772Y165340D01*
X377972Y164940D01*
X347808Y180802D02*
Y180402D01*
X348607D01*
Y180802D01*
X349008D01*
Y181602D01*
X348607D01*
Y182002D01*
X347808D01*
Y181602D01*
X347408D01*
Y180802D01*
X347808D01*
X387807D02*
Y180402D01*
X388608D01*
Y180802D01*
X389007D01*
Y181602D01*
X388608D01*
Y182002D01*
X387807D01*
Y181602D01*
X387407D01*
Y180802D01*
X387807D01*
X367407Y180402D02*
X367808D01*
X368208Y180802D01*
X368607Y180402D01*
X369007D01*
Y180802D01*
X368607Y181202D01*
X369007Y181602D01*
Y182002D01*
X368607D01*
X368208Y181602D01*
X367808Y182002D01*
X367407D01*
Y181602D01*
X367808Y181202D01*
X367407Y180802D01*
Y180402D01*
Y201202D02*
X368208Y202002D01*
X369007Y201202D01*
X368208Y200402D01*
X367407Y201202D01*
X237205Y161602D02*
X237605Y162002D01*
X238005D01*
X237605Y162402D01*
X238005Y162802D01*
X237605D01*
X237205Y163202D01*
X236805Y162802D01*
X236405D01*
X236805Y162402D01*
X236405Y162002D01*
X236805D01*
X237205Y161602D01*
X261544Y170302D02*
X261945Y171102D01*
X261544Y171902D01*
X262345Y171502D01*
X263144Y171902D01*
X262744Y171102D01*
X263144Y170302D01*
X262345Y170702D01*
X261544Y170302D01*
X256909Y164940D02*
X257309Y165740D01*
X256909Y166540D01*
X257709Y166140D01*
X258509Y166540D01*
X258109Y165740D01*
X258509Y164940D01*
X257709Y165340D01*
X256909Y164940D01*
X226745Y180802D02*
Y180402D01*
X227544D01*
Y180802D01*
X227944D01*
Y181602D01*
X227544D01*
Y182002D01*
X226745D01*
Y181602D01*
X226344D01*
Y180802D01*
X226745D01*
X266744D02*
Y180402D01*
X267545D01*
Y180802D01*
X267945D01*
Y181602D01*
X267545D01*
Y182002D01*
X266744D01*
Y181602D01*
X266344D01*
Y180802D01*
X266744D01*
X246344Y180402D02*
X246744D01*
X247145Y180802D01*
X247545Y180402D01*
X247944D01*
Y180802D01*
X247545Y181202D01*
X247944Y181602D01*
Y182002D01*
X247545D01*
X247145Y181602D01*
X246744Y182002D01*
X246344D01*
Y181602D01*
X246744Y181202D01*
X246344Y180802D01*
Y180402D01*
Y201202D02*
X247145Y202002D01*
X247944Y201202D01*
X247145Y200402D01*
X246344Y201202D01*
X162402Y161602D02*
X162802Y162002D01*
X163202D01*
X162802Y162402D01*
X163202Y162802D01*
X162802D01*
X162402Y163202D01*
X162002Y162802D01*
X161602D01*
X162002Y162402D01*
X161602Y162002D01*
X162002D01*
X162402Y161602D01*
X186741Y170302D02*
X187141Y171102D01*
X186741Y171902D01*
X187541Y171502D01*
X188341Y171902D01*
X187941Y171102D01*
X188341Y170302D01*
X187541Y170702D01*
X186741Y170302D01*
X182106Y164940D02*
X182506Y165740D01*
X182106Y166540D01*
X182906Y166140D01*
X183706Y166540D01*
X183306Y165740D01*
X183706Y164940D01*
X182906Y165340D01*
X182106Y164940D01*
X151941Y180802D02*
Y180402D01*
X152741D01*
Y180802D01*
X153141D01*
Y181602D01*
X152741D01*
Y182002D01*
X151941D01*
Y181602D01*
X151541D01*
Y180802D01*
X151941D01*
X191941D02*
Y180402D01*
X192741D01*
Y180802D01*
X193141D01*
Y181602D01*
X192741D01*
Y182002D01*
X191941D01*
Y181602D01*
X191541D01*
Y180802D01*
X191941D01*
X171541Y180402D02*
X171941D01*
X172341Y180802D01*
X172741Y180402D01*
X173141D01*
Y180802D01*
X172741Y181202D01*
X173141Y181602D01*
Y182002D01*
X172741D01*
X172341Y181602D01*
X171941Y182002D01*
X171541D01*
Y181602D01*
X171941Y181202D01*
X171541Y180802D01*
Y180402D01*
Y201202D02*
X172341Y202002D01*
X173141Y201202D01*
X172341Y200402D01*
X171541Y201202D01*
X308255Y271838D02*
Y273438D01*
X309855D01*
Y271838D01*
X308255D01*
X308655Y272238D02*
Y273038D01*
X309455D01*
Y272238D01*
X308655D01*
X464751Y271838D02*
Y273438D01*
X466351D01*
Y271838D01*
X464751D01*
X465151Y272238D02*
Y273038D01*
X465951D01*
Y272238D01*
X465151D01*
X208846Y159633D02*
Y161233D01*
X210446D01*
Y159633D01*
X208846D01*
X209246Y160033D02*
Y160833D01*
X210046D01*
Y160033D01*
X209246D01*
X404712Y159633D02*
Y161233D01*
X406312D01*
Y159633D01*
X404712D01*
X405112Y160033D02*
Y160833D01*
X405912D01*
Y160033D01*
X405112D01*
X193898Y201956D02*
X193098Y203556D01*
X194698D01*
X193898Y201956D01*
Y202356D02*
X193498Y203156D01*
X194298D01*
X193898Y202356D01*
X268701Y201956D02*
X267901Y203556D01*
X269501D01*
X268701Y201956D01*
Y202356D02*
X268301Y203156D01*
X269101D01*
X268701Y202356D01*
X389764Y201956D02*
X388964Y203556D01*
X390564D01*
X389764Y201956D01*
Y202356D02*
X389364Y203156D01*
X390164D01*
X389764Y202356D01*
X464567Y201956D02*
X463767Y203556D01*
X465367D01*
X464567Y201956D01*
Y202356D02*
X464167Y203156D01*
X464967D01*
X464567Y202356D01*
D34*
X422651Y272638D02*
G03*
X422651Y272638I-800J0D01*
G01*
X450651D02*
G03*
X450651Y272638I-800J0D01*
G01*
X380907Y272638D02*
G03*
X380907Y272638I-800J0D01*
G01*
X408907D02*
G03*
X408907Y272638I-800J0D01*
G01*
X339162D02*
G03*
X339162Y272638I-800J0D01*
G01*
X367162D02*
G03*
X367162Y272638I-800J0D01*
G01*
X300699Y189567D02*
G03*
X300699Y189567I-800J0D01*
G01*
X318021D02*
G03*
X318021Y189567I-800J0D01*
G01*
X300699Y172244D02*
G03*
X300699Y172244I-800J0D01*
G01*
X318021D02*
G03*
X318021Y172244I-800J0D01*
G01*
D35*
X300299Y189567D02*
G03*
X300299Y189567I-400J0D01*
G01*
X317621D02*
G03*
X317621Y189567I-400J0D01*
G01*
X300299Y172244D02*
G03*
X300299Y172244I-400J0D01*
G01*
X317621D02*
G03*
X317621Y172244I-400J0D01*
G01*
M02*
