G04 Layer_Color=128*
%FSLAX25Y25*%
%MOIN*%
G70*
G01*
G75*
%ADD33C,0.00200*%
D33*
X321063Y251457D02*
X324606D01*
X322835Y249685D02*
Y253228D01*
X321063Y221457D02*
X324606D01*
X322835Y219685D02*
Y223228D01*
X321063Y231457D02*
X324606D01*
X322835Y229685D02*
Y233228D01*
X321063Y241457D02*
X324606D01*
X322835Y239685D02*
Y243228D01*
X419489Y272638D02*
X424213D01*
X421851Y270276D02*
Y275000D01*
X447489Y272638D02*
X452213D01*
X449851Y270276D02*
Y275000D01*
X377744Y272638D02*
X382469D01*
X380106Y270276D02*
Y275000D01*
X405744Y272638D02*
X410469D01*
X408107Y270276D02*
Y275000D01*
X336000Y272638D02*
X340724D01*
X338362Y270276D02*
Y275000D01*
X364000Y272638D02*
X368724D01*
X366362Y270276D02*
Y275000D01*
X152724Y218032D02*
X156724D01*
X154724Y216032D02*
Y220031D01*
X162724Y218032D02*
X166724D01*
X164724Y216032D02*
Y220031D01*
X172724Y218032D02*
X176724D01*
X174724Y216032D02*
Y220031D01*
X182724Y218032D02*
X186724D01*
X184724Y216032D02*
Y220031D01*
X192724Y218032D02*
X196724D01*
X194724Y216032D02*
Y220031D01*
X202724Y218032D02*
X206724D01*
X204724Y216032D02*
Y220031D01*
X212724Y218032D02*
X216724D01*
X214724Y216032D02*
Y220031D01*
X222724Y218032D02*
X226724D01*
X224724Y216032D02*
Y220031D01*
X232724Y218032D02*
X236724D01*
X234724Y216032D02*
Y220031D01*
X242724Y218032D02*
X246724D01*
X244724Y216032D02*
Y220031D01*
X252724Y218032D02*
X256724D01*
X254724Y216032D02*
Y220031D01*
X262724Y218032D02*
X266724D01*
X264724Y216032D02*
Y220031D01*
X262724Y278031D02*
X266724D01*
X264724Y276031D02*
Y280031D01*
X252724Y278031D02*
X256724D01*
X254724Y276031D02*
Y280031D01*
X242724Y278031D02*
X246724D01*
X244724Y276031D02*
Y280031D01*
X232724Y278031D02*
X236724D01*
X234724Y276031D02*
Y280031D01*
X222724Y278031D02*
X226724D01*
X224724Y276031D02*
Y280031D01*
X212724Y278031D02*
X216724D01*
X214724Y276031D02*
Y280031D01*
X202724Y278031D02*
X206724D01*
X204724Y276031D02*
Y280031D01*
X192724Y278031D02*
X196724D01*
X194724Y276031D02*
Y280031D01*
X182724Y278031D02*
X186724D01*
X184724Y276031D02*
Y280031D01*
X172724Y278031D02*
X176724D01*
X174724Y276031D02*
Y280031D01*
X162724Y278031D02*
X166724D01*
X164724Y276031D02*
Y280031D01*
X152724Y278031D02*
X156724D01*
X154724Y276031D02*
Y280031D01*
X430071Y162402D02*
X436071D01*
X433071Y159402D02*
Y165402D01*
X455211Y171102D02*
X461211D01*
X458211Y168102D02*
Y174102D01*
X450575Y165740D02*
X456575D01*
X453575Y162740D02*
Y168740D01*
X419661Y181202D02*
X426361D01*
X423011Y177852D02*
Y184552D01*
X459661Y181202D02*
X466361D01*
X463011Y177852D02*
Y184552D01*
X435333Y181202D02*
X450688D01*
X443011Y173524D02*
Y188879D01*
X440011Y201202D02*
X446011D01*
X443011Y198202D02*
Y204202D01*
X355268Y162402D02*
X361268D01*
X358268Y159402D02*
Y165402D01*
X380408Y171102D02*
X386407D01*
X383407Y168102D02*
Y174102D01*
X375772Y165740D02*
X381772D01*
X378772Y162740D02*
Y168740D01*
X344858Y181202D02*
X351557D01*
X348207Y177852D02*
Y184552D01*
X384858Y181202D02*
X391558D01*
X388208Y177852D02*
Y184552D01*
X360530Y181202D02*
X375885D01*
X368208Y173524D02*
Y188879D01*
X365208Y201202D02*
X371207D01*
X368208Y198202D02*
Y204202D01*
X234205Y162402D02*
X240205D01*
X237205Y159402D02*
Y165402D01*
X259345Y171102D02*
X265345D01*
X262345Y168102D02*
Y174102D01*
X254709Y165740D02*
X260709D01*
X257709Y162740D02*
Y168740D01*
X223795Y181202D02*
X230494D01*
X227145Y177852D02*
Y184552D01*
X263794Y181202D02*
X270495D01*
X267144Y177852D02*
Y184552D01*
X239467Y181202D02*
X254822D01*
X247145Y173524D02*
Y188879D01*
X244145Y201202D02*
X250145D01*
X247145Y198202D02*
Y204202D01*
X159402Y162402D02*
X165402D01*
X162402Y159402D02*
Y165402D01*
X184541Y171102D02*
X190541D01*
X187541Y168102D02*
Y174102D01*
X179906Y165740D02*
X185906D01*
X182906Y162740D02*
Y168740D01*
X148991Y181202D02*
X155691D01*
X152341Y177852D02*
Y184552D01*
X188991Y181202D02*
X195691D01*
X192341Y177852D02*
Y184552D01*
X164664Y181202D02*
X180018D01*
X172341Y173524D02*
Y188879D01*
X169341Y201202D02*
X175341D01*
X172341Y198202D02*
Y204202D01*
X303150Y272638D02*
X314961D01*
X309055Y266732D02*
Y278543D01*
X459646Y272638D02*
X471457D01*
X465551Y266732D02*
Y278543D01*
X203740Y160433D02*
X215551D01*
X209646Y154528D02*
Y166339D01*
X399606Y160433D02*
X411417D01*
X405512Y154528D02*
Y166339D01*
X298128Y189567D02*
X301671D01*
X299899Y187795D02*
Y191339D01*
X315450Y189567D02*
X318993D01*
X317221Y187795D02*
Y191339D01*
X298128Y172244D02*
X301671D01*
X299899Y170472D02*
Y174016D01*
X315450Y172244D02*
X318993D01*
X317221Y170472D02*
Y174016D01*
X192498Y202756D02*
X195298D01*
X193898Y201356D02*
Y204156D01*
X267301Y202756D02*
X270101D01*
X268701Y201356D02*
Y204156D01*
X388364Y202756D02*
X391164D01*
X389764Y201356D02*
Y204156D01*
X463167Y202756D02*
X465967D01*
X464567Y201356D02*
Y204156D01*
M02*
