G04 Layer_Color=255*
%FSLAX25Y25*%
%MOIN*%
G70*
G01*
G75*
%ADD10R,0.05512X0.02756*%
%ADD12C,0.05905*%
%ADD13R,0.05905X0.05905*%
%ADD14C,0.07874*%
%ADD15C,0.07400*%
G04:AMPARAMS|DCode=16|XSize=108.9mil|YSize=86mil|CornerRadius=0mil|HoleSize=0mil|Usage=FLASHONLY|Rotation=86.000|XOffset=0mil|YOffset=0mil|HoleType=Round|Shape=Round|*
%AMOVALD16*
21,1,0.02290,0.08600,0.00000,0.00000,86.0*
1,1,0.08600,-0.00080,-0.01142*
1,1,0.08600,0.00080,0.01142*
%
%ADD16OVALD16*%

%ADD17C,0.08600*%
%ADD18C,0.06700*%
%ADD19C,0.15000*%
%ADD20R,0.03937X0.03937*%
%ADD21C,0.03937*%
%ADD22C,0.03543*%
D10*
X331789Y193701D02*
D03*
Y182677D02*
D03*
Y168110D02*
D03*
X285332D02*
D03*
Y182677D02*
D03*
Y193701D02*
D03*
D12*
X322835Y251457D02*
D03*
Y231457D02*
D03*
Y241457D02*
D03*
D13*
Y221457D02*
D03*
D14*
X421851Y272638D02*
D03*
X449851D02*
D03*
X380106Y272638D02*
D03*
X408107D02*
D03*
X338362D02*
D03*
X366362D02*
D03*
D15*
X154724Y218032D02*
D03*
X164724D02*
D03*
X174724D02*
D03*
X184724D02*
D03*
X194724D02*
D03*
X204724D02*
D03*
X214724D02*
D03*
X224724D02*
D03*
X234724D02*
D03*
X244724D02*
D03*
X254724D02*
D03*
X264724D02*
D03*
Y278031D02*
D03*
X254724D02*
D03*
X244724D02*
D03*
X234724D02*
D03*
X224724D02*
D03*
X214724D02*
D03*
X204724D02*
D03*
X194724D02*
D03*
X184724D02*
D03*
X174724D02*
D03*
X164724D02*
D03*
X154724D02*
D03*
D16*
X433071Y162402D02*
D03*
X358268D02*
D03*
X237205D02*
D03*
X162402D02*
D03*
D17*
X458211Y171102D02*
D03*
X453575Y165740D02*
D03*
X383407Y171102D02*
D03*
X378772Y165740D02*
D03*
X262345Y171102D02*
D03*
X257709Y165740D02*
D03*
X187541Y171102D02*
D03*
X182906Y165740D02*
D03*
D18*
X423011Y181202D02*
D03*
X463011D02*
D03*
X348207D02*
D03*
X388208D02*
D03*
X227145D02*
D03*
X267144D02*
D03*
X152341D02*
D03*
X192341D02*
D03*
D19*
X443011D02*
D03*
X368208D02*
D03*
X247145D02*
D03*
X172341D02*
D03*
D20*
X443011Y201202D02*
D03*
X368208D02*
D03*
X247145D02*
D03*
X172341D02*
D03*
D21*
X309055Y272638D02*
D03*
X465551D02*
D03*
X209646Y160433D02*
D03*
X405512D02*
D03*
D22*
X299899Y189567D02*
D03*
X317221D02*
D03*
X299899Y172244D02*
D03*
X317221D02*
D03*
M02*
