G04 Layer_Color=8388736*
%FSLAX25Y25*%
%MOIN*%
G70*
G01*
G75*
%ADD10R,0.05512X0.02756*%
%ADD12C,0.05905*%
%ADD13R,0.05905X0.05905*%
%ADD14C,0.07874*%
%ADD15C,0.07400*%
G04:AMPARAMS|DCode=16|XSize=108.9mil|YSize=86mil|CornerRadius=0mil|HoleSize=0mil|Usage=FLASHONLY|Rotation=86.000|XOffset=0mil|YOffset=0mil|HoleType=Round|Shape=Round|*
%AMOVALD16*
21,1,0.02290,0.08600,0.00000,0.00000,86.0*
1,1,0.08600,-0.00080,-0.01142*
1,1,0.08600,0.00080,0.01142*
%
%ADD16OVALD16*%

%ADD17C,0.08600*%
%ADD18C,0.06700*%
%ADD19C,0.15000*%
%ADD20R,0.03937X0.03937*%
%ADD21C,0.03937*%
%ADD22C,0.03543*%
G36*
X262432Y175539D02*
X262655Y175524D01*
X262878Y175498D01*
X263099Y175460D01*
X263318Y175412D01*
X263535Y175353D01*
X263748Y175283D01*
X263958Y175203D01*
X264163Y175112D01*
X264363Y175011D01*
X264559Y174900D01*
X264748Y174780D01*
X264931Y174650D01*
X265107Y174512D01*
X265277Y174365D01*
X265439Y174209D01*
X265592Y174046D01*
X265738Y173875D01*
X265875Y173697D01*
X266002Y173513D01*
X266121Y173322D01*
X266230Y173126D01*
X266329Y172924D01*
X266417Y172718D01*
X266496Y172508D01*
X266563Y172294D01*
X266620Y172077D01*
X266667Y171858D01*
X266702Y171636D01*
X266726Y171413D01*
X266738Y171189D01*
X266740Y170965D01*
X266731Y170740D01*
X266710Y170517D01*
X266678Y170295D01*
X266635Y170075D01*
X266582Y169857D01*
X266517Y169642D01*
X266442Y169430D01*
X266356Y169223D01*
X266261Y169020D01*
X266155Y168822D01*
X266039Y168630D01*
X265914Y168444D01*
X265780Y168264D01*
X265637Y168091D01*
X261045Y162808D01*
X260893Y162642D01*
X260734Y162484D01*
X260567Y162335D01*
X260392Y162193D01*
X260211Y162061D01*
X260023Y161938D01*
X259830Y161824D01*
X259631Y161721D01*
X259427Y161627D01*
X259219Y161543D01*
X259007Y161470D01*
X258791Y161408D01*
X258573Y161356D01*
X258352Y161316D01*
X258130Y161286D01*
X257906Y161267D01*
X257682Y161260D01*
X257458Y161264D01*
X257234Y161279D01*
X257011Y161305D01*
X256790Y161343D01*
X256571Y161391D01*
X256354Y161450D01*
X256141Y161520D01*
X255931Y161600D01*
X255726Y161691D01*
X255526Y161792D01*
X255331Y161903D01*
X255141Y162023D01*
X254958Y162153D01*
X254782Y162291D01*
X254612Y162439D01*
X254451Y162594D01*
X254297Y162757D01*
X254151Y162928D01*
X254014Y163106D01*
X253887Y163290D01*
X253768Y163481D01*
X253660Y163677D01*
X253561Y163879D01*
X253472Y164085D01*
X253394Y164295D01*
X253326Y164509D01*
X253269Y164726D01*
X253223Y164945D01*
X253188Y165167D01*
X253164Y165390D01*
X253151Y165614D01*
X253149Y165839D01*
X253159Y166063D01*
X253179Y166286D01*
X253211Y166508D01*
X253254Y166729D01*
X253308Y166946D01*
X253372Y167161D01*
X253447Y167373D01*
X253533Y167580D01*
X253629Y167783D01*
X253735Y167981D01*
X253850Y168173D01*
X253975Y168359D01*
X254109Y168539D01*
X254252Y168712D01*
X258845Y173995D01*
X258996Y174161D01*
X259155Y174319D01*
X259323Y174469D01*
X259497Y174610D01*
X259678Y174742D01*
X259866Y174865D01*
X260059Y174979D01*
X260258Y175083D01*
X260462Y175177D01*
X260670Y175260D01*
X260882Y175333D01*
X261098Y175396D01*
X261316Y175447D01*
X261537Y175488D01*
X261759Y175517D01*
X261983Y175536D01*
X262207Y175543D01*
X262432Y175539D01*
D02*
G37*
G36*
X187628D02*
X187852Y175524D01*
X188075Y175498D01*
X188296Y175460D01*
X188515Y175412D01*
X188732Y175353D01*
X188945Y175283D01*
X189155Y175203D01*
X189360Y175112D01*
X189560Y175011D01*
X189755Y174900D01*
X189945Y174780D01*
X190128Y174650D01*
X190304Y174512D01*
X190474Y174365D01*
X190636Y174209D01*
X190789Y174046D01*
X190935Y173875D01*
X191072Y173697D01*
X191199Y173513D01*
X191318Y173322D01*
X191427Y173126D01*
X191525Y172924D01*
X191614Y172718D01*
X191692Y172508D01*
X191760Y172294D01*
X191817Y172077D01*
X191863Y171858D01*
X191899Y171636D01*
X191922Y171413D01*
X191935Y171189D01*
X191937Y170965D01*
X191928Y170740D01*
X191907Y170517D01*
X191875Y170295D01*
X191832Y170075D01*
X191779Y169857D01*
X191714Y169642D01*
X191639Y169430D01*
X191553Y169223D01*
X191457Y169020D01*
X191351Y168822D01*
X191236Y168630D01*
X191111Y168444D01*
X190977Y168264D01*
X190834Y168091D01*
X186241Y162808D01*
X186090Y162642D01*
X185931Y162484D01*
X185764Y162335D01*
X185589Y162193D01*
X185408Y162061D01*
X185220Y161938D01*
X185027Y161824D01*
X184828Y161721D01*
X184624Y161627D01*
X184416Y161543D01*
X184204Y161470D01*
X183988Y161408D01*
X183770Y161356D01*
X183549Y161316D01*
X183327Y161286D01*
X183103Y161267D01*
X182879Y161260D01*
X182655Y161264D01*
X182431Y161279D01*
X182208Y161305D01*
X181987Y161343D01*
X181768Y161391D01*
X181551Y161450D01*
X181338Y161520D01*
X181128Y161600D01*
X180923Y161691D01*
X180723Y161792D01*
X180528Y161903D01*
X180338Y162023D01*
X180155Y162153D01*
X179979Y162291D01*
X179809Y162439D01*
X179648Y162594D01*
X179494Y162757D01*
X179348Y162928D01*
X179211Y163106D01*
X179084Y163290D01*
X178965Y163481D01*
X178856Y163677D01*
X178758Y163879D01*
X178669Y164085D01*
X178591Y164295D01*
X178523Y164509D01*
X178466Y164726D01*
X178420Y164945D01*
X178384Y165167D01*
X178360Y165390D01*
X178348Y165614D01*
X178346Y165839D01*
X178356Y166063D01*
X178376Y166286D01*
X178408Y166508D01*
X178451Y166729D01*
X178505Y166946D01*
X178569Y167161D01*
X178644Y167373D01*
X178730Y167580D01*
X178826Y167783D01*
X178931Y167981D01*
X179047Y168173D01*
X179172Y168359D01*
X179306Y168539D01*
X179449Y168712D01*
X184042Y173995D01*
X184193Y174161D01*
X184352Y174319D01*
X184519Y174469D01*
X184694Y174610D01*
X184875Y174742D01*
X185063Y174865D01*
X185256Y174979D01*
X185455Y175083D01*
X185659Y175177D01*
X185867Y175260D01*
X186079Y175333D01*
X186295Y175396D01*
X186513Y175447D01*
X186734Y175488D01*
X186956Y175517D01*
X187180Y175536D01*
X187404Y175543D01*
X187628Y175539D01*
D02*
G37*
G36*
X458298D02*
X458522Y175524D01*
X458744Y175498D01*
X458966Y175460D01*
X459185Y175412D01*
X459401Y175353D01*
X459614Y175283D01*
X459824Y175203D01*
X460029Y175112D01*
X460229Y175011D01*
X460425Y174900D01*
X460614Y174780D01*
X460797Y174650D01*
X460974Y174512D01*
X461143Y174365D01*
X461305Y174209D01*
X461459Y174046D01*
X461604Y173875D01*
X461741Y173697D01*
X461869Y173513D01*
X461987Y173322D01*
X462096Y173126D01*
X462195Y172924D01*
X462284Y172718D01*
X462362Y172508D01*
X462430Y172294D01*
X462487Y172077D01*
X462533Y171858D01*
X462568Y171636D01*
X462592Y171413D01*
X462605Y171189D01*
X462606Y170965D01*
X462597Y170740D01*
X462576Y170517D01*
X462544Y170295D01*
X462501Y170075D01*
X462448Y169857D01*
X462383Y169642D01*
X462308Y169430D01*
X462222Y169223D01*
X462127Y169020D01*
X462021Y168822D01*
X461905Y168630D01*
X461780Y168444D01*
X461646Y168264D01*
X461503Y168091D01*
X456911Y162808D01*
X456759Y162642D01*
X456600Y162484D01*
X456433Y162335D01*
X456258Y162193D01*
X456077Y162061D01*
X455890Y161938D01*
X455696Y161824D01*
X455497Y161721D01*
X455294Y161627D01*
X455085Y161543D01*
X454873Y161470D01*
X454658Y161408D01*
X454439Y161356D01*
X454219Y161316D01*
X453996Y161286D01*
X453772Y161267D01*
X453548Y161260D01*
X453324Y161264D01*
X453100Y161279D01*
X452877Y161305D01*
X452656Y161343D01*
X452437Y161391D01*
X452220Y161450D01*
X452007Y161520D01*
X451798Y161600D01*
X451592Y161691D01*
X451392Y161792D01*
X451197Y161903D01*
X451008Y162023D01*
X450824Y162153D01*
X450648Y162291D01*
X450479Y162439D01*
X450317Y162594D01*
X450163Y162757D01*
X450017Y162928D01*
X449881Y163106D01*
X449753Y163290D01*
X449634Y163481D01*
X449526Y163677D01*
X449427Y163879D01*
X449338Y164085D01*
X449260Y164295D01*
X449192Y164509D01*
X449135Y164726D01*
X449089Y164945D01*
X449054Y165167D01*
X449030Y165390D01*
X449017Y165614D01*
X449015Y165839D01*
X449025Y166063D01*
X449046Y166286D01*
X449077Y166508D01*
X449120Y166729D01*
X449174Y166946D01*
X449238Y167161D01*
X449313Y167373D01*
X449399Y167580D01*
X449495Y167783D01*
X449601Y167981D01*
X449716Y168173D01*
X449841Y168359D01*
X449975Y168539D01*
X450118Y168712D01*
X454711Y173995D01*
X454862Y174161D01*
X455022Y174319D01*
X455189Y174469D01*
X455363Y174610D01*
X455544Y174742D01*
X455732Y174865D01*
X455925Y174979D01*
X456124Y175083D01*
X456328Y175177D01*
X456536Y175260D01*
X456748Y175333D01*
X456964Y175396D01*
X457182Y175447D01*
X457403Y175488D01*
X457625Y175517D01*
X457849Y175536D01*
X458073Y175543D01*
X458298Y175539D01*
D02*
G37*
G36*
X383494D02*
X383718Y175524D01*
X383941Y175498D01*
X384162Y175460D01*
X384382Y175412D01*
X384598Y175353D01*
X384811Y175283D01*
X385021Y175203D01*
X385226Y175112D01*
X385426Y175011D01*
X385622Y174900D01*
X385811Y174780D01*
X385994Y174650D01*
X386171Y174512D01*
X386340Y174365D01*
X386502Y174209D01*
X386655Y174046D01*
X386801Y173875D01*
X386938Y173697D01*
X387066Y173513D01*
X387184Y173322D01*
X387293Y173126D01*
X387392Y172924D01*
X387480Y172718D01*
X387559Y172508D01*
X387626Y172294D01*
X387683Y172077D01*
X387730Y171858D01*
X387765Y171636D01*
X387789Y171413D01*
X387801Y171189D01*
X387803Y170965D01*
X387794Y170740D01*
X387773Y170517D01*
X387741Y170295D01*
X387698Y170075D01*
X387645Y169857D01*
X387580Y169642D01*
X387505Y169430D01*
X387419Y169223D01*
X387323Y169020D01*
X387218Y168822D01*
X387102Y168630D01*
X386977Y168444D01*
X386843Y168264D01*
X386700Y168091D01*
X382108Y162808D01*
X381956Y162642D01*
X381797Y162484D01*
X381630Y162335D01*
X381455Y162193D01*
X381274Y162061D01*
X381086Y161938D01*
X380893Y161824D01*
X380694Y161721D01*
X380490Y161627D01*
X380282Y161543D01*
X380070Y161470D01*
X379854Y161408D01*
X379636Y161356D01*
X379415Y161316D01*
X379193Y161286D01*
X378969Y161267D01*
X378745Y161260D01*
X378521Y161264D01*
X378297Y161279D01*
X378074Y161305D01*
X377853Y161343D01*
X377634Y161391D01*
X377417Y161450D01*
X377204Y161520D01*
X376994Y161600D01*
X376789Y161691D01*
X376589Y161792D01*
X376394Y161903D01*
X376204Y162023D01*
X376021Y162153D01*
X375845Y162291D01*
X375675Y162439D01*
X375514Y162594D01*
X375360Y162757D01*
X375214Y162928D01*
X375077Y163106D01*
X374950Y163290D01*
X374831Y163481D01*
X374723Y163677D01*
X374624Y163879D01*
X374535Y164085D01*
X374457Y164295D01*
X374389Y164509D01*
X374332Y164726D01*
X374286Y164945D01*
X374251Y165167D01*
X374227Y165390D01*
X374214Y165614D01*
X374212Y165839D01*
X374222Y166063D01*
X374242Y166286D01*
X374274Y166508D01*
X374317Y166729D01*
X374371Y166946D01*
X374435Y167161D01*
X374510Y167373D01*
X374596Y167580D01*
X374692Y167783D01*
X374798Y167981D01*
X374913Y168173D01*
X375038Y168359D01*
X375172Y168539D01*
X375315Y168712D01*
X379908Y173995D01*
X380059Y174161D01*
X380218Y174319D01*
X380385Y174469D01*
X380560Y174610D01*
X380741Y174742D01*
X380929Y174865D01*
X381122Y174979D01*
X381321Y175083D01*
X381525Y175177D01*
X381733Y175260D01*
X381945Y175333D01*
X382161Y175396D01*
X382379Y175447D01*
X382600Y175488D01*
X382822Y175517D01*
X383046Y175536D01*
X383270Y175543D01*
X383494Y175539D01*
D02*
G37*
D10*
X331789Y193701D02*
D03*
Y182677D02*
D03*
Y168110D02*
D03*
X285332D02*
D03*
Y182677D02*
D03*
Y193701D02*
D03*
D12*
X322835Y251457D02*
D03*
Y231457D02*
D03*
Y241457D02*
D03*
D13*
Y221457D02*
D03*
D14*
X421851Y272638D02*
D03*
X449851D02*
D03*
X380106Y272638D02*
D03*
X408107D02*
D03*
X338362D02*
D03*
X366362D02*
D03*
D15*
X154724Y218032D02*
D03*
X164724D02*
D03*
X174724D02*
D03*
X184724D02*
D03*
X194724D02*
D03*
X204724D02*
D03*
X214724D02*
D03*
X224724D02*
D03*
X234724D02*
D03*
X244724D02*
D03*
X254724D02*
D03*
X264724D02*
D03*
Y278031D02*
D03*
X254724D02*
D03*
X244724D02*
D03*
X234724D02*
D03*
X224724D02*
D03*
X214724D02*
D03*
X204724D02*
D03*
X194724D02*
D03*
X184724D02*
D03*
X174724D02*
D03*
X164724D02*
D03*
X154724D02*
D03*
D16*
X433071Y162402D02*
D03*
X358268D02*
D03*
X237205D02*
D03*
X162402D02*
D03*
D17*
X458211Y171102D02*
D03*
X453575Y165740D02*
D03*
X383407Y171102D02*
D03*
X378772Y165740D02*
D03*
X262345Y171102D02*
D03*
X257709Y165740D02*
D03*
X187541Y171102D02*
D03*
X182906Y165740D02*
D03*
D18*
X423011Y181202D02*
D03*
X463011D02*
D03*
X348207D02*
D03*
X388208D02*
D03*
X227145D02*
D03*
X267144D02*
D03*
X152341D02*
D03*
X192341D02*
D03*
D19*
X443011D02*
D03*
X368208D02*
D03*
X247145D02*
D03*
X172341D02*
D03*
D20*
X443011Y201202D02*
D03*
X368208D02*
D03*
X247145D02*
D03*
X172341D02*
D03*
D21*
X309055Y272638D02*
D03*
X465551D02*
D03*
X209646Y160433D02*
D03*
X405512D02*
D03*
D22*
X299899Y189567D02*
D03*
X317221D02*
D03*
X299899Y172244D02*
D03*
X317221D02*
D03*
M02*
