M48
;Layer_Color=9474304
;FILE_FORMAT=2:5
INCH,LZ
;TYPE=PLATED
T6F00S00C0.02800
T7F00S00C0.03543
T8F00S00C0.04000
T9F00S00C0.04724
T10F00S00C0.06000
;TYPE=NON_PLATED
T1F00S00C0.03543
T3F00S00C0.06700
T4F00S00C0.11811
T5F00S00C0.15354
%
T06
X0389764Y0202756
X0464567
X0268701
X0193898
T07
X0322835Y0221457
Y0231457
Y0241457
Y0251457
T08
X0164724Y0218032
X0174724
X0184724
X0194724
X0204724
X0214724
X0224724
X0234724
X0244724
X0254724
X0264724
Y0278031
X0254724
X0244724
X0234724
X0224724
X0214724
X0204724
X0194724
X0184724
X0174724
X0164724
X0154724
Y0218032
T09
X0338362Y0272638
X0366362
X0380106
X0408107
X0421851Y0272638
X0449851
T10
X0378772Y016574
X0383407Y0171102
X0458211
X0453575Y016574
X0257709
X0262345Y0171102
X0187541
X0182906Y016574
T01
X0317221Y0172244
Y0189567
X0299899
Y0172244
T03
X0348207Y0181202
X0388208
X0423011
X0463011
X0267144
X0227145
X0192341
X0152341
T04
X0405512Y0160433
X0465551Y0272638
X0309055
X0209646Y0160433
T05
X0368208Y0181202
X0443011
X0247145
X0172341
M30
