G04 Layer_Color=32896*
%FSLAX25Y25*%
%MOIN*%
G70*
G01*
G75*
%ADD25C,0.00787*%
%ADD28C,0.00100*%
%ADD33C,0.00200*%
D25*
X197348Y268701D02*
Y270800D01*
X196299Y271849D01*
X195249Y270800D01*
Y268701D01*
Y270275D01*
X197348D01*
X194200Y271325D02*
X193675Y271849D01*
X192625D01*
X192101Y271325D01*
Y270800D01*
X192625Y270275D01*
X193150D01*
X192625D01*
X192101Y269750D01*
Y269226D01*
X192625Y268701D01*
X193675D01*
X194200Y269226D01*
X197348Y266181D02*
Y263033D01*
Y264082D01*
X195249Y266181D01*
X196824Y264607D01*
X195249Y263033D01*
X192625D02*
Y266181D01*
X194200Y264607D01*
X192101D01*
X267348Y233226D02*
Y230078D01*
Y231127D01*
X265249Y233226D01*
X266824Y231652D01*
X265249Y230078D01*
X264200Y232701D02*
X263675Y233226D01*
X262625D01*
X262101Y232701D01*
Y232177D01*
X262625Y231652D01*
X263150D01*
X262625D01*
X262101Y231127D01*
Y230602D01*
X262625Y230078D01*
X263675D01*
X264200Y230602D01*
X267348Y227558D02*
Y224410D01*
X265774D01*
X265249Y224934D01*
Y227033D01*
X265774Y227558D01*
X267348D01*
X264200Y224934D02*
X263675Y224410D01*
X262625D01*
X262101Y224934D01*
Y227033D01*
X262625Y227558D01*
X263675D01*
X264200Y227033D01*
Y226508D01*
X263675Y225984D01*
X262101D01*
X206823Y232701D02*
X207348Y233226D01*
X208398D01*
X208923Y232701D01*
Y232177D01*
X208398Y231652D01*
X207348D01*
X206823Y231127D01*
Y230602D01*
X207348Y230078D01*
X208398D01*
X208923Y230602D01*
X203675Y232701D02*
X204200Y233226D01*
X205249D01*
X205774Y232701D01*
Y230602D01*
X205249Y230078D01*
X204200D01*
X203675Y230602D01*
X202625Y233226D02*
Y230078D01*
X200526D01*
X207348Y227558D02*
Y224410D01*
X205774D01*
X205249Y224934D01*
Y227033D01*
X205774Y227558D01*
X207348D01*
X204200Y227033D02*
X203675Y227558D01*
X202625D01*
X202101Y227033D01*
Y226508D01*
X202625Y225984D01*
X203150D01*
X202625D01*
X202101Y225459D01*
Y224934D01*
X202625Y224410D01*
X203675D01*
X204200Y224934D01*
X186823Y227033D02*
X187348Y227558D01*
X188398D01*
X188923Y227033D01*
Y224934D01*
X188398Y224410D01*
X187348D01*
X186823Y224934D01*
Y225984D01*
X187873D01*
X185774Y224410D02*
Y227558D01*
X183675Y224410D01*
Y227558D01*
X182625D02*
Y224410D01*
X181051D01*
X180526Y224934D01*
Y227033D01*
X181051Y227558D01*
X182625D01*
X178922Y268701D02*
Y271849D01*
X177348D01*
X176823Y271325D01*
Y270275D01*
X177348Y269750D01*
X178922D01*
X177873D02*
X176823Y268701D01*
X173675Y271325D02*
X174200Y271849D01*
X175249D01*
X175774Y271325D01*
Y270800D01*
X175249Y270275D01*
X174200D01*
X173675Y269750D01*
Y269226D01*
X174200Y268701D01*
X175249D01*
X175774Y269226D01*
X172625Y271849D02*
X170526D01*
X171576D01*
Y268701D01*
X255249Y233226D02*
X257348D01*
Y231652D01*
X256299Y232177D01*
X255774D01*
X255249Y231652D01*
Y230602D01*
X255774Y230078D01*
X256823D01*
X257348Y230602D01*
X254200Y233226D02*
Y230078D01*
X252101D01*
X257348Y227558D02*
Y224410D01*
X255774D01*
X255249Y224934D01*
Y227033D01*
X255774Y227558D01*
X257348D01*
X254200Y227033D02*
X253675Y227558D01*
X252625D01*
X252101Y227033D01*
Y226508D01*
X252625Y225984D01*
X252101Y225459D01*
Y224934D01*
X252625Y224410D01*
X253675D01*
X254200Y224934D01*
Y225459D01*
X253675Y225984D01*
X254200Y226508D01*
Y227033D01*
X253675Y225984D02*
X252625D01*
X248398Y271849D02*
Y268701D01*
X246824D01*
X246299Y269226D01*
Y271325D01*
X246824Y271849D01*
X248398D01*
X245249Y268701D02*
X244200D01*
X244724D01*
Y271849D01*
X245249Y271325D01*
X241051Y268701D02*
Y271849D01*
X242625Y270275D01*
X240526D01*
X246561Y266181D02*
X248660D01*
Y263033D01*
X246561D01*
X248660Y264607D02*
X247611D01*
X245512Y263033D02*
Y266181D01*
X243412Y263033D01*
Y266181D01*
X242363D02*
X240264D01*
X241313D01*
Y263033D01*
X166823Y271325D02*
X167348Y271849D01*
X168398D01*
X168922Y271325D01*
Y269226D01*
X168398Y268701D01*
X167348D01*
X166823Y269226D01*
Y270275D01*
X167873D01*
X165774Y268701D02*
Y271849D01*
X163675Y268701D01*
Y271849D01*
X162625D02*
Y268701D01*
X161051D01*
X160526Y269226D01*
Y271325D01*
X161051Y271849D01*
X162625D01*
X168398Y224410D02*
Y227558D01*
X166823D01*
X166299Y227033D01*
Y225984D01*
X166823Y225459D01*
X168398D01*
X167348D02*
X166299Y224410D01*
X165249Y227558D02*
X163150Y224410D01*
Y227558D02*
X165249Y224410D01*
X162101D02*
X161051D01*
X161576D01*
Y227558D01*
X162101Y227033D01*
X235249Y233226D02*
X237348D01*
Y231652D01*
X236299Y232177D01*
X235774D01*
X235249Y231652D01*
Y230602D01*
X235774Y230078D01*
X236824D01*
X237348Y230602D01*
X234200Y233226D02*
Y230078D01*
X232625D01*
X232101Y230602D01*
Y232701D01*
X232625Y233226D01*
X234200D01*
X237348Y227558D02*
Y224410D01*
X235774D01*
X235249Y224934D01*
Y227033D01*
X235774Y227558D01*
X237348D01*
X232101D02*
X233150Y227033D01*
X234200Y225984D01*
Y224934D01*
X233675Y224410D01*
X232625D01*
X232101Y224934D01*
Y225459D01*
X232625Y225984D01*
X234200D01*
X227348Y268701D02*
Y270800D01*
X226299Y271849D01*
X225249Y270800D01*
Y268701D01*
Y270275D01*
X227348D01*
X224200Y271325D02*
X223675Y271849D01*
X222625D01*
X222101Y271325D01*
Y269226D01*
X222625Y268701D01*
X223675D01*
X224200Y269226D01*
Y271325D01*
X227348Y266181D02*
Y263033D01*
Y264082D01*
X225249Y266181D01*
X226823Y264607D01*
X225249Y263033D01*
X222101D02*
X224200D01*
X222101Y265132D01*
Y265657D01*
X222625Y266181D01*
X223675D01*
X224200Y265657D01*
X225249Y233226D02*
X227348D01*
Y231652D01*
X226299Y232177D01*
X225774D01*
X225249Y231652D01*
Y230602D01*
X225774Y230078D01*
X226823D01*
X227348Y230602D01*
X224200Y230078D02*
Y233226D01*
X222625D01*
X222101Y232701D01*
Y231652D01*
X222625Y231127D01*
X224200D01*
X223150D02*
X222101Y230078D01*
X227348Y227558D02*
Y224410D01*
X225774D01*
X225249Y224934D01*
Y227033D01*
X225774Y227558D01*
X227348D01*
X222101D02*
X224200D01*
Y225984D01*
X223150Y226508D01*
X222625D01*
X222101Y225984D01*
Y224934D01*
X222625Y224410D01*
X223675D01*
X224200Y224934D01*
X196824Y232701D02*
X197348Y233226D01*
X198398D01*
X198923Y232701D01*
Y232177D01*
X198398Y231652D01*
X197348D01*
X196824Y231127D01*
Y230602D01*
X197348Y230078D01*
X198398D01*
X198923Y230602D01*
X195774Y233226D02*
Y230078D01*
X194200D01*
X193675Y230602D01*
Y232701D01*
X194200Y233226D01*
X195774D01*
X192625Y230078D02*
Y232177D01*
X191576Y233226D01*
X190526Y232177D01*
Y230078D01*
Y231652D01*
X192625D01*
X197348Y227558D02*
Y224410D01*
X195774D01*
X195249Y224934D01*
Y227033D01*
X195774Y227558D01*
X197348D01*
X192101Y224410D02*
X194200D01*
X192101Y226508D01*
Y227033D01*
X192625Y227558D01*
X193675D01*
X194200Y227033D01*
X207348Y268701D02*
Y270800D01*
X206299Y271849D01*
X205249Y270800D01*
Y268701D01*
Y270275D01*
X207348D01*
X202101Y268701D02*
X204200D01*
X202101Y270800D01*
Y271325D01*
X202625Y271849D01*
X203675D01*
X204200Y271325D01*
X158923Y268701D02*
Y271849D01*
X157348D01*
X156824Y271325D01*
Y270275D01*
X157348Y269750D01*
X158923D01*
X157873D02*
X156824Y268701D01*
X155774D02*
Y270800D01*
X154724Y271849D01*
X153675Y270800D01*
Y268701D01*
Y270275D01*
X155774D01*
X152625Y271849D02*
Y268701D01*
X151576Y269750D01*
X150526Y268701D01*
Y271849D01*
X158923Y227558D02*
X156824D01*
X157873D01*
Y224410D01*
X155774Y227558D02*
X153675Y224410D01*
Y227558D02*
X155774Y224410D01*
X152625Y227033D02*
X152101Y227558D01*
X151051D01*
X150526Y227033D01*
Y224934D01*
X151051Y224410D01*
X152101D01*
X152625Y224934D01*
Y227033D01*
X238660Y271849D02*
Y268701D01*
X237086D01*
X236561Y269226D01*
Y271325D01*
X237086Y271849D01*
X238660D01*
X235512Y268701D02*
X234462D01*
X234987D01*
Y271849D01*
X235512Y271325D01*
X230789Y271849D02*
X232888D01*
Y270275D01*
X231838Y270800D01*
X231313D01*
X230789Y270275D01*
Y269226D01*
X231313Y268701D01*
X232363D01*
X232888Y269226D01*
X236824Y266181D02*
Y263033D01*
Y264082D01*
X234724Y266181D01*
X236299Y264607D01*
X234724Y263033D01*
X233675D02*
X232625D01*
X233150D01*
Y266181D01*
X233675Y265657D01*
X216824Y268701D02*
Y270800D01*
X215774Y271849D01*
X214724Y270800D01*
Y268701D01*
Y270275D01*
X216824D01*
X213675Y268701D02*
X212625D01*
X213150D01*
Y271849D01*
X213675Y271325D01*
X218922Y263033D02*
Y266181D01*
X217348D01*
X216824Y265657D01*
Y264607D01*
X217348Y264082D01*
X218922D01*
X217873D02*
X216824Y263033D01*
X213675Y265657D02*
X214200Y266181D01*
X215249D01*
X215774Y265657D01*
Y263558D01*
X215249Y263033D01*
X214200D01*
X213675Y263558D01*
Y264607D01*
X214724D01*
X212625Y266181D02*
Y263033D01*
X211051D01*
X210526Y263558D01*
Y264082D01*
X211051Y264607D01*
X212625D01*
X211051D01*
X210526Y265132D01*
Y265657D01*
X211051Y266181D01*
X212625D01*
X215249Y233226D02*
X217348D01*
Y231652D01*
X216299Y232177D01*
X215774D01*
X215249Y231652D01*
Y230602D01*
X215774Y230078D01*
X216824D01*
X217348Y230602D01*
X214200Y233226D02*
Y230602D01*
X213675Y230078D01*
X212625D01*
X212101Y230602D01*
Y233226D01*
X217348Y227558D02*
Y224410D01*
X215774D01*
X215249Y224934D01*
Y227033D01*
X215774Y227558D01*
X217348D01*
X212625Y224410D02*
Y227558D01*
X214200Y225984D01*
X212101D01*
X176823Y227033D02*
X177348Y227558D01*
X178398D01*
X178922Y227033D01*
Y224934D01*
X178398Y224410D01*
X177348D01*
X176823Y224934D01*
Y225984D01*
X177873D01*
X175774Y224410D02*
Y227558D01*
X173675Y224410D01*
Y227558D01*
X172625D02*
Y224410D01*
X171051D01*
X170526Y224934D01*
Y227033D01*
X171051Y227558D01*
X172625D01*
X268398Y271849D02*
Y268701D01*
X266824D01*
X266299Y269226D01*
Y271325D01*
X266824Y271849D01*
X268398D01*
X265249Y268701D02*
X264200D01*
X264724D01*
Y271849D01*
X265249Y271325D01*
X262625D02*
X262101Y271849D01*
X261051D01*
X260526Y271325D01*
Y269226D01*
X261051Y268701D01*
X262101D01*
X262625Y269226D01*
Y271325D01*
X266561Y266181D02*
X268660D01*
Y263033D01*
X266561D01*
X268660Y264607D02*
X267611D01*
X263412Y265657D02*
X263937Y266181D01*
X264987D01*
X265512Y265657D01*
Y265132D01*
X264987Y264607D01*
X263937D01*
X263412Y264082D01*
Y263558D01*
X263937Y263033D01*
X264987D01*
X265512Y263558D01*
X260264Y265657D02*
X260789Y266181D01*
X261838D01*
X262363Y265657D01*
Y263558D01*
X261838Y263033D01*
X260789D01*
X260264Y263558D01*
X245249Y233226D02*
X247348D01*
Y231652D01*
X246299Y232177D01*
X245774D01*
X245249Y231652D01*
Y230602D01*
X245774Y230078D01*
X246824D01*
X247348Y230602D01*
X244200Y230078D02*
Y233226D01*
X243150Y232177D01*
X242101Y233226D01*
Y230078D01*
X247348Y227558D02*
Y224410D01*
X245774D01*
X245249Y224934D01*
Y227033D01*
X245774Y227558D01*
X247348D01*
X244200D02*
X242101D01*
Y227033D01*
X244200Y224934D01*
Y224410D01*
X258398Y271849D02*
Y268701D01*
X256823D01*
X256299Y269226D01*
Y271325D01*
X256823Y271849D01*
X258398D01*
X255249Y268701D02*
X254200D01*
X254724D01*
Y271849D01*
X255249Y271325D01*
X250526Y271849D02*
X251576Y271325D01*
X252625Y270275D01*
Y269226D01*
X252101Y268701D01*
X251051D01*
X250526Y269226D01*
Y269750D01*
X251051Y270275D01*
X252625D01*
X258660Y263033D02*
Y266181D01*
X257611Y265132D01*
X256561Y266181D01*
Y263033D01*
X253937Y266181D02*
X254987D01*
X255512Y265657D01*
Y263558D01*
X254987Y263033D01*
X253937D01*
X253413Y263558D01*
Y265657D01*
X253937Y266181D01*
X252363D02*
Y263033D01*
X250789D01*
X250264Y263558D01*
Y265657D01*
X250789Y266181D01*
X252363D01*
X188923Y271849D02*
Y269750D01*
X187873Y268701D01*
X186823Y269750D01*
Y271849D01*
X183675Y271325D02*
X184200Y271849D01*
X185249D01*
X185774Y271325D01*
Y269226D01*
X185249Y268701D01*
X184200D01*
X183675Y269226D01*
X180526Y271325D02*
X181051Y271849D01*
X182101D01*
X182625Y271325D01*
Y269226D01*
X182101Y268701D01*
X181051D01*
X180526Y269226D01*
D28*
X389374Y229441D02*
X391474D01*
X374574D02*
X376674D01*
X388774Y229341D02*
X392074D01*
X373974D02*
X377274D01*
X388374Y229241D02*
X392374D01*
X373574D02*
X377674D01*
X387974Y229141D02*
X392774D01*
X373274D02*
X378074D01*
X387674Y229041D02*
X393074D01*
X372974D02*
X378274D01*
X387474Y228941D02*
X393274D01*
X372674D02*
X378574D01*
X387174Y228841D02*
X393474D01*
X372474D02*
X378774D01*
X386974Y228741D02*
X393674D01*
X372274D02*
X378974D01*
X386774Y228641D02*
X393874D01*
X372074D02*
X379174D01*
X386574Y228541D02*
X394074D01*
X371974D02*
X379374D01*
X386474Y228441D02*
X394274D01*
X371774D02*
X379574D01*
X386274Y228341D02*
X394374D01*
X371574D02*
X379774D01*
X386074Y228241D02*
X394574D01*
X371474D02*
X379874D01*
X385974Y228141D02*
X394674D01*
X371274D02*
X380074D01*
X385874Y228041D02*
X394874D01*
X371174D02*
X380174D01*
X385674Y227941D02*
X394974D01*
X371074D02*
X380274D01*
X385574Y227841D02*
X395074D01*
X370874D02*
X380474D01*
X385474Y227741D02*
X395174D01*
X370774D02*
X380574D01*
X385274Y227641D02*
X395274D01*
X370674D02*
X380674D01*
X385174Y227541D02*
X395374D01*
X370574D02*
X380774D01*
X385074Y227441D02*
X395474D01*
X370474D02*
X380874D01*
X384974Y227341D02*
X395574D01*
X370374D02*
X381074D01*
X384874Y227241D02*
X395674D01*
X370274D02*
X381174D01*
X390974Y227141D02*
X395774D01*
X384774D02*
X389874D01*
X376174D02*
X381274D01*
X370174D02*
X375074D01*
X391574Y227041D02*
X395874D01*
X384674D02*
X389174D01*
X376774D02*
X381374D01*
X370074D02*
X374474D01*
X391974Y226941D02*
X395974D01*
X384574D02*
X388774D01*
X377174D02*
X381474D01*
X370074D02*
X374074D01*
X392274Y226841D02*
X396074D01*
X384474D02*
X388474D01*
X377474D02*
X381574D01*
X369974D02*
X373774D01*
X392474Y226741D02*
X396174D01*
X384374D02*
X388274D01*
X377774D02*
X381574D01*
X369874D02*
X373574D01*
X392674Y226641D02*
X396174D01*
X384274D02*
X388074D01*
X377974D02*
X381674D01*
X369774D02*
X373374D01*
X392874Y226541D02*
X396274D01*
X384174D02*
X387874D01*
X378174D02*
X381774D01*
X369774D02*
X373174D01*
X392974Y226441D02*
X396374D01*
X384174D02*
X387674D01*
X378374D02*
X381874D01*
X369674D02*
X372974D01*
X393174Y226341D02*
X396374D01*
X384074D02*
X387474D01*
X378474D02*
X381974D01*
X369574D02*
X372874D01*
X393274Y226241D02*
X396474D01*
X383974D02*
X387374D01*
X378674D02*
X382074D01*
X369574D02*
X372674D01*
X393474Y226141D02*
X396574D01*
X383874D02*
X387174D01*
X378774D02*
X382174D01*
X369474D02*
X372574D01*
X393574Y226041D02*
X396574D01*
X383774D02*
X387074D01*
X378974D02*
X382174D01*
X369374D02*
X372474D01*
X393674Y225941D02*
X396674D01*
X383674D02*
X386974D01*
X379074D02*
X382274D01*
X369374D02*
X372274D01*
X393774Y225841D02*
X396674D01*
X383674D02*
X386874D01*
X379174D02*
X382374D01*
X369274D02*
X372174D01*
X393874Y225741D02*
X396774D01*
X383574D02*
X386674D01*
X379274D02*
X382474D01*
X369274D02*
X372074D01*
X393974Y225641D02*
X396774D01*
X383474D02*
X386574D01*
X379374D02*
X382474D01*
X369174D02*
X371974D01*
X394074Y225541D02*
X396874D01*
X383374D02*
X386474D01*
X379474D02*
X382574D01*
X369174D02*
X371874D01*
X394174Y225441D02*
X396874D01*
X383374D02*
X386374D01*
X379574D02*
X382674D01*
X369074D02*
X371874D01*
X394274Y225341D02*
X396974D01*
X383274D02*
X386274D01*
X379674D02*
X382774D01*
X369074D02*
X371774D01*
X394374Y225241D02*
X396974D01*
X383174D02*
X386174D01*
X379774D02*
X382774D01*
X368974D02*
X371674D01*
X394374Y225141D02*
X397074D01*
X383174D02*
X386074D01*
X379874D02*
X382874D01*
X368974D02*
X371574D01*
X394474Y225041D02*
X397074D01*
X383074D02*
X385974D01*
X379974D02*
X382974D01*
X368974D02*
X371574D01*
X394574Y224941D02*
X397074D01*
X380074D02*
X385974D01*
X368874D02*
X371474D01*
X394574Y224841D02*
X397174D01*
X380174D02*
X385874D01*
X368874D02*
X371374D01*
X394674Y224741D02*
X397174D01*
X380274D02*
X385774D01*
X375274D02*
X376574D01*
X368774D02*
X371374D01*
X394674Y224641D02*
X397174D01*
X380374D02*
X385674D01*
X375274D02*
X376574D01*
X368774D02*
X371274D01*
X394774Y224541D02*
X397274D01*
X380374D02*
X385574D01*
X375274D02*
X376574D01*
X368774D02*
X371274D01*
X394774Y224441D02*
X397274D01*
X380474D02*
X385574D01*
X375274D02*
X376574D01*
X368774D02*
X371174D01*
X394874Y224341D02*
X397274D01*
X380574D02*
X385474D01*
X375274D02*
X376574D01*
X368674D02*
X371174D01*
X394874Y224241D02*
X397374D01*
X380674D02*
X385374D01*
X375274D02*
X376574D01*
X368674D02*
X371174D01*
X394874Y224141D02*
X397374D01*
X380674D02*
X385274D01*
X375274D02*
X376574D01*
X368674D02*
X371074D01*
X394974Y224041D02*
X397374D01*
X380774D02*
X385274D01*
X375274D02*
X376574D01*
X368674D02*
X371074D01*
X394974Y223941D02*
X397374D01*
X380874D02*
X385174D01*
X375274D02*
X376574D01*
X368574D02*
X370974D01*
X394974Y223841D02*
X397374D01*
X380874D02*
X385074D01*
X375274D02*
X376574D01*
X368574D02*
X370974D01*
X395074Y223741D02*
X397474D01*
X380974D02*
X384974D01*
X375274D02*
X376574D01*
X368574D02*
X370974D01*
X395074Y223641D02*
X397474D01*
X381074D02*
X384974D01*
X375274D02*
X376574D01*
X368574D02*
X370974D01*
X395074Y223541D02*
X397474D01*
X381174D02*
X384874D01*
X375174D02*
X376574D01*
X368574D02*
X370874D01*
X395074Y223441D02*
X397474D01*
X388174D02*
X392374D01*
X381174D02*
X384774D01*
X373974D02*
X377874D01*
X368574D02*
X370874D01*
X395074Y223341D02*
X397474D01*
X388174D02*
X392374D01*
X381274D02*
X384774D01*
X373974D02*
X377874D01*
X368574D02*
X370874D01*
X395174Y223241D02*
X397474D01*
X388174D02*
X392374D01*
X381274D02*
X384674D01*
X373974D02*
X377874D01*
X368474D02*
X370874D01*
X395174Y223141D02*
X397474D01*
X388174D02*
X392374D01*
X381374D02*
X384574D01*
X373974D02*
X377874D01*
X368474D02*
X370874D01*
X395174Y223041D02*
X397474D01*
X388174D02*
X392374D01*
X381474D02*
X384574D01*
X373974D02*
X377874D01*
X368474D02*
X370874D01*
X395174Y222941D02*
X397474D01*
X388174D02*
X392374D01*
X381474D02*
X384474D01*
X373974D02*
X377874D01*
X368474D02*
X370874D01*
X395174Y222841D02*
X397474D01*
X388174D02*
X392374D01*
X381574D02*
X384474D01*
X373974D02*
X377874D01*
X368474D02*
X370874D01*
X395174Y222741D02*
X397474D01*
X388174D02*
X392374D01*
X381574D02*
X384374D01*
X373974D02*
X377874D01*
X368474D02*
X370874D01*
X395174Y222641D02*
X397474D01*
X388174D02*
X392374D01*
X381574D02*
X384474D01*
X373974D02*
X377874D01*
X368474D02*
X370874D01*
X395174Y222541D02*
X397474D01*
X388174D02*
X392374D01*
X381474D02*
X384574D01*
X373974D02*
X377874D01*
X368474D02*
X370874D01*
X395174Y222441D02*
X397474D01*
X388174D02*
X392374D01*
X381474D02*
X384574D01*
X373974D02*
X377874D01*
X368474D02*
X370874D01*
X395174Y222341D02*
X397474D01*
X388174D02*
X392374D01*
X381374D02*
X384674D01*
X373974D02*
X377874D01*
X368474D02*
X370874D01*
X395174Y222241D02*
X397474D01*
X388174D02*
X392374D01*
X381274D02*
X384674D01*
X373974D02*
X377874D01*
X368474D02*
X370874D01*
X395174Y222141D02*
X397474D01*
X381274D02*
X384774D01*
X375274D02*
X376574D01*
X368474D02*
X370874D01*
X395174Y222041D02*
X397474D01*
X381174D02*
X384874D01*
X375274D02*
X376574D01*
X368574D02*
X370874D01*
X395074Y221941D02*
X397474D01*
X381074D02*
X384874D01*
X375274D02*
X376574D01*
X368574D02*
X370874D01*
X395074Y221841D02*
X397474D01*
X381074D02*
X384974D01*
X375274D02*
X376574D01*
X368574D02*
X370874D01*
X395074Y221741D02*
X397474D01*
X380974D02*
X385074D01*
X375274D02*
X376574D01*
X368574D02*
X370974D01*
X395074Y221641D02*
X397474D01*
X380874D02*
X385074D01*
X375274D02*
X376574D01*
X368574D02*
X370974D01*
X394974Y221541D02*
X397374D01*
X380874D02*
X385174D01*
X375274D02*
X376574D01*
X368574D02*
X370974D01*
X394974Y221441D02*
X397374D01*
X380774D02*
X385274D01*
X375274D02*
X376574D01*
X368574D02*
X370974D01*
X394974Y221341D02*
X397374D01*
X380674D02*
X385274D01*
X375274D02*
X376574D01*
X368674D02*
X371074D01*
X394974Y221241D02*
X397374D01*
X380674D02*
X385374D01*
X375274D02*
X376574D01*
X368674D02*
X371074D01*
X394874Y221141D02*
X397374D01*
X380574D02*
X385474D01*
X375274D02*
X376574D01*
X368674D02*
X371074D01*
X394874Y221041D02*
X397274D01*
X380474D02*
X385474D01*
X375274D02*
X376574D01*
X368674D02*
X371174D01*
X394774Y220941D02*
X397274D01*
X380474D02*
X385574D01*
X375274D02*
X376574D01*
X368774D02*
X371174D01*
X394774Y220841D02*
X397274D01*
X380374D02*
X385674D01*
X368774D02*
X371274D01*
X394674Y220741D02*
X397274D01*
X380274D02*
X385674D01*
X368774D02*
X371274D01*
X394674Y220641D02*
X397174D01*
X380174D02*
X385774D01*
X368774D02*
X371374D01*
X394574Y220541D02*
X397174D01*
X380174D02*
X385874D01*
X368874D02*
X371374D01*
X394574Y220441D02*
X397174D01*
X383074D02*
X385974D01*
X380074D02*
X382974D01*
X368874D02*
X371474D01*
X394474Y220341D02*
X397074D01*
X383174D02*
X386074D01*
X379974D02*
X382874D01*
X368874D02*
X371574D01*
X394374Y220241D02*
X397074D01*
X383174D02*
X386074D01*
X379874D02*
X382774D01*
X368974D02*
X371574D01*
X394374Y220141D02*
X396974D01*
X383274D02*
X386174D01*
X379774D02*
X382774D01*
X368974D02*
X371674D01*
X394274Y220041D02*
X396974D01*
X383374D02*
X386274D01*
X379674D02*
X382674D01*
X369074D02*
X371774D01*
X394174Y219941D02*
X396974D01*
X383374D02*
X386374D01*
X379674D02*
X382574D01*
X369074D02*
X371774D01*
X394074Y219841D02*
X396874D01*
X383474D02*
X386474D01*
X379574D02*
X382574D01*
X369174D02*
X371874D01*
X394074Y219741D02*
X396874D01*
X383574D02*
X386574D01*
X379474D02*
X382474D01*
X369174D02*
X371974D01*
X393974Y219641D02*
X396774D01*
X383574D02*
X386674D01*
X379374D02*
X382374D01*
X369174D02*
X372074D01*
X393874Y219541D02*
X396774D01*
X383674D02*
X386774D01*
X379274D02*
X382274D01*
X369274D02*
X372174D01*
X393774Y219441D02*
X396674D01*
X383774D02*
X386874D01*
X379174D02*
X382274D01*
X369374D02*
X372274D01*
X393574Y219341D02*
X396574D01*
X383874D02*
X386974D01*
X378974D02*
X382174D01*
X369374D02*
X372374D01*
X393474Y219241D02*
X396574D01*
X383874D02*
X387074D01*
X378874D02*
X382074D01*
X369474D02*
X372474D01*
X393374Y219141D02*
X396474D01*
X383974D02*
X387274D01*
X378774D02*
X381974D01*
X369474D02*
X372674D01*
X393274Y219041D02*
X396474D01*
X384074D02*
X387374D01*
X378674D02*
X381974D01*
X369574D02*
X372774D01*
X393074Y218941D02*
X396374D01*
X384174D02*
X387474D01*
X378474D02*
X381874D01*
X369674D02*
X372974D01*
X392874Y218841D02*
X396274D01*
X384274D02*
X387674D01*
X378374D02*
X381774D01*
X369674D02*
X373074D01*
X392774Y218741D02*
X396274D01*
X384274D02*
X387874D01*
X378174D02*
X381674D01*
X369774D02*
X373274D01*
X392474Y218641D02*
X396174D01*
X384374D02*
X387974D01*
X377974D02*
X381574D01*
X369874D02*
X373474D01*
X392274Y218541D02*
X396074D01*
X384474D02*
X388274D01*
X377774D02*
X381574D01*
X369974D02*
X373674D01*
X392074Y218441D02*
X395974D01*
X384574D02*
X388474D01*
X377574D02*
X381474D01*
X369974D02*
X373974D01*
X391674Y218341D02*
X395874D01*
X384674D02*
X388774D01*
X377174D02*
X381374D01*
X370074D02*
X374274D01*
X391174Y218241D02*
X395874D01*
X384774D02*
X389274D01*
X376774D02*
X381274D01*
X370174D02*
X374874D01*
X384874Y218141D02*
X395774D01*
X370274D02*
X381174D01*
X384974Y218041D02*
X395674D01*
X370374D02*
X381074D01*
X385074Y217941D02*
X395574D01*
X370474D02*
X380974D01*
X385174Y217841D02*
X395474D01*
X370574D02*
X380874D01*
X385274Y217741D02*
X395374D01*
X370674D02*
X380774D01*
X385374Y217641D02*
X395274D01*
X370774D02*
X380674D01*
X385474Y217541D02*
X395074D01*
X370874D02*
X380574D01*
X385574Y217441D02*
X394974D01*
X370974D02*
X380374D01*
X385674Y217341D02*
X394874D01*
X371174D02*
X380274D01*
X385874Y217241D02*
X394774D01*
X371274D02*
X380174D01*
X385974Y217141D02*
X394574D01*
X371374D02*
X379974D01*
X386074Y217041D02*
X394474D01*
X371574D02*
X379874D01*
X386274Y216941D02*
X394274D01*
X371674D02*
X379774D01*
X386474Y216841D02*
X394174D01*
X371874D02*
X379574D01*
X386574Y216741D02*
X393974D01*
X372074D02*
X379374D01*
X386774Y216641D02*
X393774D01*
X372274D02*
X379274D01*
X386974Y216541D02*
X393574D01*
X372474D02*
X379074D01*
X387174Y216441D02*
X393374D01*
X372674D02*
X378874D01*
X387374Y216341D02*
X393074D01*
X372874D02*
X378574D01*
X387674Y216241D02*
X392874D01*
X373174D02*
X378374D01*
X387974Y216141D02*
X392574D01*
X373474D02*
X378074D01*
X388274Y216041D02*
X392174D01*
X373874D02*
X377674D01*
X388774Y215941D02*
X391674D01*
X374374D02*
X377174D01*
X389674Y215841D02*
X390374D01*
X375474D02*
X376274D01*
X370074Y214641D02*
X370974D01*
X394574Y214541D02*
X396074D01*
X390674D02*
X392874D01*
X386674D02*
X388874D01*
X383674D02*
X384774D01*
X381074D02*
X382174D01*
X377174D02*
X380474D01*
X375174D02*
X376474D01*
X372874D02*
X373874D01*
X369774D02*
X371274D01*
X394574Y214441D02*
X396074D01*
X390374D02*
X392874D01*
X386374D02*
X388874D01*
X383674D02*
X384774D01*
X381074D02*
X382174D01*
X377174D02*
X380474D01*
X375174D02*
X376474D01*
X372874D02*
X373874D01*
X369574D02*
X371574D01*
X394574Y214341D02*
X396074D01*
X390174D02*
X392874D01*
X386074D02*
X388874D01*
X383674D02*
X384774D01*
X381074D02*
X382174D01*
X377174D02*
X380474D01*
X375174D02*
X376474D01*
X372874D02*
X373874D01*
X369374D02*
X371674D01*
X394474Y214241D02*
X396074D01*
X389974D02*
X392874D01*
X385974D02*
X388874D01*
X383674D02*
X384774D01*
X381074D02*
X382174D01*
X377174D02*
X380474D01*
X375074D02*
X376474D01*
X372874D02*
X373874D01*
X369274D02*
X371874D01*
X394474Y214141D02*
X396174D01*
X389874D02*
X392874D01*
X385774D02*
X388874D01*
X383674D02*
X384774D01*
X381074D02*
X382174D01*
X377174D02*
X380474D01*
X375074D02*
X376474D01*
X372874D02*
X373874D01*
X369174D02*
X371974D01*
X394474Y214041D02*
X396174D01*
X389774D02*
X392874D01*
X385674D02*
X388874D01*
X383674D02*
X384774D01*
X381074D02*
X382174D01*
X377174D02*
X380474D01*
X374974D02*
X376474D01*
X372874D02*
X373874D01*
X369074D02*
X372074D01*
X394374Y213941D02*
X396174D01*
X389674D02*
X392874D01*
X385574D02*
X388874D01*
X383674D02*
X384774D01*
X381074D02*
X382174D01*
X377174D02*
X380474D01*
X374974D02*
X376474D01*
X372874D02*
X373874D01*
X368974D02*
X372074D01*
X394374Y213841D02*
X396274D01*
X389674D02*
X392874D01*
X385474D02*
X388874D01*
X383674D02*
X384774D01*
X381074D02*
X382174D01*
X377174D02*
X380474D01*
X374874D02*
X376474D01*
X372874D02*
X373874D01*
X368874D02*
X372174D01*
X394374Y213741D02*
X396274D01*
X389674D02*
X392874D01*
X385474D02*
X388874D01*
X383674D02*
X384774D01*
X381074D02*
X382174D01*
X377174D02*
X380474D01*
X374874D02*
X376474D01*
X372874D02*
X373874D01*
X368874D02*
X372274D01*
X394274Y213641D02*
X396274D01*
X391774D02*
X392874D01*
X389574D02*
X391074D01*
X387774D02*
X388874D01*
X385374D02*
X387074D01*
X383674D02*
X384774D01*
X381074D02*
X382174D01*
X378274D02*
X379374D01*
X374774D02*
X376474D01*
X372874D02*
X373874D01*
X370874D02*
X372274D01*
X368774D02*
X370274D01*
X394274Y213541D02*
X396374D01*
X391774D02*
X392874D01*
X389574D02*
X390874D01*
X387774D02*
X388874D01*
X385374D02*
X386774D01*
X383674D02*
X384774D01*
X381074D02*
X382174D01*
X378274D02*
X379374D01*
X374774D02*
X376474D01*
X372874D02*
X373874D01*
X371074D02*
X372374D01*
X368774D02*
X370074D01*
X394274Y213441D02*
X396374D01*
X391774D02*
X392874D01*
X389574D02*
X390774D01*
X387774D02*
X388874D01*
X385274D02*
X386674D01*
X383674D02*
X384774D01*
X381074D02*
X382174D01*
X378274D02*
X379374D01*
X374674D02*
X376474D01*
X372874D02*
X373874D01*
X371174D02*
X372374D01*
X368774D02*
X369974D01*
X394174Y213341D02*
X396374D01*
X391774D02*
X392874D01*
X389574D02*
X390674D01*
X387774D02*
X388874D01*
X385274D02*
X386574D01*
X383674D02*
X384774D01*
X381074D02*
X382174D01*
X378274D02*
X379374D01*
X374674D02*
X376474D01*
X372874D02*
X373874D01*
X371274D02*
X372374D01*
X368674D02*
X369874D01*
X394174Y213241D02*
X396474D01*
X391774D02*
X392874D01*
X389574D02*
X390674D01*
X387774D02*
X388874D01*
X385274D02*
X386474D01*
X383674D02*
X384774D01*
X381074D02*
X382174D01*
X378274D02*
X379374D01*
X374574D02*
X376474D01*
X372874D02*
X373874D01*
X371274D02*
X372474D01*
X368674D02*
X369874D01*
X394174Y213141D02*
X396474D01*
X391774D02*
X392874D01*
X389574D02*
X390674D01*
X387774D02*
X388874D01*
X385174D02*
X386474D01*
X383674D02*
X384774D01*
X381074D02*
X382174D01*
X378274D02*
X379374D01*
X374574D02*
X376474D01*
X372874D02*
X373874D01*
X371374D02*
X372474D01*
X368674D02*
X369874D01*
X395474Y213041D02*
X396474D01*
X394174D02*
X395274D01*
X391774D02*
X392874D01*
X389574D02*
X390674D01*
X387774D02*
X388874D01*
X385174D02*
X386374D01*
X383674D02*
X384774D01*
X381074D02*
X382174D01*
X378274D02*
X379374D01*
X374474D02*
X376474D01*
X372874D02*
X373874D01*
X371374D02*
X372474D01*
X368674D02*
X369774D01*
X395474Y212941D02*
X396474D01*
X394074D02*
X395274D01*
X391774D02*
X392874D01*
X389574D02*
X390674D01*
X387774D02*
X388874D01*
X385174D02*
X386374D01*
X383674D02*
X384774D01*
X381074D02*
X382174D01*
X378274D02*
X379374D01*
X374474D02*
X376474D01*
X372874D02*
X373874D01*
X371374D02*
X372574D01*
X368574D02*
X369774D01*
X395474Y212841D02*
X396574D01*
X394074D02*
X395174D01*
X391774D02*
X392874D01*
X389574D02*
X390774D01*
X387774D02*
X388874D01*
X385174D02*
X386374D01*
X383674D02*
X384774D01*
X381074D02*
X382174D01*
X378274D02*
X379374D01*
X374474D02*
X376474D01*
X372874D02*
X373874D01*
X371374D02*
X372574D01*
X368574D02*
X369774D01*
X395474Y212741D02*
X396574D01*
X394074D02*
X395174D01*
X391774D02*
X392874D01*
X389674D02*
X390874D01*
X387774D02*
X388874D01*
X385174D02*
X386274D01*
X383674D02*
X384774D01*
X381074D02*
X382174D01*
X378274D02*
X379374D01*
X374374D02*
X376474D01*
X372874D02*
X373874D01*
X371374D02*
X372574D01*
X368574D02*
X369774D01*
X395574Y212641D02*
X396574D01*
X393974D02*
X395174D01*
X391774D02*
X392874D01*
X389674D02*
X391074D01*
X387774D02*
X388874D01*
X385074D02*
X386274D01*
X383674D02*
X384774D01*
X381074D02*
X382174D01*
X378274D02*
X379374D01*
X374374D02*
X376474D01*
X372874D02*
X373874D01*
X371474D02*
X372574D01*
X368574D02*
X369774D01*
X395574Y212541D02*
X396674D01*
X393974D02*
X395074D01*
X389774D02*
X392874D01*
X387774D02*
X388874D01*
X385074D02*
X386274D01*
X383674D02*
X384774D01*
X381074D02*
X382174D01*
X378274D02*
X379374D01*
X375474D02*
X376474D01*
X374274D02*
X375374D01*
X372874D02*
X373874D01*
X371474D02*
X372574D01*
X368574D02*
X369674D01*
X395574Y212441D02*
X396674D01*
X393974D02*
X395074D01*
X389774D02*
X392874D01*
X387774D02*
X388874D01*
X385074D02*
X386274D01*
X383674D02*
X384774D01*
X381074D02*
X382174D01*
X378274D02*
X379374D01*
X375474D02*
X376474D01*
X374274D02*
X375374D01*
X372874D02*
X373874D01*
X371474D02*
X372574D01*
X368574D02*
X369674D01*
X395674Y212341D02*
X396674D01*
X393874D02*
X395074D01*
X389874D02*
X392874D01*
X387774D02*
X388874D01*
X385074D02*
X386274D01*
X383674D02*
X384774D01*
X381074D02*
X382174D01*
X378274D02*
X379374D01*
X375474D02*
X376474D01*
X374174D02*
X375274D01*
X372874D02*
X373874D01*
X371474D02*
X372574D01*
X368574D02*
X369674D01*
X395674Y212241D02*
X396774D01*
X393874D02*
X395074D01*
X389974D02*
X392874D01*
X387774D02*
X388874D01*
X385074D02*
X386274D01*
X383674D02*
X384774D01*
X381074D02*
X382174D01*
X378274D02*
X379374D01*
X375474D02*
X376474D01*
X374174D02*
X375274D01*
X372874D02*
X373874D01*
X371474D02*
X372574D01*
X368574D02*
X369674D01*
X395674Y212141D02*
X396774D01*
X393874D02*
X394974D01*
X390174D02*
X392874D01*
X387774D02*
X388874D01*
X385074D02*
X386274D01*
X383674D02*
X384774D01*
X381074D02*
X382174D01*
X378274D02*
X379374D01*
X375474D02*
X376474D01*
X374074D02*
X375174D01*
X372874D02*
X373874D01*
X371474D02*
X372574D01*
X368574D02*
X369674D01*
X395674Y212041D02*
X396774D01*
X393874D02*
X394974D01*
X390274D02*
X392874D01*
X387774D02*
X388874D01*
X385074D02*
X386274D01*
X383674D02*
X384774D01*
X381074D02*
X382174D01*
X378274D02*
X379374D01*
X375474D02*
X376474D01*
X374074D02*
X375174D01*
X372874D02*
X373874D01*
X371474D02*
X372574D01*
X368574D02*
X369674D01*
X395774Y211941D02*
X396874D01*
X393774D02*
X394974D01*
X390274D02*
X392874D01*
X387774D02*
X388874D01*
X385074D02*
X386274D01*
X383674D02*
X384774D01*
X381074D02*
X382174D01*
X378274D02*
X379374D01*
X375474D02*
X376474D01*
X373974D02*
X375074D01*
X372874D02*
X373874D01*
X371474D02*
X372574D01*
X368574D02*
X369674D01*
X395774Y211841D02*
X396874D01*
X393774D02*
X394974D01*
X390174D02*
X392874D01*
X387774D02*
X388874D01*
X385174D02*
X386274D01*
X383674D02*
X384774D01*
X381074D02*
X382174D01*
X378274D02*
X379374D01*
X375474D02*
X376474D01*
X372874D02*
X375074D01*
X371474D02*
X372574D01*
X368574D02*
X369674D01*
X395774Y211741D02*
X396874D01*
X393774D02*
X394874D01*
X390174D02*
X392874D01*
X387774D02*
X388874D01*
X385174D02*
X386274D01*
X383674D02*
X384774D01*
X381074D02*
X382174D01*
X378274D02*
X379374D01*
X375474D02*
X376474D01*
X372874D02*
X374974D01*
X371474D02*
X372574D01*
X368574D02*
X369774D01*
X395774Y211641D02*
X396874D01*
X393674D02*
X394874D01*
X391774D02*
X392874D01*
X390074D02*
X391474D01*
X387774D02*
X388874D01*
X385174D02*
X386274D01*
X383674D02*
X384774D01*
X381074D02*
X382174D01*
X378274D02*
X379374D01*
X375474D02*
X376474D01*
X372874D02*
X374974D01*
X371374D02*
X372574D01*
X368574D02*
X369774D01*
X393674Y211541D02*
X396974D01*
X391774D02*
X392874D01*
X389974D02*
X391274D01*
X387774D02*
X388874D01*
X385174D02*
X386374D01*
X383674D02*
X384774D01*
X381074D02*
X382174D01*
X378274D02*
X379374D01*
X375474D02*
X376474D01*
X372874D02*
X374974D01*
X371374D02*
X372574D01*
X368574D02*
X369774D01*
X393674Y211441D02*
X396974D01*
X391774D02*
X392874D01*
X389974D02*
X391174D01*
X387774D02*
X388874D01*
X385174D02*
X386374D01*
X383674D02*
X384774D01*
X381074D02*
X382174D01*
X378274D02*
X379374D01*
X375474D02*
X376474D01*
X372874D02*
X374874D01*
X371374D02*
X372574D01*
X368674D02*
X369774D01*
X393574Y211341D02*
X396974D01*
X391774D02*
X392874D01*
X389874D02*
X391174D01*
X387774D02*
X388874D01*
X385174D02*
X386374D01*
X383674D02*
X384774D01*
X381074D02*
X382174D01*
X378274D02*
X379374D01*
X375474D02*
X376474D01*
X372874D02*
X374874D01*
X371374D02*
X372474D01*
X368674D02*
X369774D01*
X393574Y211241D02*
X397074D01*
X391774D02*
X392874D01*
X389874D02*
X391074D01*
X387774D02*
X388874D01*
X385274D02*
X386474D01*
X383674D02*
X384774D01*
X381174D02*
X382174D01*
X378274D02*
X379374D01*
X375474D02*
X376474D01*
X372874D02*
X374774D01*
X371374D02*
X372474D01*
X368674D02*
X369874D01*
X393574Y211141D02*
X397074D01*
X391774D02*
X392874D01*
X389874D02*
X391074D01*
X387774D02*
X388874D01*
X385274D02*
X386474D01*
X383674D02*
X384774D01*
X381174D02*
X382274D01*
X378274D02*
X379374D01*
X375474D02*
X376474D01*
X372874D02*
X374774D01*
X371274D02*
X372474D01*
X368674D02*
X369874D01*
X393474Y211041D02*
X397074D01*
X391774D02*
X392874D01*
X389774D02*
X390974D01*
X387774D02*
X388874D01*
X385274D02*
X386574D01*
X383674D02*
X384774D01*
X381174D02*
X382274D01*
X378274D02*
X379374D01*
X375474D02*
X376474D01*
X372874D02*
X374674D01*
X371274D02*
X372474D01*
X368774D02*
X369874D01*
X393474Y210941D02*
X397174D01*
X391774D02*
X392874D01*
X389774D02*
X390974D01*
X387774D02*
X388874D01*
X385374D02*
X386674D01*
X383574D02*
X384774D01*
X381174D02*
X382274D01*
X378274D02*
X379374D01*
X375474D02*
X376474D01*
X372874D02*
X374674D01*
X371174D02*
X372374D01*
X368774D02*
X369974D01*
X393474Y210841D02*
X397174D01*
X391774D02*
X392874D01*
X389674D02*
X390874D01*
X387774D02*
X388874D01*
X385374D02*
X386874D01*
X383574D02*
X384674D01*
X381174D02*
X382374D01*
X378274D02*
X379374D01*
X375474D02*
X376474D01*
X372874D02*
X374574D01*
X371074D02*
X372374D01*
X368774D02*
X370074D01*
X393474Y210741D02*
X397174D01*
X391774D02*
X392874D01*
X389674D02*
X390874D01*
X387774D02*
X388874D01*
X385474D02*
X387174D01*
X383474D02*
X384674D01*
X381274D02*
X382474D01*
X378274D02*
X379374D01*
X375474D02*
X376474D01*
X372874D02*
X374574D01*
X370874D02*
X372374D01*
X368874D02*
X370274D01*
X396174Y210641D02*
X397174D01*
X393374D02*
X394574D01*
X391774D02*
X392874D01*
X389574D02*
X390774D01*
X385574D02*
X388874D01*
X383174D02*
X384674D01*
X381274D02*
X382674D01*
X377174D02*
X380474D01*
X375474D02*
X376474D01*
X372874D02*
X374474D01*
X368874D02*
X372274D01*
X396174Y210541D02*
X397274D01*
X393374D02*
X394574D01*
X391774D02*
X392874D01*
X389574D02*
X390774D01*
X385574D02*
X388874D01*
X381374D02*
X384574D01*
X377174D02*
X380474D01*
X375474D02*
X376474D01*
X372874D02*
X374474D01*
X368974D02*
X372274D01*
X396174Y210441D02*
X397274D01*
X393374D02*
X394474D01*
X391774D02*
X392874D01*
X389474D02*
X390774D01*
X385674D02*
X388874D01*
X381374D02*
X384574D01*
X377174D02*
X380474D01*
X375474D02*
X376474D01*
X372874D02*
X374374D01*
X369074D02*
X372174D01*
X396274Y210341D02*
X397274D01*
X393274D02*
X394474D01*
X391774D02*
X392874D01*
X389474D02*
X390674D01*
X385774D02*
X388874D01*
X381474D02*
X384474D01*
X377174D02*
X380474D01*
X375474D02*
X376474D01*
X372874D02*
X374374D01*
X369174D02*
X372074D01*
X396274Y210241D02*
X397374D01*
X393274D02*
X394474D01*
X391774D02*
X392874D01*
X389374D02*
X390674D01*
X385974D02*
X388874D01*
X381574D02*
X384474D01*
X377174D02*
X380474D01*
X375474D02*
X376474D01*
X372874D02*
X374374D01*
X369174D02*
X371974D01*
X396274Y210141D02*
X397374D01*
X393274D02*
X394474D01*
X391774D02*
X392874D01*
X389374D02*
X390574D01*
X386074D02*
X388874D01*
X381674D02*
X384374D01*
X377174D02*
X380474D01*
X375474D02*
X376474D01*
X372874D02*
X374274D01*
X369274D02*
X371874D01*
X396274Y210041D02*
X397374D01*
X393174D02*
X394374D01*
X391774D02*
X392874D01*
X389274D02*
X390574D01*
X386274D02*
X388874D01*
X381774D02*
X384174D01*
X377174D02*
X380474D01*
X375474D02*
X376474D01*
X372874D02*
X374274D01*
X369474D02*
X371774D01*
X396374Y209941D02*
X397474D01*
X393174D02*
X394374D01*
X391774D02*
X392874D01*
X389274D02*
X390474D01*
X386474D02*
X388874D01*
X381974D02*
X384074D01*
X377174D02*
X380474D01*
X375474D02*
X376474D01*
X372874D02*
X374174D01*
X369574D02*
X371674D01*
X396374Y209841D02*
X397474D01*
X393174D02*
X394374D01*
X391774D02*
X392874D01*
X389174D02*
X390474D01*
X386874D02*
X388874D01*
X382174D02*
X383874D01*
X377174D02*
X380474D01*
X375474D02*
X376474D01*
X372874D02*
X374174D01*
X369874D02*
X371374D01*
X382474Y209741D02*
X383474D01*
X370174D02*
X371074D01*
X381474Y264953D02*
X384474D01*
X380874Y264853D02*
X385074D01*
X380374Y264753D02*
X385574D01*
X379974Y264653D02*
X385974D01*
X379574Y264553D02*
X386374D01*
X379274Y264453D02*
X386674D01*
X378974Y264353D02*
X386974D01*
X378774Y264253D02*
X387174D01*
X378474Y264153D02*
X387474D01*
X378274Y264053D02*
X387674D01*
X378074Y263953D02*
X387874D01*
X377874Y263853D02*
X388074D01*
X377674Y263753D02*
X388274D01*
X377474Y263653D02*
X388474D01*
X377274Y263553D02*
X388674D01*
X377074Y263453D02*
X388874D01*
X376974Y263353D02*
X388974D01*
X376774Y263253D02*
X389174D01*
X376674Y263153D02*
X389274D01*
X376474Y263053D02*
X389474D01*
X376374Y262953D02*
X389574D01*
X376174Y262853D02*
X389774D01*
X376074Y262753D02*
X389874D01*
X375974Y262653D02*
X389974D01*
X375774Y262553D02*
X390174D01*
X375674Y262453D02*
X390274D01*
X375574Y262353D02*
X390374D01*
X375474Y262253D02*
X390474D01*
X375374Y262153D02*
X390574D01*
X375274Y262053D02*
X390674D01*
X375074Y261953D02*
X390874D01*
X374974Y261853D02*
X390974D01*
X374874Y261753D02*
X391074D01*
X374774Y261653D02*
X391174D01*
X374674Y261553D02*
X391274D01*
X374574Y261453D02*
X391374D01*
X374474Y261353D02*
X391474D01*
X374474Y261253D02*
X391474D01*
X374374Y261153D02*
X391574D01*
X374274Y261053D02*
X391674D01*
X374174Y260953D02*
X391774D01*
X374074Y260853D02*
X391874D01*
X373974Y260753D02*
X391974D01*
X373874Y260653D02*
X392074D01*
X373874Y260553D02*
X392074D01*
X373774Y260453D02*
X392174D01*
X373674Y260353D02*
X392274D01*
X388974Y260253D02*
X392374D01*
X377674D02*
X388274D01*
X373574D02*
X376874D01*
X389074Y260153D02*
X392374D01*
X378074D02*
X387874D01*
X373574D02*
X376874D01*
X389074Y260053D02*
X392474D01*
X378374D02*
X387574D01*
X373474D02*
X376774D01*
X389074Y259953D02*
X392574D01*
X378574D02*
X387374D01*
X373374D02*
X376774D01*
X389174Y259853D02*
X392574D01*
X378774D02*
X387074D01*
X373374D02*
X376774D01*
X389174Y259753D02*
X392674D01*
X378974D02*
X386874D01*
X373274D02*
X376674D01*
X389174Y259653D02*
X392774D01*
X379174D02*
X386674D01*
X373174D02*
X376674D01*
X389174Y259553D02*
X392774D01*
X379374D02*
X386574D01*
X373174D02*
X376674D01*
X389274Y259453D02*
X392874D01*
X383874D02*
X386374D01*
X379574D02*
X381974D01*
X373074D02*
X376674D01*
X389274Y259353D02*
X392874D01*
X384674D02*
X386174D01*
X379674D02*
X381174D01*
X373074D02*
X376674D01*
X389274Y259253D02*
X392974D01*
X385274D02*
X386074D01*
X379874D02*
X380674D01*
X372974D02*
X376574D01*
X389274Y259153D02*
X393074D01*
X385674D02*
X385874D01*
X379974D02*
X380274D01*
X372874D02*
X376574D01*
X389274Y259053D02*
X393074D01*
X372874D02*
X376574D01*
X389274Y258953D02*
X393174D01*
X372774D02*
X376574D01*
X389374Y258853D02*
X393174D01*
X372774D02*
X376574D01*
X389374Y258753D02*
X393274D01*
X372674D02*
X376574D01*
X389374Y258653D02*
X393274D01*
X372674D02*
X376574D01*
X389374Y258553D02*
X393374D01*
X372574D02*
X376574D01*
X389374Y258453D02*
X393374D01*
X372574D02*
X376574D01*
X389374Y258353D02*
X393474D01*
X372474D02*
X376574D01*
X389274Y258253D02*
X393474D01*
X372474D02*
X376574D01*
X389274Y258153D02*
X393474D01*
X372474D02*
X376574D01*
X389274Y258053D02*
X393574D01*
X372374D02*
X376574D01*
X389274Y257953D02*
X393574D01*
X372374D02*
X376574D01*
X389274Y257853D02*
X393674D01*
X372274D02*
X376574D01*
X389274Y257753D02*
X393674D01*
X372274D02*
X376674D01*
X389274Y257653D02*
X393774D01*
X372174D02*
X376674D01*
X389174Y257553D02*
X393774D01*
X372174D02*
X376674D01*
X389174Y257453D02*
X393774D01*
X372174D02*
X376674D01*
X389174Y257353D02*
X393874D01*
X372074D02*
X376774D01*
X389074Y257253D02*
X393874D01*
X372074D02*
X376774D01*
X389174Y257153D02*
X393874D01*
X372074D02*
X376674D01*
X389274Y257053D02*
X393974D01*
X371974D02*
X376674D01*
X389374Y256953D02*
X393974D01*
X371974D02*
X376574D01*
X389374Y256853D02*
X393974D01*
X371974D02*
X376474D01*
X389474Y256753D02*
X394074D01*
X371874D02*
X376374D01*
X389574Y256653D02*
X394074D01*
X371874D02*
X376374D01*
X389574Y256553D02*
X394074D01*
X371874D02*
X376274D01*
X389674Y256453D02*
X394074D01*
X371874D02*
X376174D01*
X389774Y256353D02*
X394174D01*
X371774D02*
X376174D01*
X389774Y256253D02*
X394174D01*
X371774D02*
X376074D01*
X389874Y256153D02*
X394174D01*
X371774D02*
X376074D01*
X389874Y256053D02*
X394174D01*
X371774D02*
X375974D01*
X389974Y255953D02*
X394274D01*
X371674D02*
X375974D01*
X389974Y255853D02*
X394274D01*
X371674D02*
X375874D01*
X389974Y255753D02*
X394274D01*
X371674D02*
X375874D01*
X390074Y255653D02*
X394274D01*
X371674D02*
X375874D01*
X390074Y255553D02*
X394274D01*
X371674D02*
X375774D01*
X390074Y255453D02*
X394374D01*
X371574D02*
X375774D01*
X390174Y255353D02*
X394374D01*
X371574D02*
X375774D01*
X390174Y255253D02*
X394374D01*
X371574D02*
X375774D01*
X390174Y255153D02*
X394374D01*
X371574D02*
X375674D01*
X390174Y255053D02*
X394374D01*
X371574D02*
X375674D01*
X390174Y254953D02*
X394374D01*
X371574D02*
X375674D01*
X390274Y254853D02*
X394374D01*
X371574D02*
X375674D01*
X390274Y254753D02*
X394374D01*
X371574D02*
X375674D01*
X390274Y254653D02*
X394474D01*
X371474D02*
X375674D01*
X390274Y254553D02*
X394474D01*
X371474D02*
X375674D01*
X390274Y254453D02*
X394474D01*
X371474D02*
X375574D01*
X390274Y254353D02*
X394474D01*
X371474D02*
X375574D01*
X390274Y254253D02*
X394474D01*
X371474D02*
X375574D01*
X390274Y254153D02*
X394474D01*
X371474D02*
X375574D01*
X390274Y254053D02*
X394474D01*
X371474D02*
X375574D01*
X390274Y253953D02*
X394474D01*
X371474D02*
X375574D01*
X390274Y253853D02*
X394474D01*
X371474D02*
X375574D01*
X390274Y253753D02*
X394474D01*
X371474D02*
X375574D01*
X390274Y253653D02*
X394474D01*
X371474D02*
X375574D01*
X390274Y253553D02*
X394474D01*
X371474D02*
X375674D01*
X390274Y253453D02*
X394474D01*
X371474D02*
X375674D01*
X390274Y253353D02*
X394474D01*
X371474D02*
X375674D01*
X390274Y253253D02*
X394474D01*
X371474D02*
X375674D01*
X390274Y253153D02*
X394474D01*
X371474D02*
X375674D01*
X390174Y253053D02*
X394474D01*
X371474D02*
X375674D01*
X390174Y252953D02*
X394474D01*
X371474D02*
X375674D01*
X390174Y252853D02*
X394474D01*
X371474D02*
X375674D01*
X390174Y252753D02*
X394474D01*
X371474D02*
X375674D01*
X390174Y252653D02*
X394474D01*
X371474D02*
X375774D01*
X390174Y252553D02*
X394474D01*
X371474D02*
X375774D01*
X390174Y252453D02*
X394474D01*
X371474D02*
X375774D01*
X390074Y252353D02*
X394374D01*
X371574D02*
X375774D01*
X390074Y252253D02*
X394374D01*
X371574D02*
X375774D01*
X390074Y252153D02*
X394374D01*
X371574D02*
X375874D01*
X390074Y252053D02*
X394374D01*
X371574D02*
X375874D01*
X389974Y251953D02*
X394374D01*
X371574D02*
X375874D01*
X389974Y251853D02*
X394374D01*
X371574D02*
X375874D01*
X389974Y251753D02*
X394374D01*
X371574D02*
X375974D01*
X389874Y251653D02*
X394374D01*
X371574D02*
X375974D01*
X389874Y251553D02*
X394274D01*
X371674D02*
X375974D01*
X389874Y251453D02*
X394274D01*
X371674D02*
X376074D01*
X389774Y251353D02*
X394274D01*
X371674D02*
X376074D01*
X389774Y251253D02*
X394274D01*
X371674D02*
X376174D01*
X389674Y251153D02*
X394274D01*
X371674D02*
X376174D01*
X389674Y251053D02*
X394174D01*
X371774D02*
X376274D01*
X389574Y250953D02*
X394174D01*
X371774D02*
X376274D01*
X389574Y250853D02*
X394174D01*
X371774D02*
X376374D01*
X389474Y250753D02*
X394174D01*
X371774D02*
X376374D01*
X389374Y250653D02*
X394074D01*
X371874D02*
X376474D01*
X389374Y250553D02*
X394074D01*
X371874D02*
X376574D01*
X389274Y250453D02*
X394074D01*
X371874D02*
X376574D01*
X389174Y250353D02*
X394074D01*
X371874D02*
X376674D01*
X389074Y250253D02*
X393974D01*
X371974D02*
X376774D01*
X389074Y250153D02*
X393974D01*
X371974D02*
X376874D01*
X388974Y250053D02*
X393974D01*
X371974D02*
X376974D01*
X388874Y249953D02*
X393874D01*
X372074D02*
X377074D01*
X388774Y249853D02*
X393874D01*
X372074D02*
X377174D01*
X388574Y249753D02*
X393874D01*
X372074D02*
X377274D01*
X388474Y249653D02*
X393774D01*
X372174D02*
X377374D01*
X388374Y249553D02*
X393774D01*
X372174D02*
X377574D01*
X388174Y249453D02*
X393774D01*
X372174D02*
X377674D01*
X388074Y249353D02*
X393674D01*
X372274D02*
X377874D01*
X387874Y249253D02*
X393674D01*
X372274D02*
X377974D01*
X387674Y249153D02*
X393574D01*
X372374D02*
X378174D01*
X387474Y249053D02*
X393574D01*
X372374D02*
X378374D01*
X391374Y248953D02*
X393574D01*
X387274D02*
X390374D01*
X372374D02*
X378674D01*
X391374Y248853D02*
X393474D01*
X386974D02*
X390174D01*
X372474D02*
X378974D01*
X391374Y248753D02*
X393474D01*
X386674D02*
X389974D01*
X372474D02*
X379274D01*
X391374Y248653D02*
X393374D01*
X386274D02*
X389874D01*
X372574D02*
X379674D01*
X391274Y248553D02*
X393374D01*
X385674D02*
X389674D01*
X372574D02*
X380174D01*
X391174Y248453D02*
X393274D01*
X385174D02*
X389574D01*
X372674D02*
X380774D01*
X390974Y248353D02*
X393274D01*
X385174D02*
X389474D01*
X372674D02*
X380774D01*
X390874Y248253D02*
X393174D01*
X385274D02*
X389374D01*
X372774D02*
X380674D01*
X390674Y248153D02*
X393174D01*
X385274D02*
X389374D01*
X372774D02*
X380574D01*
X390574Y248053D02*
X393074D01*
X385374D02*
X389274D01*
X372874D02*
X380474D01*
X390474Y247953D02*
X393074D01*
X385474D02*
X389174D01*
X372874D02*
X380474D01*
X390374Y247853D02*
X392974D01*
X385474D02*
X389074D01*
X372974D02*
X380374D01*
X390374Y247753D02*
X392974D01*
X385574D02*
X389074D01*
X372974D02*
X380374D01*
X390274Y247653D02*
X392874D01*
X385574D02*
X388974D01*
X373074D02*
X380274D01*
X390174Y247553D02*
X392774D01*
X385674D02*
X388874D01*
X373174D02*
X380274D01*
X390174Y247453D02*
X392774D01*
X385674D02*
X388874D01*
X373174D02*
X380274D01*
X390074Y247353D02*
X392674D01*
X385674D02*
X388774D01*
X373274D02*
X380174D01*
X389974Y247253D02*
X392574D01*
X385674D02*
X388674D01*
X373374D02*
X380174D01*
X389974Y247153D02*
X392574D01*
X385774D02*
X388574D01*
X373374D02*
X380174D01*
X389874Y247053D02*
X392474D01*
X385774D02*
X388474D01*
X373474D02*
X380174D01*
X389874Y246953D02*
X392374D01*
X385774D02*
X388274D01*
X373574D02*
X380174D01*
X389774Y246853D02*
X392374D01*
X385974D02*
X388074D01*
X373574D02*
X380074D01*
X389774Y246753D02*
X392274D01*
X386174D02*
X387874D01*
X373674D02*
X380074D01*
X389674Y246653D02*
X392174D01*
X386674D02*
X387474D01*
X373774D02*
X380074D01*
X389674Y246553D02*
X392174D01*
X373774D02*
X380074D01*
X389574Y246453D02*
X392074D01*
X373874D02*
X380074D01*
X389574Y246353D02*
X391974D01*
X373974D02*
X380074D01*
X389474Y246253D02*
X391874D01*
X374074D02*
X380074D01*
X389474Y246153D02*
X391774D01*
X374174D02*
X380074D01*
X389374Y246053D02*
X391674D01*
X374274D02*
X380074D01*
X389274Y245953D02*
X391674D01*
X374274D02*
X380074D01*
X389174Y245853D02*
X391574D01*
X374374D02*
X380074D01*
X389074Y245753D02*
X391474D01*
X374474D02*
X380074D01*
X388974Y245653D02*
X391374D01*
X374574D02*
X380074D01*
X388774Y245553D02*
X391274D01*
X374674D02*
X380074D01*
X388574Y245453D02*
X391174D01*
X374774D02*
X380074D01*
X388374Y245353D02*
X391074D01*
X374874D02*
X380074D01*
X387974Y245253D02*
X390974D01*
X385874D02*
X386174D01*
X374974D02*
X380074D01*
X385874Y245153D02*
X390874D01*
X375074D02*
X380074D01*
X385874Y245053D02*
X390774D01*
X375174D02*
X380074D01*
X385874Y244953D02*
X390674D01*
X375274D02*
X380074D01*
X385874Y244853D02*
X390574D01*
X375374D02*
X380074D01*
X385874Y244753D02*
X390374D01*
X375574D02*
X380074D01*
X385874Y244653D02*
X390274D01*
X375674D02*
X380074D01*
X385874Y244553D02*
X390174D01*
X375774D02*
X380074D01*
X385874Y244453D02*
X390074D01*
X375874D02*
X380074D01*
X385874Y244353D02*
X389874D01*
X376074D02*
X380074D01*
X385874Y244253D02*
X389774D01*
X376174D02*
X380074D01*
X385874Y244153D02*
X389674D01*
X376274D02*
X380074D01*
X385874Y244053D02*
X389474D01*
X376474D02*
X380074D01*
X385874Y243953D02*
X389374D01*
X376574D02*
X380074D01*
X385874Y243853D02*
X389174D01*
X376774D02*
X380074D01*
X385874Y243753D02*
X389074D01*
X376874D02*
X380074D01*
X385874Y243653D02*
X388874D01*
X377074D02*
X380074D01*
X385874Y243553D02*
X388674D01*
X377274D02*
X380074D01*
X385874Y243453D02*
X388574D01*
X377374D02*
X380074D01*
X385874Y243353D02*
X388374D01*
X377574D02*
X380074D01*
X385774Y243253D02*
X388174D01*
X377774D02*
X380074D01*
X385774Y243153D02*
X387974D01*
X377974D02*
X380074D01*
X385874Y243053D02*
X387774D01*
X378174D02*
X380074D01*
X385874Y242953D02*
X387474D01*
X378374D02*
X380074D01*
X385874Y242853D02*
X387274D01*
X378674D02*
X379974D01*
X385974Y242753D02*
X386974D01*
X378874D02*
X379974D01*
X386174Y242653D02*
X386774D01*
X379174D02*
X379774D01*
X396974Y241353D02*
X398074D01*
X396074Y241253D02*
X398774D01*
X395574Y241153D02*
X399174D01*
X395274Y241053D02*
X399474D01*
X395074Y240953D02*
X399674D01*
X383174D02*
X385174D01*
X378274D02*
X380274D01*
X368374D02*
X370274D01*
X394874Y240853D02*
X399874D01*
X383074D02*
X385174D01*
X378274D02*
X380274D01*
X368274D02*
X370374D01*
X394874Y240753D02*
X400074D01*
X392074D02*
X392674D01*
X383074D02*
X385174D01*
X378274D02*
X380274D01*
X368274D02*
X370374D01*
X394874Y240653D02*
X400174D01*
X391874D02*
X392874D01*
X383074D02*
X385174D01*
X378274D02*
X380274D01*
X368274D02*
X370374D01*
X394874Y240553D02*
X400274D01*
X391674D02*
X393074D01*
X383074D02*
X385174D01*
X378274D02*
X380274D01*
X368274D02*
X370374D01*
X394874Y240453D02*
X400474D01*
X391574D02*
X393174D01*
X383074D02*
X385174D01*
X378274D02*
X380274D01*
X368274D02*
X370374D01*
X394974Y240353D02*
X400574D01*
X391474D02*
X393274D01*
X383074D02*
X385174D01*
X378274D02*
X380274D01*
X368274D02*
X370374D01*
X394974Y240253D02*
X400674D01*
X391374D02*
X393374D01*
X383074D02*
X385174D01*
X378274D02*
X380274D01*
X368274D02*
X370374D01*
X394974Y240153D02*
X400774D01*
X391374D02*
X393374D01*
X383074D02*
X385174D01*
X378274D02*
X380274D01*
X368274D02*
X370374D01*
X394974Y240053D02*
X400774D01*
X391274D02*
X393474D01*
X383074D02*
X385174D01*
X378274D02*
X380274D01*
X368274D02*
X370374D01*
X395074Y239953D02*
X400874D01*
X391274D02*
X393474D01*
X383074D02*
X385174D01*
X378274D02*
X380274D01*
X368274D02*
X370374D01*
X395074Y239853D02*
X400974D01*
X391274D02*
X393474D01*
X383074D02*
X385174D01*
X378274D02*
X380274D01*
X368274D02*
X370374D01*
X395074Y239753D02*
X401074D01*
X391274D02*
X393474D01*
X387574D02*
X389574D01*
X383074D02*
X385174D01*
X378274D02*
X380274D01*
X368274D02*
X370374D01*
X395074Y239653D02*
X401074D01*
X391174D02*
X393574D01*
X387574D02*
X389574D01*
X383074D02*
X385174D01*
X378274D02*
X380274D01*
X368274D02*
X370374D01*
X395074Y239553D02*
X401174D01*
X391274D02*
X393574D01*
X387574D02*
X389574D01*
X383074D02*
X385174D01*
X378274D02*
X380274D01*
X368274D02*
X370374D01*
X395174Y239453D02*
X401174D01*
X391274D02*
X393474D01*
X387574D02*
X389574D01*
X383074D02*
X385174D01*
X378274D02*
X380274D01*
X368274D02*
X370374D01*
X397774Y239353D02*
X401274D01*
X395174D02*
X396474D01*
X391274D02*
X393474D01*
X387574D02*
X389574D01*
X383074D02*
X385174D01*
X378274D02*
X380274D01*
X368274D02*
X370374D01*
X398274Y239253D02*
X401274D01*
X395174D02*
X395874D01*
X391274D02*
X393474D01*
X387574D02*
X389574D01*
X383074D02*
X385174D01*
X378274D02*
X380274D01*
X368274D02*
X370374D01*
X398474Y239153D02*
X401374D01*
X395274D02*
X395474D01*
X391274D02*
X393474D01*
X387574D02*
X389574D01*
X383074D02*
X385174D01*
X378274D02*
X380274D01*
X368274D02*
X370374D01*
X398674Y239053D02*
X401374D01*
X391374D02*
X393374D01*
X387574D02*
X389574D01*
X383074D02*
X385174D01*
X378274D02*
X380274D01*
X368274D02*
X370374D01*
X398774Y238953D02*
X401474D01*
X391474D02*
X393374D01*
X387574D02*
X389574D01*
X383074D02*
X385174D01*
X378274D02*
X380274D01*
X368274D02*
X370374D01*
X398974Y238853D02*
X401474D01*
X391474D02*
X393274D01*
X387574D02*
X389574D01*
X383074D02*
X385174D01*
X378274D02*
X380274D01*
X368274D02*
X370374D01*
X399074Y238753D02*
X401474D01*
X391574D02*
X393174D01*
X387574D02*
X389574D01*
X383074D02*
X385174D01*
X378274D02*
X380274D01*
X368274D02*
X370374D01*
X399174Y238653D02*
X401574D01*
X391674D02*
X393074D01*
X387574D02*
X389574D01*
X383074D02*
X385174D01*
X378274D02*
X380274D01*
X368274D02*
X370374D01*
X399174Y238553D02*
X401574D01*
X391874D02*
X392874D01*
X387574D02*
X389574D01*
X383074D02*
X385174D01*
X378274D02*
X380274D01*
X368274D02*
X370374D01*
X399274Y238453D02*
X401574D01*
X392274D02*
X392474D01*
X387574D02*
X389574D01*
X383074D02*
X385174D01*
X378274D02*
X380274D01*
X368274D02*
X370374D01*
X399374Y238353D02*
X401674D01*
X387574D02*
X389574D01*
X383074D02*
X385174D01*
X378274D02*
X380274D01*
X368274D02*
X370374D01*
X399374Y238253D02*
X401674D01*
X387574D02*
X389574D01*
X383074D02*
X385174D01*
X378274D02*
X380274D01*
X368274D02*
X370374D01*
X399474Y238153D02*
X401674D01*
X387574D02*
X389574D01*
X383074D02*
X385174D01*
X378274D02*
X380274D01*
X368274D02*
X370374D01*
X399474Y238053D02*
X401674D01*
X387574D02*
X389574D01*
X383074D02*
X385174D01*
X378274D02*
X380274D01*
X368274D02*
X370374D01*
X365874D02*
X367274D01*
X399474Y237953D02*
X401674D01*
X387574D02*
X389574D01*
X383074D02*
X385174D01*
X378274D02*
X380274D01*
X368274D02*
X370374D01*
X365574D02*
X367674D01*
X399574Y237853D02*
X401774D01*
X391374D02*
X393374D01*
X386074D02*
X389674D01*
X383074D02*
X385174D01*
X378274D02*
X380274D01*
X375274D02*
X377274D01*
X371374D02*
X373274D01*
X368274D02*
X370374D01*
X365374D02*
X367874D01*
X399574Y237753D02*
X401774D01*
X391374D02*
X393474D01*
X386074D02*
X390074D01*
X383074D02*
X385174D01*
X378274D02*
X380274D01*
X375274D02*
X377374D01*
X371274D02*
X373374D01*
X368274D02*
X370374D01*
X365174D02*
X368074D01*
X399574Y237653D02*
X401774D01*
X391374D02*
X393474D01*
X386074D02*
X390474D01*
X383074D02*
X385174D01*
X378274D02*
X380274D01*
X375274D02*
X377374D01*
X371274D02*
X373374D01*
X365074D02*
X370374D01*
X399674Y237553D02*
X401774D01*
X391374D02*
X393474D01*
X386074D02*
X390674D01*
X383074D02*
X385174D01*
X378274D02*
X380274D01*
X375274D02*
X377374D01*
X371274D02*
X373374D01*
X364974D02*
X370374D01*
X399674Y237453D02*
X401774D01*
X391374D02*
X393474D01*
X386074D02*
X390674D01*
X383074D02*
X385174D01*
X378274D02*
X380274D01*
X375274D02*
X377374D01*
X371274D02*
X373374D01*
X364874D02*
X370374D01*
X399674Y237353D02*
X401774D01*
X391374D02*
X393474D01*
X386074D02*
X390674D01*
X378274D02*
X385174D01*
X375274D02*
X377374D01*
X371274D02*
X373374D01*
X364774D02*
X370374D01*
X399674Y237253D02*
X401874D01*
X391374D02*
X393474D01*
X386074D02*
X390674D01*
X378274D02*
X385174D01*
X375274D02*
X377374D01*
X371274D02*
X373374D01*
X364674D02*
X370374D01*
X399674Y237153D02*
X401874D01*
X391374D02*
X393474D01*
X386074D02*
X390674D01*
X378274D02*
X385174D01*
X375274D02*
X377374D01*
X371274D02*
X373374D01*
X364574D02*
X370374D01*
X399674Y237053D02*
X401874D01*
X391374D02*
X393474D01*
X386074D02*
X390674D01*
X378274D02*
X385174D01*
X375274D02*
X377374D01*
X371274D02*
X373374D01*
X364574D02*
X370374D01*
X399774Y236953D02*
X401874D01*
X394574D02*
X397874D01*
X391374D02*
X393474D01*
X386074D02*
X390674D01*
X378274D02*
X385174D01*
X375274D02*
X377374D01*
X371274D02*
X373374D01*
X364474D02*
X370374D01*
X399774Y236853D02*
X401874D01*
X394474D02*
X397874D01*
X391374D02*
X393474D01*
X386074D02*
X390674D01*
X378274D02*
X385174D01*
X375274D02*
X377374D01*
X371274D02*
X373374D01*
X364474D02*
X370374D01*
X399774Y236753D02*
X401874D01*
X394474D02*
X397974D01*
X391374D02*
X393474D01*
X386074D02*
X390674D01*
X378274D02*
X385174D01*
X375274D02*
X377374D01*
X371274D02*
X373374D01*
X364374D02*
X370374D01*
X399774Y236653D02*
X401874D01*
X394474D02*
X397974D01*
X391374D02*
X393474D01*
X386074D02*
X390674D01*
X378274D02*
X385174D01*
X375274D02*
X377374D01*
X371274D02*
X373374D01*
X364374D02*
X370374D01*
X399774Y236553D02*
X401874D01*
X394474D02*
X397974D01*
X391374D02*
X393474D01*
X386074D02*
X390674D01*
X378274D02*
X385174D01*
X375274D02*
X377374D01*
X371274D02*
X373374D01*
X364274D02*
X370374D01*
X399774Y236453D02*
X401874D01*
X394474D02*
X397974D01*
X391374D02*
X393474D01*
X386074D02*
X390674D01*
X378274D02*
X385174D01*
X375274D02*
X377374D01*
X371274D02*
X373374D01*
X364274D02*
X370374D01*
X399774Y236353D02*
X401874D01*
X394474D02*
X397974D01*
X391374D02*
X393474D01*
X386074D02*
X390674D01*
X378274D02*
X385174D01*
X375274D02*
X377374D01*
X371274D02*
X373374D01*
X367674D02*
X370374D01*
X364274D02*
X366874D01*
X399774Y236253D02*
X401874D01*
X394474D02*
X397974D01*
X391374D02*
X393474D01*
X386074D02*
X390674D01*
X378274D02*
X385174D01*
X375274D02*
X377374D01*
X371274D02*
X373374D01*
X367974D02*
X370374D01*
X364274D02*
X366674D01*
X399774Y236153D02*
X401874D01*
X394474D02*
X397974D01*
X391374D02*
X393474D01*
X387474D02*
X389674D01*
X378274D02*
X385174D01*
X375274D02*
X377374D01*
X371274D02*
X373374D01*
X368174D02*
X370374D01*
X364174D02*
X366474D01*
X399774Y236053D02*
X401874D01*
X394474D02*
X397974D01*
X391374D02*
X393474D01*
X387574D02*
X389574D01*
X378274D02*
X385174D01*
X375274D02*
X377374D01*
X371274D02*
X373374D01*
X368274D02*
X370374D01*
X364174D02*
X366474D01*
X399774Y235953D02*
X401874D01*
X394474D02*
X397974D01*
X391374D02*
X393474D01*
X387574D02*
X389574D01*
X378274D02*
X385174D01*
X375274D02*
X377374D01*
X371274D02*
X373374D01*
X368274D02*
X370374D01*
X364174D02*
X366374D01*
X399774Y235853D02*
X401874D01*
X394474D02*
X397974D01*
X391374D02*
X393474D01*
X387574D02*
X389574D01*
X378274D02*
X385174D01*
X375274D02*
X377374D01*
X371274D02*
X373374D01*
X368274D02*
X370374D01*
X364174D02*
X366274D01*
X399774Y235753D02*
X401874D01*
X394474D02*
X397974D01*
X391374D02*
X393474D01*
X387574D02*
X389574D01*
X378274D02*
X385174D01*
X375274D02*
X377374D01*
X371274D02*
X373374D01*
X368274D02*
X370374D01*
X364174D02*
X366274D01*
X399774Y235653D02*
X401874D01*
X394474D02*
X397974D01*
X391374D02*
X393474D01*
X387574D02*
X389574D01*
X378274D02*
X385174D01*
X375274D02*
X377374D01*
X371274D02*
X373374D01*
X368274D02*
X370374D01*
X364074D02*
X366274D01*
X399774Y235553D02*
X401874D01*
X394474D02*
X397974D01*
X391374D02*
X393474D01*
X387574D02*
X389574D01*
X378274D02*
X385174D01*
X375274D02*
X377374D01*
X371274D02*
X373374D01*
X368274D02*
X370374D01*
X364074D02*
X366174D01*
X399774Y235453D02*
X401874D01*
X394474D02*
X397974D01*
X391374D02*
X393474D01*
X387574D02*
X389574D01*
X383074D02*
X385174D01*
X378274D02*
X380374D01*
X375274D02*
X377374D01*
X371274D02*
X373374D01*
X368274D02*
X370374D01*
X364074D02*
X366174D01*
X399674Y235353D02*
X401874D01*
X394474D02*
X397974D01*
X391374D02*
X393474D01*
X387574D02*
X389574D01*
X383074D02*
X385174D01*
X378274D02*
X380274D01*
X375274D02*
X377374D01*
X371274D02*
X373374D01*
X368274D02*
X370374D01*
X364074D02*
X366174D01*
X399674Y235253D02*
X401874D01*
X394474D02*
X397874D01*
X391374D02*
X393474D01*
X387574D02*
X389574D01*
X383074D02*
X385174D01*
X378274D02*
X380274D01*
X375274D02*
X377374D01*
X371274D02*
X373374D01*
X368274D02*
X370374D01*
X364074D02*
X366174D01*
X399674Y235153D02*
X401874D01*
X394474D02*
X397874D01*
X391374D02*
X393474D01*
X387574D02*
X389574D01*
X383074D02*
X385174D01*
X378274D02*
X380274D01*
X375274D02*
X377374D01*
X371274D02*
X373374D01*
X368274D02*
X370374D01*
X364074D02*
X366174D01*
X399674Y235053D02*
X401874D01*
X394474D02*
X396574D01*
X391374D02*
X393474D01*
X387574D02*
X389574D01*
X383074D02*
X385174D01*
X378274D02*
X380274D01*
X375274D02*
X377374D01*
X371274D02*
X373374D01*
X368274D02*
X370374D01*
X364074D02*
X366174D01*
X399674Y234953D02*
X401774D01*
X394474D02*
X396574D01*
X391374D02*
X393474D01*
X387574D02*
X389574D01*
X383074D02*
X385174D01*
X378274D02*
X380274D01*
X375274D02*
X377374D01*
X371274D02*
X373374D01*
X368274D02*
X370374D01*
X364074D02*
X366174D01*
X399674Y234853D02*
X401774D01*
X394474D02*
X396574D01*
X391374D02*
X393474D01*
X387574D02*
X389574D01*
X383074D02*
X385174D01*
X378274D02*
X380274D01*
X375274D02*
X377374D01*
X371274D02*
X373374D01*
X368274D02*
X370374D01*
X364074D02*
X366174D01*
X399574Y234753D02*
X401774D01*
X394474D02*
X396574D01*
X391374D02*
X393474D01*
X387574D02*
X389574D01*
X383074D02*
X385174D01*
X378274D02*
X380274D01*
X375274D02*
X377374D01*
X371274D02*
X373374D01*
X368274D02*
X370374D01*
X364074D02*
X366174D01*
X399574Y234653D02*
X401774D01*
X394474D02*
X396574D01*
X391374D02*
X393474D01*
X387574D02*
X389574D01*
X383074D02*
X385174D01*
X378274D02*
X380274D01*
X375274D02*
X377374D01*
X371274D02*
X373374D01*
X368274D02*
X370374D01*
X364074D02*
X366174D01*
X399574Y234553D02*
X401774D01*
X394474D02*
X396574D01*
X391374D02*
X393474D01*
X387574D02*
X389574D01*
X383074D02*
X385174D01*
X378274D02*
X380274D01*
X375274D02*
X377374D01*
X371274D02*
X373374D01*
X368274D02*
X370374D01*
X364074D02*
X366174D01*
X399474Y234453D02*
X401774D01*
X394474D02*
X396574D01*
X391374D02*
X393474D01*
X387574D02*
X389574D01*
X383074D02*
X385174D01*
X378274D02*
X380274D01*
X375274D02*
X377374D01*
X371274D02*
X373374D01*
X368274D02*
X370374D01*
X364074D02*
X366174D01*
X399474Y234353D02*
X401674D01*
X394474D02*
X396574D01*
X391374D02*
X393474D01*
X387574D02*
X389574D01*
X383074D02*
X385174D01*
X378274D02*
X380274D01*
X375274D02*
X377374D01*
X371274D02*
X373374D01*
X368274D02*
X370374D01*
X364074D02*
X366174D01*
X399474Y234253D02*
X401674D01*
X394474D02*
X396574D01*
X391374D02*
X393474D01*
X387574D02*
X389574D01*
X383074D02*
X385174D01*
X378274D02*
X380274D01*
X375274D02*
X377374D01*
X371274D02*
X373374D01*
X368274D02*
X370374D01*
X364074D02*
X366174D01*
X399374Y234153D02*
X401674D01*
X394474D02*
X396574D01*
X391374D02*
X393474D01*
X387574D02*
X389574D01*
X383074D02*
X385174D01*
X378274D02*
X380274D01*
X375274D02*
X377374D01*
X371274D02*
X373374D01*
X368274D02*
X370374D01*
X364074D02*
X366174D01*
X399374Y234053D02*
X401674D01*
X394474D02*
X396574D01*
X391374D02*
X393474D01*
X387574D02*
X389574D01*
X383074D02*
X385174D01*
X378274D02*
X380274D01*
X375274D02*
X377374D01*
X371274D02*
X373374D01*
X368274D02*
X370374D01*
X364074D02*
X366174D01*
X399274Y233953D02*
X401574D01*
X394474D02*
X396574D01*
X391374D02*
X393474D01*
X387574D02*
X389574D01*
X383074D02*
X385174D01*
X378274D02*
X380274D01*
X375274D02*
X377374D01*
X371274D02*
X373374D01*
X368274D02*
X370374D01*
X364074D02*
X366174D01*
X399174Y233853D02*
X401574D01*
X394474D02*
X396574D01*
X391374D02*
X393474D01*
X387574D02*
X389574D01*
X383074D02*
X385174D01*
X378274D02*
X380274D01*
X375274D02*
X377374D01*
X371274D02*
X373374D01*
X368274D02*
X370374D01*
X364074D02*
X366174D01*
X399174Y233753D02*
X401574D01*
X394474D02*
X396574D01*
X391374D02*
X393474D01*
X387574D02*
X389574D01*
X383074D02*
X385174D01*
X378274D02*
X380274D01*
X375274D02*
X377374D01*
X371274D02*
X373374D01*
X368274D02*
X370374D01*
X364174D02*
X366174D01*
X399074Y233653D02*
X401474D01*
X394474D02*
X396574D01*
X391374D02*
X393474D01*
X387574D02*
X389574D01*
X383074D02*
X385174D01*
X378274D02*
X380274D01*
X375274D02*
X377374D01*
X371274D02*
X373374D01*
X368274D02*
X370374D01*
X364174D02*
X366174D01*
X398974Y233553D02*
X401474D01*
X394474D02*
X396574D01*
X391374D02*
X393474D01*
X387574D02*
X389574D01*
X383074D02*
X385174D01*
X378274D02*
X380274D01*
X375274D02*
X377374D01*
X371274D02*
X373374D01*
X368274D02*
X370374D01*
X364174D02*
X366274D01*
X398874Y233453D02*
X401474D01*
X394474D02*
X396574D01*
X391374D02*
X393474D01*
X387574D02*
X389574D01*
X383074D02*
X385174D01*
X378274D02*
X380274D01*
X375274D02*
X377374D01*
X371274D02*
X373374D01*
X368274D02*
X370374D01*
X364174D02*
X366274D01*
X398674Y233353D02*
X401374D01*
X394474D02*
X396574D01*
X391374D02*
X393474D01*
X387574D02*
X389574D01*
X383074D02*
X385174D01*
X378274D02*
X380274D01*
X375174D02*
X377374D01*
X371274D02*
X373374D01*
X368274D02*
X370374D01*
X364174D02*
X366274D01*
X398474Y233253D02*
X401374D01*
X394474D02*
X396574D01*
X391374D02*
X393474D01*
X387474D02*
X389574D01*
X383074D02*
X385174D01*
X378274D02*
X380274D01*
X375174D02*
X377374D01*
X371274D02*
X373374D01*
X368274D02*
X370374D01*
X364174D02*
X366374D01*
X398174Y233153D02*
X401274D01*
X394474D02*
X396674D01*
X391374D02*
X393474D01*
X387474D02*
X389574D01*
X383074D02*
X385174D01*
X378274D02*
X380274D01*
X375174D02*
X377374D01*
X371274D02*
X373374D01*
X368274D02*
X370374D01*
X364174D02*
X366374D01*
X394474Y233053D02*
X401274D01*
X391374D02*
X393474D01*
X387374D02*
X389574D01*
X383074D02*
X385174D01*
X378274D02*
X380274D01*
X375074D02*
X377374D01*
X371274D02*
X373474D01*
X368174D02*
X370374D01*
X364274D02*
X366474D01*
X394474Y232953D02*
X401174D01*
X391374D02*
X393474D01*
X387274D02*
X389574D01*
X383074D02*
X385174D01*
X378274D02*
X380274D01*
X374974D02*
X377274D01*
X371274D02*
X373774D01*
X367974D02*
X370374D01*
X364274D02*
X366574D01*
X394474Y232853D02*
X401174D01*
X391374D02*
X393474D01*
X386974D02*
X389574D01*
X386174D02*
X386274D01*
X383074D02*
X385174D01*
X378274D02*
X380274D01*
X374774D02*
X377274D01*
X371274D02*
X374074D01*
X367574D02*
X370374D01*
X364274D02*
X366874D01*
X394474Y232753D02*
X401074D01*
X391374D02*
X393474D01*
X386074D02*
X389574D01*
X383074D02*
X385174D01*
X378274D02*
X380274D01*
X371274D02*
X377274D01*
X364274D02*
X370374D01*
X394474Y232653D02*
X400974D01*
X391374D02*
X393474D01*
X386074D02*
X389574D01*
X383074D02*
X385174D01*
X378274D02*
X380274D01*
X371274D02*
X377274D01*
X364374D02*
X370374D01*
X394474Y232553D02*
X400974D01*
X391374D02*
X393474D01*
X386074D02*
X389474D01*
X383074D02*
X385174D01*
X378274D02*
X380274D01*
X371274D02*
X377274D01*
X364374D02*
X370374D01*
X394474Y232453D02*
X400874D01*
X391374D02*
X393474D01*
X386074D02*
X389474D01*
X383074D02*
X385174D01*
X378274D02*
X380274D01*
X371274D02*
X377174D01*
X364474D02*
X370374D01*
X394474Y232353D02*
X400774D01*
X391374D02*
X393474D01*
X386074D02*
X389474D01*
X383074D02*
X385174D01*
X378274D02*
X380274D01*
X371274D02*
X377174D01*
X364474D02*
X370374D01*
X394474Y232253D02*
X400674D01*
X391374D02*
X393474D01*
X386074D02*
X389374D01*
X383074D02*
X385174D01*
X378274D02*
X380274D01*
X371274D02*
X377174D01*
X364474D02*
X370374D01*
X394474Y232153D02*
X400574D01*
X391374D02*
X393474D01*
X386074D02*
X389374D01*
X383074D02*
X385174D01*
X378274D02*
X380274D01*
X371274D02*
X377074D01*
X364574D02*
X370374D01*
X394474Y232053D02*
X400474D01*
X391374D02*
X393474D01*
X386074D02*
X389274D01*
X383074D02*
X385174D01*
X378274D02*
X380274D01*
X371274D02*
X377074D01*
X364674D02*
X370374D01*
X394474Y231953D02*
X400374D01*
X391374D02*
X393474D01*
X386074D02*
X389274D01*
X383074D02*
X385174D01*
X378274D02*
X380274D01*
X371274D02*
X376974D01*
X364674D02*
X370374D01*
X394474Y231853D02*
X400174D01*
X391374D02*
X393474D01*
X386074D02*
X389174D01*
X383074D02*
X385174D01*
X378274D02*
X380274D01*
X371274D02*
X376874D01*
X364774D02*
X370374D01*
X394674Y231753D02*
X400074D01*
X391374D02*
X393474D01*
X386074D02*
X389074D01*
X383074D02*
X385174D01*
X378274D02*
X380274D01*
X371274D02*
X376874D01*
X368774D02*
X370374D01*
X364874D02*
X368674D01*
X394874Y231653D02*
X399874D01*
X391374D02*
X393474D01*
X386074D02*
X388974D01*
X383074D02*
X385174D01*
X378274D02*
X380274D01*
X372974D02*
X376774D01*
X371274D02*
X372774D01*
X368774D02*
X370374D01*
X364974D02*
X368574D01*
X395074Y231553D02*
X399674D01*
X391374D02*
X393474D01*
X386074D02*
X388874D01*
X383074D02*
X385174D01*
X378274D02*
X380274D01*
X373174D02*
X376574D01*
X371274D02*
X372774D01*
X368774D02*
X370374D01*
X365074D02*
X368374D01*
X395274Y231453D02*
X399474D01*
X391374D02*
X393374D01*
X386074D02*
X388674D01*
X383074D02*
X385174D01*
X378274D02*
X380274D01*
X373374D02*
X376474D01*
X371274D02*
X372674D01*
X368774D02*
X370374D01*
X365274D02*
X368174D01*
X395574Y231353D02*
X399174D01*
X391374D02*
X393374D01*
X386074D02*
X388474D01*
X383174D02*
X385174D01*
X378274D02*
X380274D01*
X373574D02*
X376274D01*
X371374D02*
X372674D01*
X368874D02*
X370274D01*
X365374D02*
X367974D01*
X395974Y231253D02*
X398774D01*
X386274D02*
X388274D01*
X373874D02*
X375974D01*
X365674D02*
X367674D01*
X396574Y231153D02*
X398174D01*
X386874D02*
X387674D01*
X374374D02*
X375574D01*
X366074D02*
X367174D01*
D33*
X447956Y264058D02*
X457756D01*
X443756D02*
X446556D01*
X440956D02*
X442356D01*
X436756D02*
X438156D01*
X431156D02*
X432556D01*
X425556D02*
X426956D01*
X417156D02*
X424156D01*
X405956D02*
X415756D01*
X447956Y263858D02*
X457756D01*
X443756D02*
X446556D01*
X440956D02*
X442356D01*
X436756D02*
X438156D01*
X431156D02*
X432556D01*
X425556D02*
X426956D01*
X417156D02*
X424156D01*
X405956D02*
X415756D01*
X447956Y263658D02*
X457756D01*
X443756D02*
X446556D01*
X440956D02*
X442356D01*
X436756D02*
X438156D01*
X431156D02*
X432556D01*
X425556D02*
X426956D01*
X417156D02*
X424156D01*
X405956D02*
X415756D01*
X447956Y263458D02*
X457756D01*
X443756D02*
X446556D01*
X440956D02*
X442356D01*
X436756D02*
X438156D01*
X431156D02*
X432556D01*
X425556D02*
X426956D01*
X417156D02*
X424156D01*
X405956D02*
X415756D01*
X447956Y263258D02*
X457756D01*
X443756D02*
X446556D01*
X440956D02*
X442356D01*
X436756D02*
X438156D01*
X431156D02*
X432556D01*
X425556D02*
X426956D01*
X417156D02*
X424156D01*
X405956D02*
X415756D01*
X447956Y263058D02*
X457756D01*
X443756D02*
X446556D01*
X440956D02*
X442356D01*
X436756D02*
X438156D01*
X431156D02*
X432556D01*
X425556D02*
X426956D01*
X417156D02*
X424156D01*
X405956D02*
X415756D01*
X447956Y262858D02*
X457756D01*
X443756D02*
X446556D01*
X440956D02*
X442356D01*
X436756D02*
X438156D01*
X431156D02*
X432556D01*
X425556D02*
X426956D01*
X417156D02*
X424156D01*
X405956D02*
X415756D01*
X456356Y262658D02*
X457756D01*
X447956D02*
X449356D01*
X443756D02*
X446556D01*
X439556D02*
X442356D01*
X433956D02*
X436756D01*
X428356D02*
X431156D01*
X422756D02*
X426956D01*
X418556D02*
X421356D01*
X414356D02*
X415756D01*
X405956D02*
X407356D01*
X456356Y262458D02*
X457756D01*
X447956D02*
X449356D01*
X443756D02*
X446556D01*
X439556D02*
X442356D01*
X433956D02*
X436756D01*
X428356D02*
X431156D01*
X422756D02*
X426956D01*
X418556D02*
X421356D01*
X414356D02*
X415756D01*
X405956D02*
X407356D01*
X456356Y262258D02*
X457756D01*
X447956D02*
X449356D01*
X443756D02*
X446556D01*
X439556D02*
X442356D01*
X433956D02*
X436756D01*
X428356D02*
X431156D01*
X422756D02*
X426956D01*
X418556D02*
X421356D01*
X414356D02*
X415756D01*
X405956D02*
X407356D01*
X456356Y262058D02*
X457756D01*
X447956D02*
X449356D01*
X443756D02*
X446556D01*
X439556D02*
X442356D01*
X433956D02*
X436756D01*
X428356D02*
X431156D01*
X422756D02*
X426956D01*
X418556D02*
X421356D01*
X414356D02*
X415756D01*
X405956D02*
X407356D01*
X456356Y261858D02*
X457756D01*
X447956D02*
X449356D01*
X443756D02*
X446556D01*
X439556D02*
X442356D01*
X433956D02*
X436756D01*
X428356D02*
X431156D01*
X422756D02*
X426956D01*
X418556D02*
X421356D01*
X414356D02*
X415756D01*
X405956D02*
X407356D01*
X456356Y261658D02*
X457756D01*
X447956D02*
X449356D01*
X443756D02*
X446556D01*
X439556D02*
X442356D01*
X433956D02*
X436756D01*
X428356D02*
X431156D01*
X422756D02*
X426956D01*
X418556D02*
X421356D01*
X414356D02*
X415756D01*
X405956D02*
X407356D01*
X456356Y261458D02*
X457756D01*
X447956D02*
X449356D01*
X443756D02*
X446556D01*
X439556D02*
X442356D01*
X433956D02*
X436756D01*
X428356D02*
X431156D01*
X422756D02*
X426956D01*
X418556D02*
X421356D01*
X414356D02*
X415756D01*
X405956D02*
X407356D01*
X456356Y261258D02*
X457756D01*
X450756D02*
X454956D01*
X447956D02*
X449356D01*
X443756D02*
X445156D01*
X440956D02*
X442356D01*
X435356D02*
X438156D01*
X426956D02*
X433956D01*
X422756D02*
X425556D01*
X419956D02*
X421356D01*
X414356D02*
X415756D01*
X408756D02*
X412956D01*
X405956D02*
X407356D01*
X456356Y261058D02*
X457756D01*
X450756D02*
X454956D01*
X447956D02*
X449356D01*
X443756D02*
X445156D01*
X440956D02*
X442356D01*
X435356D02*
X438156D01*
X426956D02*
X433956D01*
X422756D02*
X425556D01*
X419956D02*
X421356D01*
X414356D02*
X415756D01*
X408756D02*
X412956D01*
X405956D02*
X407356D01*
X456356Y260858D02*
X457756D01*
X450756D02*
X454956D01*
X447956D02*
X449356D01*
X443756D02*
X445156D01*
X440956D02*
X442356D01*
X435356D02*
X438156D01*
X426956D02*
X433956D01*
X422756D02*
X425556D01*
X419956D02*
X421356D01*
X414356D02*
X415756D01*
X408756D02*
X412956D01*
X405956D02*
X407356D01*
X456356Y260658D02*
X457756D01*
X450756D02*
X454956D01*
X447956D02*
X449356D01*
X443756D02*
X445156D01*
X440956D02*
X442356D01*
X435356D02*
X438156D01*
X426956D02*
X433956D01*
X422756D02*
X425556D01*
X419956D02*
X421356D01*
X414356D02*
X415756D01*
X408756D02*
X412956D01*
X405956D02*
X407356D01*
X456356Y260458D02*
X457756D01*
X450756D02*
X454956D01*
X447956D02*
X449356D01*
X443756D02*
X445156D01*
X440956D02*
X442356D01*
X435356D02*
X438156D01*
X426956D02*
X433956D01*
X422756D02*
X425556D01*
X419956D02*
X421356D01*
X414356D02*
X415756D01*
X408756D02*
X412956D01*
X405956D02*
X407356D01*
X456356Y260258D02*
X457756D01*
X450756D02*
X454956D01*
X447956D02*
X449356D01*
X443756D02*
X445156D01*
X440956D02*
X442356D01*
X435356D02*
X438156D01*
X426956D02*
X433956D01*
X422756D02*
X425556D01*
X419956D02*
X421356D01*
X414356D02*
X415756D01*
X408756D02*
X412956D01*
X405956D02*
X407356D01*
X456356Y260058D02*
X457756D01*
X450756D02*
X454956D01*
X447956D02*
X449356D01*
X443756D02*
X445156D01*
X440956D02*
X442356D01*
X435356D02*
X438156D01*
X426956D02*
X433956D01*
X422756D02*
X425556D01*
X419956D02*
X421356D01*
X414356D02*
X415756D01*
X408756D02*
X412956D01*
X405956D02*
X407356D01*
X456356Y259858D02*
X457756D01*
X450756D02*
X454956D01*
X447956D02*
X449356D01*
X445156D02*
X446556D01*
X439556D02*
X443756D01*
X436756D02*
X438156D01*
X431156D02*
X435356D01*
X425556D02*
X428356D01*
X422756D02*
X424156D01*
X419956D02*
X421356D01*
X414356D02*
X415756D01*
X408756D02*
X412956D01*
X405956D02*
X407356D01*
X456356Y259658D02*
X457756D01*
X450756D02*
X454956D01*
X447956D02*
X449356D01*
X445156D02*
X446556D01*
X439556D02*
X443756D01*
X436756D02*
X438156D01*
X431156D02*
X435356D01*
X425556D02*
X428356D01*
X422756D02*
X424156D01*
X419956D02*
X421356D01*
X414356D02*
X415756D01*
X408756D02*
X412956D01*
X405956D02*
X407356D01*
X456356Y259458D02*
X457756D01*
X450756D02*
X454956D01*
X447956D02*
X449356D01*
X445156D02*
X446556D01*
X439556D02*
X443756D01*
X436756D02*
X438156D01*
X431156D02*
X435356D01*
X425556D02*
X428356D01*
X422756D02*
X424156D01*
X419956D02*
X421356D01*
X414356D02*
X415756D01*
X408756D02*
X412956D01*
X405956D02*
X407356D01*
X456356Y259258D02*
X457756D01*
X450756D02*
X454956D01*
X447956D02*
X449356D01*
X445156D02*
X446556D01*
X439556D02*
X443756D01*
X436756D02*
X438156D01*
X431156D02*
X435356D01*
X425556D02*
X428356D01*
X422756D02*
X424156D01*
X419956D02*
X421356D01*
X414356D02*
X415756D01*
X408756D02*
X412956D01*
X405956D02*
X407356D01*
X456356Y259058D02*
X457756D01*
X450756D02*
X454956D01*
X447956D02*
X449356D01*
X445156D02*
X446556D01*
X439556D02*
X443756D01*
X436756D02*
X438156D01*
X431156D02*
X435356D01*
X425556D02*
X428356D01*
X422756D02*
X424156D01*
X419956D02*
X421356D01*
X414356D02*
X415756D01*
X408756D02*
X412956D01*
X405956D02*
X407356D01*
X456356Y258858D02*
X457756D01*
X450756D02*
X454956D01*
X447956D02*
X449356D01*
X445156D02*
X446556D01*
X439556D02*
X443756D01*
X436756D02*
X438156D01*
X431156D02*
X435356D01*
X425556D02*
X428356D01*
X422756D02*
X424156D01*
X419956D02*
X421356D01*
X414356D02*
X415756D01*
X408756D02*
X412956D01*
X405956D02*
X407356D01*
X456356Y258658D02*
X457756D01*
X450756D02*
X454956D01*
X447956D02*
X449356D01*
X445156D02*
X446556D01*
X439556D02*
X443756D01*
X436756D02*
X438156D01*
X431156D02*
X435356D01*
X425556D02*
X428356D01*
X422756D02*
X424156D01*
X419956D02*
X421356D01*
X414356D02*
X415756D01*
X408756D02*
X412956D01*
X405956D02*
X407356D01*
X456356Y258458D02*
X457756D01*
X450756D02*
X454956D01*
X447956D02*
X449356D01*
X445156D02*
X446556D01*
X438156D02*
X439556D01*
X418556D02*
X424156D01*
X414356D02*
X415756D01*
X408756D02*
X412956D01*
X405956D02*
X407356D01*
X456356Y258258D02*
X457756D01*
X450756D02*
X454956D01*
X447956D02*
X449356D01*
X445156D02*
X446556D01*
X438156D02*
X439556D01*
X418556D02*
X424156D01*
X414356D02*
X415756D01*
X408756D02*
X412956D01*
X405956D02*
X407356D01*
X456356Y258058D02*
X457756D01*
X450756D02*
X454956D01*
X447956D02*
X449356D01*
X445156D02*
X446556D01*
X438156D02*
X439556D01*
X418556D02*
X424156D01*
X414356D02*
X415756D01*
X408756D02*
X412956D01*
X405956D02*
X407356D01*
X456356Y257858D02*
X457756D01*
X450756D02*
X454956D01*
X447956D02*
X449356D01*
X445156D02*
X446556D01*
X438156D02*
X439556D01*
X418556D02*
X424156D01*
X414356D02*
X415756D01*
X408756D02*
X412956D01*
X405956D02*
X407356D01*
X456356Y257658D02*
X457756D01*
X450756D02*
X454956D01*
X447956D02*
X449356D01*
X445156D02*
X446556D01*
X438156D02*
X439556D01*
X418556D02*
X424156D01*
X414356D02*
X415756D01*
X408756D02*
X412956D01*
X405956D02*
X407356D01*
X456356Y257458D02*
X457756D01*
X450756D02*
X454956D01*
X447956D02*
X449356D01*
X445156D02*
X446556D01*
X438156D02*
X439556D01*
X418556D02*
X424156D01*
X414356D02*
X415756D01*
X408756D02*
X412956D01*
X405956D02*
X407356D01*
X456356Y257258D02*
X457756D01*
X450756D02*
X454956D01*
X447956D02*
X449356D01*
X445156D02*
X446556D01*
X438156D02*
X439556D01*
X418556D02*
X424156D01*
X414356D02*
X415756D01*
X408756D02*
X412956D01*
X405956D02*
X407356D01*
X456356Y257058D02*
X457756D01*
X447956D02*
X449356D01*
X445156D02*
X446556D01*
X439556D02*
X440956D01*
X435356D02*
X436756D01*
X429756D02*
X431156D01*
X424156D02*
X428356D01*
X421356D02*
X422756D01*
X417156D02*
X419956D01*
X414356D02*
X415756D01*
X405956D02*
X407356D01*
X456356Y256858D02*
X457756D01*
X447956D02*
X449356D01*
X445156D02*
X446556D01*
X439556D02*
X440956D01*
X435356D02*
X436756D01*
X429756D02*
X431156D01*
X424156D02*
X428356D01*
X421356D02*
X422756D01*
X417156D02*
X419956D01*
X414356D02*
X415756D01*
X405956D02*
X407356D01*
X456356Y256658D02*
X457756D01*
X447956D02*
X449356D01*
X445156D02*
X446556D01*
X439556D02*
X440956D01*
X435356D02*
X436756D01*
X429756D02*
X431156D01*
X424156D02*
X428356D01*
X421356D02*
X422756D01*
X417156D02*
X419956D01*
X414356D02*
X415756D01*
X405956D02*
X407356D01*
X456356Y256458D02*
X457756D01*
X447956D02*
X449356D01*
X445156D02*
X446556D01*
X439556D02*
X440956D01*
X435356D02*
X436756D01*
X429756D02*
X431156D01*
X424156D02*
X428356D01*
X421356D02*
X422756D01*
X417156D02*
X419956D01*
X414356D02*
X415756D01*
X405956D02*
X407356D01*
X456356Y256258D02*
X457756D01*
X447956D02*
X449356D01*
X445156D02*
X446556D01*
X439556D02*
X440956D01*
X435356D02*
X436756D01*
X429756D02*
X431156D01*
X424156D02*
X428356D01*
X421356D02*
X422756D01*
X417156D02*
X419956D01*
X414356D02*
X415756D01*
X405956D02*
X407356D01*
X456356Y256058D02*
X457756D01*
X447956D02*
X449356D01*
X445156D02*
X446556D01*
X439556D02*
X440956D01*
X435356D02*
X436756D01*
X429756D02*
X431156D01*
X424156D02*
X428356D01*
X421356D02*
X422756D01*
X417156D02*
X419956D01*
X414356D02*
X415756D01*
X405956D02*
X407356D01*
X456356Y255858D02*
X457756D01*
X447956D02*
X449356D01*
X445156D02*
X446556D01*
X439556D02*
X440956D01*
X435356D02*
X436756D01*
X429756D02*
X431156D01*
X424156D02*
X428356D01*
X421356D02*
X422756D01*
X417156D02*
X419956D01*
X414356D02*
X415756D01*
X405956D02*
X407356D01*
X447956Y255658D02*
X457756D01*
X445156D02*
X446556D01*
X442356D02*
X443756D01*
X439556D02*
X440956D01*
X436756D02*
X438156D01*
X433956D02*
X435356D01*
X431156D02*
X432556D01*
X428356D02*
X429756D01*
X425556D02*
X426956D01*
X422756D02*
X424156D01*
X419956D02*
X421356D01*
X417156D02*
X418556D01*
X405956D02*
X415756D01*
X447956Y255458D02*
X457756D01*
X445156D02*
X446556D01*
X442356D02*
X443756D01*
X439556D02*
X440956D01*
X436756D02*
X438156D01*
X433956D02*
X435356D01*
X431156D02*
X432556D01*
X428356D02*
X429756D01*
X425556D02*
X426956D01*
X422756D02*
X424156D01*
X419956D02*
X421356D01*
X417156D02*
X418556D01*
X405956D02*
X415756D01*
X447956Y255258D02*
X457756D01*
X445156D02*
X446556D01*
X442356D02*
X443756D01*
X439556D02*
X440956D01*
X436756D02*
X438156D01*
X433956D02*
X435356D01*
X431156D02*
X432556D01*
X428356D02*
X429756D01*
X425556D02*
X426956D01*
X422756D02*
X424156D01*
X419956D02*
X421356D01*
X417156D02*
X418556D01*
X405956D02*
X415756D01*
X447956Y255058D02*
X457756D01*
X445156D02*
X446556D01*
X442356D02*
X443756D01*
X439556D02*
X440956D01*
X436756D02*
X438156D01*
X433956D02*
X435356D01*
X431156D02*
X432556D01*
X428356D02*
X429756D01*
X425556D02*
X426956D01*
X422756D02*
X424156D01*
X419956D02*
X421356D01*
X417156D02*
X418556D01*
X405956D02*
X415756D01*
X447956Y254858D02*
X457756D01*
X445156D02*
X446556D01*
X442356D02*
X443756D01*
X439556D02*
X440956D01*
X436756D02*
X438156D01*
X433956D02*
X435356D01*
X431156D02*
X432556D01*
X428356D02*
X429756D01*
X425556D02*
X426956D01*
X422756D02*
X424156D01*
X419956D02*
X421356D01*
X417156D02*
X418556D01*
X405956D02*
X415756D01*
X447956Y254658D02*
X457756D01*
X445156D02*
X446556D01*
X442356D02*
X443756D01*
X439556D02*
X440956D01*
X436756D02*
X438156D01*
X433956D02*
X435356D01*
X431156D02*
X432556D01*
X428356D02*
X429756D01*
X425556D02*
X426956D01*
X422756D02*
X424156D01*
X419956D02*
X421356D01*
X417156D02*
X418556D01*
X405956D02*
X415756D01*
X447956Y254458D02*
X457756D01*
X445156D02*
X446556D01*
X442356D02*
X443756D01*
X439556D02*
X440956D01*
X436756D02*
X438156D01*
X433956D02*
X435356D01*
X431156D02*
X432556D01*
X428356D02*
X429756D01*
X425556D02*
X426956D01*
X422756D02*
X424156D01*
X419956D02*
X421356D01*
X417156D02*
X418556D01*
X405956D02*
X415756D01*
X442356Y254258D02*
X443756D01*
X439556D02*
X440956D01*
X433956D02*
X435356D01*
X431156D02*
X432556D01*
X422756D02*
X426956D01*
X442356Y254058D02*
X443756D01*
X439556D02*
X440956D01*
X433956D02*
X435356D01*
X431156D02*
X432556D01*
X422756D02*
X426956D01*
X442356Y253858D02*
X443756D01*
X439556D02*
X440956D01*
X433956D02*
X435356D01*
X431156D02*
X432556D01*
X422756D02*
X426956D01*
X442356Y253658D02*
X443756D01*
X439556D02*
X440956D01*
X433956D02*
X435356D01*
X431156D02*
X432556D01*
X422756D02*
X426956D01*
X442356Y253458D02*
X443756D01*
X439556D02*
X440956D01*
X433956D02*
X435356D01*
X431156D02*
X432556D01*
X422756D02*
X426956D01*
X442356Y253258D02*
X443756D01*
X439556D02*
X440956D01*
X433956D02*
X435356D01*
X431156D02*
X432556D01*
X422756D02*
X426956D01*
X442356Y253058D02*
X443756D01*
X439556D02*
X440956D01*
X433956D02*
X435356D01*
X431156D02*
X432556D01*
X422756D02*
X426956D01*
X452156Y252858D02*
X453556D01*
X447956D02*
X449356D01*
X440956D02*
X443756D01*
X436756D02*
X439556D01*
X433956D02*
X435356D01*
X428356D02*
X431156D01*
X424156D02*
X425556D01*
X417156D02*
X419956D01*
X410156D02*
X414356D01*
X405956D02*
X408756D01*
X452156Y252658D02*
X453556D01*
X447956D02*
X449356D01*
X440956D02*
X443756D01*
X436756D02*
X439556D01*
X433956D02*
X435356D01*
X428356D02*
X431156D01*
X424156D02*
X425556D01*
X417156D02*
X419956D01*
X410156D02*
X414356D01*
X405956D02*
X408756D01*
X452156Y252458D02*
X453556D01*
X447956D02*
X449356D01*
X440956D02*
X443756D01*
X436756D02*
X439556D01*
X433956D02*
X435356D01*
X428356D02*
X431156D01*
X424156D02*
X425556D01*
X417156D02*
X419956D01*
X410156D02*
X414356D01*
X405956D02*
X408756D01*
X452156Y252258D02*
X453556D01*
X447956D02*
X449356D01*
X440956D02*
X443756D01*
X436756D02*
X439556D01*
X433956D02*
X435356D01*
X428356D02*
X431156D01*
X424156D02*
X425556D01*
X417156D02*
X419956D01*
X410156D02*
X414356D01*
X405956D02*
X408756D01*
X452156Y252058D02*
X453556D01*
X447956D02*
X449356D01*
X440956D02*
X443756D01*
X436756D02*
X439556D01*
X433956D02*
X435356D01*
X428356D02*
X431156D01*
X424156D02*
X425556D01*
X417156D02*
X419956D01*
X410156D02*
X414356D01*
X405956D02*
X408756D01*
X452156Y251858D02*
X453556D01*
X447956D02*
X449356D01*
X440956D02*
X443756D01*
X436756D02*
X439556D01*
X433956D02*
X435356D01*
X428356D02*
X431156D01*
X424156D02*
X425556D01*
X417156D02*
X419956D01*
X410156D02*
X414356D01*
X405956D02*
X408756D01*
X452156Y251658D02*
X453556D01*
X447956D02*
X449356D01*
X440956D02*
X443756D01*
X436756D02*
X439556D01*
X433956D02*
X435356D01*
X428356D02*
X431156D01*
X424156D02*
X425556D01*
X417156D02*
X419956D01*
X410156D02*
X414356D01*
X405956D02*
X408756D01*
X456356Y251458D02*
X457756D01*
X453556D02*
X454956D01*
X445156D02*
X446556D01*
X439556D02*
X442356D01*
X435356D02*
X438156D01*
X431156D02*
X433956D01*
X428356D02*
X429756D01*
X424156D02*
X425556D01*
X414356D02*
X418556D01*
X408756D02*
X411556D01*
X405956D02*
X407356D01*
X456356Y251258D02*
X457756D01*
X453556D02*
X454956D01*
X445156D02*
X446556D01*
X439556D02*
X442356D01*
X435356D02*
X438156D01*
X431156D02*
X433956D01*
X428356D02*
X429756D01*
X424156D02*
X425556D01*
X414356D02*
X418556D01*
X408756D02*
X411556D01*
X405956D02*
X407356D01*
X456356Y251058D02*
X457756D01*
X453556D02*
X454956D01*
X445156D02*
X446556D01*
X439556D02*
X442356D01*
X435356D02*
X438156D01*
X431156D02*
X433956D01*
X428356D02*
X429756D01*
X424156D02*
X425556D01*
X414356D02*
X418556D01*
X408756D02*
X411556D01*
X405956D02*
X407356D01*
X456356Y250858D02*
X457756D01*
X453556D02*
X454956D01*
X445156D02*
X446556D01*
X439556D02*
X442356D01*
X435356D02*
X438156D01*
X431156D02*
X433956D01*
X428356D02*
X429756D01*
X424156D02*
X425556D01*
X414356D02*
X418556D01*
X408756D02*
X411556D01*
X405956D02*
X407356D01*
X456356Y250658D02*
X457756D01*
X453556D02*
X454956D01*
X445156D02*
X446556D01*
X439556D02*
X442356D01*
X435356D02*
X438156D01*
X431156D02*
X433956D01*
X428356D02*
X429756D01*
X424156D02*
X425556D01*
X414356D02*
X418556D01*
X408756D02*
X411556D01*
X405956D02*
X407356D01*
X456356Y250458D02*
X457756D01*
X453556D02*
X454956D01*
X445156D02*
X446556D01*
X439556D02*
X442356D01*
X435356D02*
X438156D01*
X431156D02*
X433956D01*
X428356D02*
X429756D01*
X424156D02*
X425556D01*
X414356D02*
X418556D01*
X408756D02*
X411556D01*
X405956D02*
X407356D01*
X456356Y250258D02*
X457756D01*
X453556D02*
X454956D01*
X445156D02*
X446556D01*
X439556D02*
X442356D01*
X435356D02*
X438156D01*
X431156D02*
X433956D01*
X428356D02*
X429756D01*
X424156D02*
X425556D01*
X414356D02*
X418556D01*
X408756D02*
X411556D01*
X405956D02*
X407356D01*
X454956Y250058D02*
X457756D01*
X450756D02*
X452156D01*
X445156D02*
X449356D01*
X436756D02*
X439556D01*
X431156D02*
X432556D01*
X425556D02*
X429756D01*
X412956D02*
X415756D01*
X408756D02*
X411556D01*
X405956D02*
X407356D01*
X454956Y249858D02*
X457756D01*
X450756D02*
X452156D01*
X445156D02*
X449356D01*
X436756D02*
X439556D01*
X431156D02*
X432556D01*
X425556D02*
X429756D01*
X412956D02*
X415756D01*
X408756D02*
X411556D01*
X405956D02*
X407356D01*
X454956Y249658D02*
X457756D01*
X450756D02*
X452156D01*
X445156D02*
X449356D01*
X436756D02*
X439556D01*
X431156D02*
X432556D01*
X425556D02*
X429756D01*
X412956D02*
X415756D01*
X408756D02*
X411556D01*
X405956D02*
X407356D01*
X454956Y249458D02*
X457756D01*
X450756D02*
X452156D01*
X445156D02*
X449356D01*
X436756D02*
X439556D01*
X431156D02*
X432556D01*
X425556D02*
X429756D01*
X412956D02*
X415756D01*
X408756D02*
X411556D01*
X405956D02*
X407356D01*
X454956Y249258D02*
X457756D01*
X450756D02*
X452156D01*
X445156D02*
X449356D01*
X436756D02*
X439556D01*
X431156D02*
X432556D01*
X425556D02*
X429756D01*
X412956D02*
X415756D01*
X408756D02*
X411556D01*
X405956D02*
X407356D01*
X454956Y249058D02*
X457756D01*
X450756D02*
X452156D01*
X445156D02*
X449356D01*
X436756D02*
X439556D01*
X431156D02*
X432556D01*
X425556D02*
X429756D01*
X412956D02*
X415756D01*
X408756D02*
X411556D01*
X405956D02*
X407356D01*
X454956Y248858D02*
X457756D01*
X450756D02*
X452156D01*
X445156D02*
X449356D01*
X436756D02*
X439556D01*
X431156D02*
X432556D01*
X425556D02*
X429756D01*
X412956D02*
X415756D01*
X408756D02*
X411556D01*
X405956D02*
X407356D01*
X454956Y248658D02*
X457756D01*
X449356D02*
X453556D01*
X442356D02*
X447956D01*
X439556D02*
X440956D01*
X436756D02*
X438156D01*
X432556D02*
X433956D01*
X429756D02*
X431156D01*
X421356D02*
X424156D01*
X411556D02*
X414356D01*
X405956D02*
X407356D01*
X454956Y248458D02*
X457756D01*
X449356D02*
X453556D01*
X442356D02*
X447956D01*
X439556D02*
X440956D01*
X436756D02*
X438156D01*
X432556D02*
X433956D01*
X429756D02*
X431156D01*
X421356D02*
X424156D01*
X411556D02*
X414356D01*
X405956D02*
X407356D01*
X454956Y248258D02*
X457756D01*
X449356D02*
X453556D01*
X442356D02*
X447956D01*
X439556D02*
X440956D01*
X436756D02*
X438156D01*
X432556D02*
X433956D01*
X429756D02*
X431156D01*
X421356D02*
X424156D01*
X411556D02*
X414356D01*
X405956D02*
X407356D01*
X454956Y248058D02*
X457756D01*
X449356D02*
X453556D01*
X442356D02*
X447956D01*
X439556D02*
X440956D01*
X436756D02*
X438156D01*
X432556D02*
X433956D01*
X429756D02*
X431156D01*
X421356D02*
X424156D01*
X411556D02*
X414356D01*
X405956D02*
X407356D01*
X454956Y247858D02*
X457756D01*
X449356D02*
X453556D01*
X442356D02*
X447956D01*
X439556D02*
X440956D01*
X436756D02*
X438156D01*
X432556D02*
X433956D01*
X429756D02*
X431156D01*
X421356D02*
X424156D01*
X411556D02*
X414356D01*
X405956D02*
X407356D01*
X454956Y247658D02*
X457756D01*
X449356D02*
X453556D01*
X442356D02*
X447956D01*
X439556D02*
X440956D01*
X436756D02*
X438156D01*
X432556D02*
X433956D01*
X429756D02*
X431156D01*
X421356D02*
X424156D01*
X411556D02*
X414356D01*
X405956D02*
X407356D01*
X454956Y247458D02*
X457756D01*
X449356D02*
X453556D01*
X442356D02*
X447956D01*
X439556D02*
X440956D01*
X436756D02*
X438156D01*
X432556D02*
X433956D01*
X429756D02*
X431156D01*
X421356D02*
X424156D01*
X411556D02*
X414356D01*
X405956D02*
X407356D01*
X454956Y247258D02*
X457756D01*
X450756D02*
X452156D01*
X446556D02*
X449356D01*
X440956D02*
X443756D01*
X438156D02*
X439556D01*
X429756D02*
X436756D01*
X421356D02*
X425556D01*
X412956D02*
X418556D01*
X405956D02*
X408756D01*
X454956Y247058D02*
X457756D01*
X450756D02*
X452156D01*
X446556D02*
X449356D01*
X440956D02*
X443756D01*
X438156D02*
X439556D01*
X429756D02*
X436756D01*
X421356D02*
X425556D01*
X412956D02*
X418556D01*
X405956D02*
X408756D01*
X454956Y246858D02*
X457756D01*
X450756D02*
X452156D01*
X446556D02*
X449356D01*
X440956D02*
X443756D01*
X438156D02*
X439556D01*
X429756D02*
X436756D01*
X421356D02*
X425556D01*
X412956D02*
X418556D01*
X405956D02*
X408756D01*
X454956Y246658D02*
X457756D01*
X450756D02*
X452156D01*
X446556D02*
X449356D01*
X440956D02*
X443756D01*
X438156D02*
X439556D01*
X429756D02*
X436756D01*
X421356D02*
X425556D01*
X412956D02*
X418556D01*
X405956D02*
X408756D01*
X454956Y246458D02*
X457756D01*
X450756D02*
X452156D01*
X446556D02*
X449356D01*
X440956D02*
X443756D01*
X438156D02*
X439556D01*
X429756D02*
X436756D01*
X421356D02*
X425556D01*
X412956D02*
X418556D01*
X405956D02*
X408756D01*
X454956Y246258D02*
X457756D01*
X450756D02*
X452156D01*
X446556D02*
X449356D01*
X440956D02*
X443756D01*
X438156D02*
X439556D01*
X429756D02*
X436756D01*
X421356D02*
X425556D01*
X412956D02*
X418556D01*
X405956D02*
X408756D01*
X454956Y246058D02*
X457756D01*
X450756D02*
X452156D01*
X446556D02*
X449356D01*
X440956D02*
X443756D01*
X438156D02*
X439556D01*
X429756D02*
X436756D01*
X421356D02*
X425556D01*
X412956D02*
X418556D01*
X405956D02*
X408756D01*
X456356Y245858D02*
X457756D01*
X445156D02*
X447956D01*
X440956D02*
X442356D01*
X435356D02*
X436756D01*
X429756D02*
X433956D01*
X425556D02*
X426956D01*
X421356D02*
X422756D01*
X418556D02*
X419956D01*
X412956D02*
X415756D01*
X410156D02*
X411556D01*
X405956D02*
X408756D01*
X456356Y245658D02*
X457756D01*
X445156D02*
X447956D01*
X440956D02*
X442356D01*
X435356D02*
X436756D01*
X429756D02*
X433956D01*
X425556D02*
X426956D01*
X421356D02*
X422756D01*
X418556D02*
X419956D01*
X412956D02*
X415756D01*
X410156D02*
X411556D01*
X405956D02*
X408756D01*
X456356Y245458D02*
X457756D01*
X445156D02*
X447956D01*
X440956D02*
X442356D01*
X435356D02*
X436756D01*
X429756D02*
X433956D01*
X425556D02*
X426956D01*
X421356D02*
X422756D01*
X418556D02*
X419956D01*
X412956D02*
X415756D01*
X410156D02*
X411556D01*
X405956D02*
X408756D01*
X456356Y245258D02*
X457756D01*
X445156D02*
X447956D01*
X440956D02*
X442356D01*
X435356D02*
X436756D01*
X429756D02*
X433956D01*
X425556D02*
X426956D01*
X421356D02*
X422756D01*
X418556D02*
X419956D01*
X412956D02*
X415756D01*
X410156D02*
X411556D01*
X405956D02*
X408756D01*
X456356Y245058D02*
X457756D01*
X445156D02*
X447956D01*
X440956D02*
X442356D01*
X435356D02*
X436756D01*
X429756D02*
X433956D01*
X425556D02*
X426956D01*
X421356D02*
X422756D01*
X418556D02*
X419956D01*
X412956D02*
X415756D01*
X410156D02*
X411556D01*
X405956D02*
X408756D01*
X456356Y244858D02*
X457756D01*
X445156D02*
X447956D01*
X440956D02*
X442356D01*
X435356D02*
X436756D01*
X429756D02*
X433956D01*
X425556D02*
X426956D01*
X421356D02*
X422756D01*
X418556D02*
X419956D01*
X412956D02*
X415756D01*
X410156D02*
X411556D01*
X405956D02*
X408756D01*
X456356Y244658D02*
X457756D01*
X445156D02*
X447956D01*
X440956D02*
X442356D01*
X435356D02*
X436756D01*
X429756D02*
X433956D01*
X425556D02*
X426956D01*
X421356D02*
X422756D01*
X418556D02*
X419956D01*
X412956D02*
X415756D01*
X410156D02*
X411556D01*
X405956D02*
X408756D01*
X452156Y244458D02*
X457756D01*
X447956D02*
X449356D01*
X443756D02*
X446556D01*
X439556D02*
X442356D01*
X436756D02*
X438156D01*
X428356D02*
X433956D01*
X419956D02*
X425556D01*
X411556D02*
X412956D01*
X408756D02*
X410156D01*
X405956D02*
X407356D01*
X452156Y244258D02*
X457756D01*
X447956D02*
X449356D01*
X443756D02*
X446556D01*
X439556D02*
X442356D01*
X436756D02*
X438156D01*
X428356D02*
X433956D01*
X419956D02*
X425556D01*
X411556D02*
X412956D01*
X408756D02*
X410156D01*
X405956D02*
X407356D01*
X452156Y244058D02*
X457756D01*
X447956D02*
X449356D01*
X443756D02*
X446556D01*
X439556D02*
X442356D01*
X436756D02*
X438156D01*
X428356D02*
X433956D01*
X419956D02*
X425556D01*
X411556D02*
X412956D01*
X408756D02*
X410156D01*
X405956D02*
X407356D01*
X452156Y243858D02*
X457756D01*
X447956D02*
X449356D01*
X443756D02*
X446556D01*
X439556D02*
X442356D01*
X436756D02*
X438156D01*
X428356D02*
X433956D01*
X419956D02*
X425556D01*
X411556D02*
X412956D01*
X408756D02*
X410156D01*
X405956D02*
X407356D01*
X452156Y243658D02*
X457756D01*
X447956D02*
X449356D01*
X443756D02*
X446556D01*
X439556D02*
X442356D01*
X436756D02*
X438156D01*
X428356D02*
X433956D01*
X419956D02*
X425556D01*
X411556D02*
X412956D01*
X408756D02*
X410156D01*
X405956D02*
X407356D01*
X452156Y243458D02*
X457756D01*
X447956D02*
X449356D01*
X443756D02*
X446556D01*
X439556D02*
X442356D01*
X436756D02*
X438156D01*
X428356D02*
X433956D01*
X419956D02*
X425556D01*
X411556D02*
X412956D01*
X408756D02*
X410156D01*
X405956D02*
X407356D01*
X452156Y243258D02*
X457756D01*
X447956D02*
X449356D01*
X443756D02*
X446556D01*
X439556D02*
X442356D01*
X436756D02*
X438156D01*
X428356D02*
X433956D01*
X419956D02*
X425556D01*
X411556D02*
X412956D01*
X408756D02*
X410156D01*
X405956D02*
X407356D01*
X450756Y243058D02*
X457756D01*
X445156D02*
X447956D01*
X439556D02*
X440956D01*
X432556D02*
X433956D01*
X428356D02*
X431156D01*
X419956D02*
X425556D01*
X414356D02*
X418556D01*
X407356D02*
X408756D01*
X450756Y242858D02*
X457756D01*
X445156D02*
X447956D01*
X439556D02*
X440956D01*
X432556D02*
X433956D01*
X428356D02*
X431156D01*
X419956D02*
X425556D01*
X414356D02*
X418556D01*
X407356D02*
X408756D01*
X450756Y242658D02*
X457756D01*
X445156D02*
X447956D01*
X439556D02*
X440956D01*
X432556D02*
X433956D01*
X428356D02*
X431156D01*
X419956D02*
X425556D01*
X414356D02*
X418556D01*
X407356D02*
X408756D01*
X450756Y242458D02*
X457756D01*
X445156D02*
X447956D01*
X439556D02*
X440956D01*
X432556D02*
X433956D01*
X428356D02*
X431156D01*
X419956D02*
X425556D01*
X414356D02*
X418556D01*
X407356D02*
X408756D01*
X450756Y242258D02*
X457756D01*
X445156D02*
X447956D01*
X439556D02*
X440956D01*
X432556D02*
X433956D01*
X428356D02*
X431156D01*
X419956D02*
X425556D01*
X414356D02*
X418556D01*
X407356D02*
X408756D01*
X450756Y242058D02*
X457756D01*
X445156D02*
X447956D01*
X439556D02*
X440956D01*
X432556D02*
X433956D01*
X428356D02*
X431156D01*
X419956D02*
X425556D01*
X414356D02*
X418556D01*
X407356D02*
X408756D01*
X450756Y241858D02*
X457756D01*
X445156D02*
X447956D01*
X439556D02*
X440956D01*
X432556D02*
X433956D01*
X428356D02*
X431156D01*
X419956D02*
X425556D01*
X414356D02*
X418556D01*
X407356D02*
X408756D01*
X456356Y241658D02*
X457756D01*
X452156D02*
X454956D01*
X447956D02*
X449356D01*
X443756D02*
X445156D01*
X438156D02*
X440956D01*
X435356D02*
X436756D01*
X431156D02*
X433956D01*
X422756D02*
X424156D01*
X418556D02*
X419956D01*
X412956D02*
X417156D01*
X405956D02*
X411556D01*
X456356Y241458D02*
X457756D01*
X452156D02*
X454956D01*
X447956D02*
X449356D01*
X443756D02*
X445156D01*
X438156D02*
X440956D01*
X435356D02*
X436756D01*
X431156D02*
X433956D01*
X422756D02*
X424156D01*
X418556D02*
X419956D01*
X412956D02*
X417156D01*
X405956D02*
X411556D01*
X456356Y241258D02*
X457756D01*
X452156D02*
X454956D01*
X447956D02*
X449356D01*
X443756D02*
X445156D01*
X438156D02*
X440956D01*
X435356D02*
X436756D01*
X431156D02*
X433956D01*
X422756D02*
X424156D01*
X418556D02*
X419956D01*
X412956D02*
X417156D01*
X405956D02*
X411556D01*
X456356Y241058D02*
X457756D01*
X452156D02*
X454956D01*
X447956D02*
X449356D01*
X443756D02*
X445156D01*
X438156D02*
X440956D01*
X435356D02*
X436756D01*
X431156D02*
X433956D01*
X422756D02*
X424156D01*
X418556D02*
X419956D01*
X412956D02*
X417156D01*
X405956D02*
X411556D01*
X456356Y240858D02*
X457756D01*
X452156D02*
X454956D01*
X447956D02*
X449356D01*
X443756D02*
X445156D01*
X438156D02*
X440956D01*
X435356D02*
X436756D01*
X431156D02*
X433956D01*
X422756D02*
X424156D01*
X418556D02*
X419956D01*
X412956D02*
X417156D01*
X405956D02*
X411556D01*
X456356Y240658D02*
X457756D01*
X452156D02*
X454956D01*
X447956D02*
X449356D01*
X443756D02*
X445156D01*
X438156D02*
X440956D01*
X435356D02*
X436756D01*
X431156D02*
X433956D01*
X422756D02*
X424156D01*
X418556D02*
X419956D01*
X412956D02*
X417156D01*
X405956D02*
X411556D01*
X456356Y240458D02*
X457756D01*
X452156D02*
X454956D01*
X447956D02*
X449356D01*
X443756D02*
X445156D01*
X438156D02*
X440956D01*
X435356D02*
X436756D01*
X431156D02*
X433956D01*
X422756D02*
X424156D01*
X418556D02*
X419956D01*
X412956D02*
X417156D01*
X405956D02*
X411556D01*
X454956Y240258D02*
X456356D01*
X452156D02*
X453556D01*
X449356D02*
X450756D01*
X438156D02*
X445156D01*
X425556D02*
X426956D01*
X422756D02*
X424156D01*
X419956D02*
X421356D01*
X417156D02*
X418556D01*
X408756D02*
X415756D01*
X405956D02*
X407356D01*
X454956Y240058D02*
X456356D01*
X452156D02*
X453556D01*
X449356D02*
X450756D01*
X438156D02*
X445156D01*
X425556D02*
X426956D01*
X422756D02*
X424156D01*
X419956D02*
X421356D01*
X417156D02*
X418556D01*
X408756D02*
X415756D01*
X405956D02*
X407356D01*
X454956Y239858D02*
X456356D01*
X452156D02*
X453556D01*
X449356D02*
X450756D01*
X438156D02*
X445156D01*
X425556D02*
X426956D01*
X422756D02*
X424156D01*
X419956D02*
X421356D01*
X417156D02*
X418556D01*
X408756D02*
X415756D01*
X405956D02*
X407356D01*
X454956Y239658D02*
X456356D01*
X452156D02*
X453556D01*
X449356D02*
X450756D01*
X438156D02*
X445156D01*
X425556D02*
X426956D01*
X422756D02*
X424156D01*
X419956D02*
X421356D01*
X417156D02*
X418556D01*
X408756D02*
X415756D01*
X405956D02*
X407356D01*
X454956Y239458D02*
X456356D01*
X452156D02*
X453556D01*
X449356D02*
X450756D01*
X438156D02*
X445156D01*
X425556D02*
X426956D01*
X422756D02*
X424156D01*
X419956D02*
X421356D01*
X417156D02*
X418556D01*
X408756D02*
X415756D01*
X405956D02*
X407356D01*
X454956Y239258D02*
X456356D01*
X452156D02*
X453556D01*
X449356D02*
X450756D01*
X438156D02*
X445156D01*
X425556D02*
X426956D01*
X422756D02*
X424156D01*
X419956D02*
X421356D01*
X417156D02*
X418556D01*
X408756D02*
X415756D01*
X405956D02*
X407356D01*
X454956Y239058D02*
X456356D01*
X452156D02*
X453556D01*
X449356D02*
X450756D01*
X438156D02*
X445156D01*
X425556D02*
X426956D01*
X422756D02*
X424156D01*
X419956D02*
X421356D01*
X417156D02*
X418556D01*
X408756D02*
X415756D01*
X405956D02*
X407356D01*
X450756Y238858D02*
X453556D01*
X447956D02*
X449356D01*
X445156D02*
X446556D01*
X440956D02*
X443756D01*
X435356D02*
X439556D01*
X428356D02*
X433956D01*
X422756D02*
X425556D01*
X419956D02*
X421356D01*
X414356D02*
X415756D01*
X405956D02*
X410156D01*
X450756Y238658D02*
X453556D01*
X447956D02*
X449356D01*
X445156D02*
X446556D01*
X440956D02*
X443756D01*
X435356D02*
X439556D01*
X428356D02*
X433956D01*
X422756D02*
X425556D01*
X419956D02*
X421356D01*
X414356D02*
X415756D01*
X405956D02*
X410156D01*
X450756Y238458D02*
X453556D01*
X447956D02*
X449356D01*
X445156D02*
X446556D01*
X440956D02*
X443756D01*
X435356D02*
X439556D01*
X428356D02*
X433956D01*
X422756D02*
X425556D01*
X419956D02*
X421356D01*
X414356D02*
X415756D01*
X405956D02*
X410156D01*
X450756Y238258D02*
X453556D01*
X447956D02*
X449356D01*
X445156D02*
X446556D01*
X440956D02*
X443756D01*
X435356D02*
X439556D01*
X428356D02*
X433956D01*
X422756D02*
X425556D01*
X419956D02*
X421356D01*
X414356D02*
X415756D01*
X405956D02*
X410156D01*
X450756Y238058D02*
X453556D01*
X447956D02*
X449356D01*
X445156D02*
X446556D01*
X440956D02*
X443756D01*
X435356D02*
X439556D01*
X428356D02*
X433956D01*
X422756D02*
X425556D01*
X419956D02*
X421356D01*
X414356D02*
X415756D01*
X405956D02*
X410156D01*
X450756Y237858D02*
X453556D01*
X447956D02*
X449356D01*
X445156D02*
X446556D01*
X440956D02*
X443756D01*
X435356D02*
X439556D01*
X428356D02*
X433956D01*
X422756D02*
X425556D01*
X419956D02*
X421356D01*
X414356D02*
X415756D01*
X405956D02*
X410156D01*
X450756Y237658D02*
X453556D01*
X447956D02*
X449356D01*
X445156D02*
X446556D01*
X440956D02*
X443756D01*
X435356D02*
X439556D01*
X428356D02*
X433956D01*
X422756D02*
X425556D01*
X419956D02*
X421356D01*
X414356D02*
X415756D01*
X405956D02*
X410156D01*
X453556Y237458D02*
X456356D01*
X450756D02*
X452156D01*
X443756D02*
X447956D01*
X438156D02*
X442356D01*
X432556D02*
X433956D01*
X429756D02*
X431156D01*
X425556D02*
X428356D01*
X422756D02*
X424156D01*
X419956D02*
X421356D01*
X415756D02*
X417156D01*
X408756D02*
X410156D01*
X453556Y237258D02*
X456356D01*
X450756D02*
X452156D01*
X443756D02*
X447956D01*
X438156D02*
X442356D01*
X432556D02*
X433956D01*
X429756D02*
X431156D01*
X425556D02*
X428356D01*
X422756D02*
X424156D01*
X419956D02*
X421356D01*
X415756D02*
X417156D01*
X408756D02*
X410156D01*
X453556Y237058D02*
X456356D01*
X450756D02*
X452156D01*
X443756D02*
X447956D01*
X438156D02*
X442356D01*
X432556D02*
X433956D01*
X429756D02*
X431156D01*
X425556D02*
X428356D01*
X422756D02*
X424156D01*
X419956D02*
X421356D01*
X415756D02*
X417156D01*
X408756D02*
X410156D01*
X453556Y236858D02*
X456356D01*
X450756D02*
X452156D01*
X443756D02*
X447956D01*
X438156D02*
X442356D01*
X432556D02*
X433956D01*
X429756D02*
X431156D01*
X425556D02*
X428356D01*
X422756D02*
X424156D01*
X419956D02*
X421356D01*
X415756D02*
X417156D01*
X408756D02*
X410156D01*
X453556Y236658D02*
X456356D01*
X450756D02*
X452156D01*
X443756D02*
X447956D01*
X438156D02*
X442356D01*
X432556D02*
X433956D01*
X429756D02*
X431156D01*
X425556D02*
X428356D01*
X422756D02*
X424156D01*
X419956D02*
X421356D01*
X415756D02*
X417156D01*
X408756D02*
X410156D01*
X453556Y236458D02*
X456356D01*
X450756D02*
X452156D01*
X443756D02*
X447956D01*
X438156D02*
X442356D01*
X432556D02*
X433956D01*
X429756D02*
X431156D01*
X425556D02*
X428356D01*
X422756D02*
X424156D01*
X419956D02*
X421356D01*
X415756D02*
X417156D01*
X408756D02*
X410156D01*
X453556Y236258D02*
X456356D01*
X450756D02*
X452156D01*
X443756D02*
X447956D01*
X438156D02*
X442356D01*
X432556D02*
X433956D01*
X429756D02*
X431156D01*
X425556D02*
X428356D01*
X422756D02*
X424156D01*
X419956D02*
X421356D01*
X415756D02*
X417156D01*
X408756D02*
X410156D01*
X450756Y236058D02*
X452156D01*
X443756D02*
X449356D01*
X438156D02*
X440956D01*
X435356D02*
X436756D01*
X432556D02*
X433956D01*
X425556D02*
X428356D01*
X417156D02*
X422756D01*
X410156D02*
X415756D01*
X407356D02*
X408756D01*
X450756Y235858D02*
X452156D01*
X443756D02*
X449356D01*
X438156D02*
X440956D01*
X435356D02*
X436756D01*
X432556D02*
X433956D01*
X425556D02*
X428356D01*
X417156D02*
X422756D01*
X410156D02*
X415756D01*
X407356D02*
X408756D01*
X450756Y235658D02*
X452156D01*
X443756D02*
X449356D01*
X438156D02*
X440956D01*
X435356D02*
X436756D01*
X432556D02*
X433956D01*
X425556D02*
X428356D01*
X417156D02*
X422756D01*
X410156D02*
X415756D01*
X407356D02*
X408756D01*
X450756Y235458D02*
X452156D01*
X443756D02*
X449356D01*
X438156D02*
X440956D01*
X435356D02*
X436756D01*
X432556D02*
X433956D01*
X425556D02*
X428356D01*
X417156D02*
X422756D01*
X410156D02*
X415756D01*
X407356D02*
X408756D01*
X450756Y235258D02*
X452156D01*
X443756D02*
X449356D01*
X438156D02*
X440956D01*
X435356D02*
X436756D01*
X432556D02*
X433956D01*
X425556D02*
X428356D01*
X417156D02*
X422756D01*
X410156D02*
X415756D01*
X407356D02*
X408756D01*
X450756Y235058D02*
X452156D01*
X443756D02*
X449356D01*
X438156D02*
X440956D01*
X435356D02*
X436756D01*
X432556D02*
X433956D01*
X425556D02*
X428356D01*
X417156D02*
X422756D01*
X410156D02*
X415756D01*
X407356D02*
X408756D01*
X450756Y234858D02*
X452156D01*
X443756D02*
X449356D01*
X438156D02*
X440956D01*
X435356D02*
X436756D01*
X432556D02*
X433956D01*
X425556D02*
X428356D01*
X417156D02*
X422756D01*
X410156D02*
X415756D01*
X407356D02*
X408756D01*
X449356Y234658D02*
X453556D01*
X443756D02*
X445156D01*
X438156D02*
X440956D01*
X426956D02*
X435356D01*
X422756D02*
X424156D01*
X414356D02*
X415756D01*
X407356D02*
X408756D01*
X449356Y234458D02*
X453556D01*
X443756D02*
X445156D01*
X438156D02*
X440956D01*
X426956D02*
X435356D01*
X422756D02*
X424156D01*
X414356D02*
X415756D01*
X407356D02*
X408756D01*
X449356Y234258D02*
X453556D01*
X443756D02*
X445156D01*
X438156D02*
X440956D01*
X426956D02*
X435356D01*
X422756D02*
X424156D01*
X414356D02*
X415756D01*
X407356D02*
X408756D01*
X449356Y234058D02*
X453556D01*
X443756D02*
X445156D01*
X438156D02*
X440956D01*
X426956D02*
X435356D01*
X422756D02*
X424156D01*
X414356D02*
X415756D01*
X407356D02*
X408756D01*
X449356Y233858D02*
X453556D01*
X443756D02*
X445156D01*
X438156D02*
X440956D01*
X426956D02*
X435356D01*
X422756D02*
X424156D01*
X414356D02*
X415756D01*
X407356D02*
X408756D01*
X449356Y233658D02*
X453556D01*
X443756D02*
X445156D01*
X438156D02*
X440956D01*
X426956D02*
X435356D01*
X422756D02*
X424156D01*
X414356D02*
X415756D01*
X407356D02*
X408756D01*
X449356Y233458D02*
X453556D01*
X443756D02*
X445156D01*
X438156D02*
X440956D01*
X426956D02*
X435356D01*
X422756D02*
X424156D01*
X414356D02*
X415756D01*
X407356D02*
X408756D01*
X453556Y233258D02*
X457756D01*
X447956D02*
X452156D01*
X442356D02*
X443756D01*
X439556D02*
X440956D01*
X436756D02*
X438156D01*
X432556D02*
X435356D01*
X425556D02*
X428356D01*
X422756D02*
X424156D01*
X415756D02*
X417156D01*
X411556D02*
X414356D01*
X405956D02*
X410156D01*
X453556Y233058D02*
X457756D01*
X447956D02*
X452156D01*
X442356D02*
X443756D01*
X439556D02*
X440956D01*
X436756D02*
X438156D01*
X432556D02*
X435356D01*
X425556D02*
X428356D01*
X422756D02*
X424156D01*
X415756D02*
X417156D01*
X411556D02*
X414356D01*
X405956D02*
X410156D01*
X453556Y232858D02*
X457756D01*
X447956D02*
X452156D01*
X442356D02*
X443756D01*
X439556D02*
X440956D01*
X436756D02*
X438156D01*
X432556D02*
X435356D01*
X425556D02*
X428356D01*
X422756D02*
X424156D01*
X415756D02*
X417156D01*
X411556D02*
X414356D01*
X405956D02*
X410156D01*
X453556Y232658D02*
X457756D01*
X447956D02*
X452156D01*
X442356D02*
X443756D01*
X439556D02*
X440956D01*
X436756D02*
X438156D01*
X432556D02*
X435356D01*
X425556D02*
X428356D01*
X422756D02*
X424156D01*
X415756D02*
X417156D01*
X411556D02*
X414356D01*
X405956D02*
X410156D01*
X453556Y232458D02*
X457756D01*
X447956D02*
X452156D01*
X442356D02*
X443756D01*
X439556D02*
X440956D01*
X436756D02*
X438156D01*
X432556D02*
X435356D01*
X425556D02*
X428356D01*
X422756D02*
X424156D01*
X415756D02*
X417156D01*
X411556D02*
X414356D01*
X405956D02*
X410156D01*
X453556Y232258D02*
X457756D01*
X447956D02*
X452156D01*
X442356D02*
X443756D01*
X439556D02*
X440956D01*
X436756D02*
X438156D01*
X432556D02*
X435356D01*
X425556D02*
X428356D01*
X422756D02*
X424156D01*
X415756D02*
X417156D01*
X411556D02*
X414356D01*
X405956D02*
X410156D01*
X453556Y232058D02*
X457756D01*
X447956D02*
X452156D01*
X442356D02*
X443756D01*
X439556D02*
X440956D01*
X436756D02*
X438156D01*
X432556D02*
X435356D01*
X425556D02*
X428356D01*
X422756D02*
X424156D01*
X415756D02*
X417156D01*
X411556D02*
X414356D01*
X405956D02*
X410156D01*
X450756Y231858D02*
X453556D01*
X445156D02*
X446556D01*
X435356D02*
X440956D01*
X429756D02*
X433956D01*
X422756D02*
X424156D01*
X419956D02*
X421356D01*
X414356D02*
X417156D01*
X411556D02*
X412956D01*
X407356D02*
X408756D01*
X450756Y231658D02*
X453556D01*
X445156D02*
X446556D01*
X435356D02*
X440956D01*
X429756D02*
X433956D01*
X422756D02*
X424156D01*
X419956D02*
X421356D01*
X414356D02*
X417156D01*
X411556D02*
X412956D01*
X407356D02*
X408756D01*
X450756Y231458D02*
X453556D01*
X445156D02*
X446556D01*
X435356D02*
X440956D01*
X429756D02*
X433956D01*
X422756D02*
X424156D01*
X419956D02*
X421356D01*
X414356D02*
X417156D01*
X411556D02*
X412956D01*
X407356D02*
X408756D01*
X450756Y231258D02*
X453556D01*
X445156D02*
X446556D01*
X435356D02*
X440956D01*
X429756D02*
X433956D01*
X422756D02*
X424156D01*
X419956D02*
X421356D01*
X414356D02*
X417156D01*
X411556D02*
X412956D01*
X407356D02*
X408756D01*
X450756Y231058D02*
X453556D01*
X445156D02*
X446556D01*
X435356D02*
X440956D01*
X429756D02*
X433956D01*
X422756D02*
X424156D01*
X419956D02*
X421356D01*
X414356D02*
X417156D01*
X411556D02*
X412956D01*
X407356D02*
X408756D01*
X450756Y230858D02*
X453556D01*
X445156D02*
X446556D01*
X435356D02*
X440956D01*
X429756D02*
X433956D01*
X422756D02*
X424156D01*
X419956D02*
X421356D01*
X414356D02*
X417156D01*
X411556D02*
X412956D01*
X407356D02*
X408756D01*
X450756Y230658D02*
X453556D01*
X445156D02*
X446556D01*
X435356D02*
X440956D01*
X429756D02*
X433956D01*
X422756D02*
X424156D01*
X419956D02*
X421356D01*
X414356D02*
X417156D01*
X411556D02*
X412956D01*
X407356D02*
X408756D01*
X456356Y230458D02*
X457756D01*
X452156D02*
X453556D01*
X447956D02*
X450756D01*
X443756D02*
X446556D01*
X436756D02*
X439556D01*
X432556D02*
X435356D01*
X428356D02*
X429756D01*
X422756D02*
X425556D01*
X418556D02*
X419956D01*
X414356D02*
X417156D01*
X407356D02*
X408756D01*
X456356Y230258D02*
X457756D01*
X452156D02*
X453556D01*
X447956D02*
X450756D01*
X443756D02*
X446556D01*
X436756D02*
X439556D01*
X432556D02*
X435356D01*
X428356D02*
X429756D01*
X422756D02*
X425556D01*
X418556D02*
X419956D01*
X414356D02*
X417156D01*
X407356D02*
X408756D01*
X456356Y230058D02*
X457756D01*
X452156D02*
X453556D01*
X447956D02*
X450756D01*
X443756D02*
X446556D01*
X436756D02*
X439556D01*
X432556D02*
X435356D01*
X428356D02*
X429756D01*
X422756D02*
X425556D01*
X418556D02*
X419956D01*
X414356D02*
X417156D01*
X407356D02*
X408756D01*
X456356Y229858D02*
X457756D01*
X452156D02*
X453556D01*
X447956D02*
X450756D01*
X443756D02*
X446556D01*
X436756D02*
X439556D01*
X432556D02*
X435356D01*
X428356D02*
X429756D01*
X422756D02*
X425556D01*
X418556D02*
X419956D01*
X414356D02*
X417156D01*
X407356D02*
X408756D01*
X456356Y229658D02*
X457756D01*
X452156D02*
X453556D01*
X447956D02*
X450756D01*
X443756D02*
X446556D01*
X436756D02*
X439556D01*
X432556D02*
X435356D01*
X428356D02*
X429756D01*
X422756D02*
X425556D01*
X418556D02*
X419956D01*
X414356D02*
X417156D01*
X407356D02*
X408756D01*
X456356Y229458D02*
X457756D01*
X452156D02*
X453556D01*
X447956D02*
X450756D01*
X443756D02*
X446556D01*
X436756D02*
X439556D01*
X432556D02*
X435356D01*
X428356D02*
X429756D01*
X422756D02*
X425556D01*
X418556D02*
X419956D01*
X414356D02*
X417156D01*
X407356D02*
X408756D01*
X456356Y229258D02*
X457756D01*
X452156D02*
X453556D01*
X447956D02*
X450756D01*
X443756D02*
X446556D01*
X436756D02*
X439556D01*
X432556D02*
X435356D01*
X428356D02*
X429756D01*
X422756D02*
X425556D01*
X418556D02*
X419956D01*
X414356D02*
X417156D01*
X407356D02*
X408756D01*
X453556Y229058D02*
X456356D01*
X449356D02*
X450756D01*
X442356D02*
X446556D01*
X439556D02*
X440956D01*
X433956D02*
X438156D01*
X429756D02*
X432556D01*
X422756D02*
X428356D01*
X412956D02*
X417156D01*
X405956D02*
X410156D01*
X453556Y228858D02*
X456356D01*
X449356D02*
X450756D01*
X442356D02*
X446556D01*
X439556D02*
X440956D01*
X433956D02*
X438156D01*
X429756D02*
X432556D01*
X422756D02*
X428356D01*
X412956D02*
X417156D01*
X405956D02*
X410156D01*
X453556Y228658D02*
X456356D01*
X449356D02*
X450756D01*
X442356D02*
X446556D01*
X439556D02*
X440956D01*
X433956D02*
X438156D01*
X429756D02*
X432556D01*
X422756D02*
X428356D01*
X412956D02*
X417156D01*
X405956D02*
X410156D01*
X453556Y228458D02*
X456356D01*
X449356D02*
X450756D01*
X442356D02*
X446556D01*
X439556D02*
X440956D01*
X433956D02*
X438156D01*
X429756D02*
X432556D01*
X422756D02*
X428356D01*
X412956D02*
X417156D01*
X405956D02*
X410156D01*
X453556Y228258D02*
X456356D01*
X449356D02*
X450756D01*
X442356D02*
X446556D01*
X439556D02*
X440956D01*
X433956D02*
X438156D01*
X429756D02*
X432556D01*
X422756D02*
X428356D01*
X412956D02*
X417156D01*
X405956D02*
X410156D01*
X453556Y228058D02*
X456356D01*
X449356D02*
X450756D01*
X442356D02*
X446556D01*
X439556D02*
X440956D01*
X433956D02*
X438156D01*
X429756D02*
X432556D01*
X422756D02*
X428356D01*
X412956D02*
X417156D01*
X405956D02*
X410156D01*
X453556Y227858D02*
X456356D01*
X449356D02*
X450756D01*
X442356D02*
X446556D01*
X439556D02*
X440956D01*
X433956D02*
X438156D01*
X429756D02*
X432556D01*
X422756D02*
X428356D01*
X412956D02*
X417156D01*
X405956D02*
X410156D01*
X456356Y227658D02*
X457756D01*
X450756D02*
X452156D01*
X447956D02*
X449356D01*
X442356D02*
X443756D01*
X439556D02*
X440956D01*
X431156D02*
X435356D01*
X425556D02*
X426956D01*
X419956D02*
X424156D01*
X412956D02*
X417156D01*
X408756D02*
X411556D01*
X405956D02*
X407356D01*
X456356Y227458D02*
X457756D01*
X450756D02*
X452156D01*
X447956D02*
X449356D01*
X442356D02*
X443756D01*
X439556D02*
X440956D01*
X431156D02*
X435356D01*
X425556D02*
X426956D01*
X419956D02*
X424156D01*
X412956D02*
X417156D01*
X408756D02*
X411556D01*
X405956D02*
X407356D01*
X456356Y227258D02*
X457756D01*
X450756D02*
X452156D01*
X447956D02*
X449356D01*
X442356D02*
X443756D01*
X439556D02*
X440956D01*
X431156D02*
X435356D01*
X425556D02*
X426956D01*
X419956D02*
X424156D01*
X412956D02*
X417156D01*
X408756D02*
X411556D01*
X405956D02*
X407356D01*
X456356Y227058D02*
X457756D01*
X450756D02*
X452156D01*
X447956D02*
X449356D01*
X442356D02*
X443756D01*
X439556D02*
X440956D01*
X431156D02*
X435356D01*
X425556D02*
X426956D01*
X419956D02*
X424156D01*
X412956D02*
X417156D01*
X408756D02*
X411556D01*
X405956D02*
X407356D01*
X456356Y226858D02*
X457756D01*
X450756D02*
X452156D01*
X447956D02*
X449356D01*
X442356D02*
X443756D01*
X439556D02*
X440956D01*
X431156D02*
X435356D01*
X425556D02*
X426956D01*
X419956D02*
X424156D01*
X412956D02*
X417156D01*
X408756D02*
X411556D01*
X405956D02*
X407356D01*
X456356Y226658D02*
X457756D01*
X450756D02*
X452156D01*
X447956D02*
X449356D01*
X442356D02*
X443756D01*
X439556D02*
X440956D01*
X431156D02*
X435356D01*
X425556D02*
X426956D01*
X419956D02*
X424156D01*
X412956D02*
X417156D01*
X408756D02*
X411556D01*
X405956D02*
X407356D01*
X456356Y226458D02*
X457756D01*
X450756D02*
X452156D01*
X447956D02*
X449356D01*
X442356D02*
X443756D01*
X439556D02*
X440956D01*
X431156D02*
X435356D01*
X425556D02*
X426956D01*
X419956D02*
X424156D01*
X412956D02*
X417156D01*
X408756D02*
X411556D01*
X405956D02*
X407356D01*
X453556Y226258D02*
X456356D01*
X445156D02*
X447956D01*
X433956D02*
X440956D01*
X428356D02*
X431156D01*
X418556D02*
X424156D01*
X411556D02*
X415756D01*
X405956D02*
X408756D01*
X453556Y226058D02*
X456356D01*
X445156D02*
X447956D01*
X433956D02*
X440956D01*
X428356D02*
X431156D01*
X418556D02*
X424156D01*
X411556D02*
X415756D01*
X405956D02*
X408756D01*
X453556Y225858D02*
X456356D01*
X445156D02*
X447956D01*
X433956D02*
X440956D01*
X428356D02*
X431156D01*
X418556D02*
X424156D01*
X411556D02*
X415756D01*
X405956D02*
X408756D01*
X453556Y225658D02*
X456356D01*
X445156D02*
X447956D01*
X433956D02*
X440956D01*
X428356D02*
X431156D01*
X418556D02*
X424156D01*
X411556D02*
X415756D01*
X405956D02*
X408756D01*
X453556Y225458D02*
X456356D01*
X445156D02*
X447956D01*
X433956D02*
X440956D01*
X428356D02*
X431156D01*
X418556D02*
X424156D01*
X411556D02*
X415756D01*
X405956D02*
X408756D01*
X453556Y225258D02*
X456356D01*
X445156D02*
X447956D01*
X433956D02*
X440956D01*
X428356D02*
X431156D01*
X418556D02*
X424156D01*
X411556D02*
X415756D01*
X405956D02*
X408756D01*
X453556Y225058D02*
X456356D01*
X445156D02*
X447956D01*
X433956D02*
X440956D01*
X428356D02*
X431156D01*
X418556D02*
X424156D01*
X411556D02*
X415756D01*
X405956D02*
X408756D01*
X454956Y224858D02*
X457756D01*
X452156D02*
X453556D01*
X447956D02*
X450756D01*
X439556D02*
X443756D01*
X431156D02*
X436756D01*
X422756D02*
X426956D01*
X405956D02*
X418556D01*
X454956Y224658D02*
X457756D01*
X452156D02*
X453556D01*
X447956D02*
X450756D01*
X439556D02*
X443756D01*
X431156D02*
X436756D01*
X422756D02*
X426956D01*
X405956D02*
X418556D01*
X454956Y224458D02*
X457756D01*
X452156D02*
X453556D01*
X447956D02*
X450756D01*
X439556D02*
X443756D01*
X431156D02*
X436756D01*
X422756D02*
X426956D01*
X405956D02*
X418556D01*
X454956Y224258D02*
X457756D01*
X452156D02*
X453556D01*
X447956D02*
X450756D01*
X439556D02*
X443756D01*
X431156D02*
X436756D01*
X422756D02*
X426956D01*
X405956D02*
X418556D01*
X454956Y224058D02*
X457756D01*
X452156D02*
X453556D01*
X447956D02*
X450756D01*
X439556D02*
X443756D01*
X431156D02*
X436756D01*
X422756D02*
X426956D01*
X405956D02*
X418556D01*
X454956Y223858D02*
X457756D01*
X452156D02*
X453556D01*
X447956D02*
X450756D01*
X439556D02*
X443756D01*
X431156D02*
X436756D01*
X422756D02*
X426956D01*
X405956D02*
X418556D01*
X454956Y223658D02*
X457756D01*
X452156D02*
X453556D01*
X447956D02*
X450756D01*
X439556D02*
X443756D01*
X431156D02*
X436756D01*
X422756D02*
X426956D01*
X405956D02*
X418556D01*
X440956Y223458D02*
X446556D01*
X435356D02*
X436756D01*
X426956D02*
X431156D01*
X424156D02*
X425556D01*
X417156D02*
X422756D01*
X411556D02*
X412956D01*
X405956D02*
X408756D01*
X440956Y223258D02*
X446556D01*
X435356D02*
X436756D01*
X426956D02*
X431156D01*
X424156D02*
X425556D01*
X417156D02*
X422756D01*
X411556D02*
X412956D01*
X405956D02*
X408756D01*
X440956Y223058D02*
X446556D01*
X435356D02*
X436756D01*
X426956D02*
X431156D01*
X424156D02*
X425556D01*
X417156D02*
X422756D01*
X411556D02*
X412956D01*
X405956D02*
X408756D01*
X440956Y222858D02*
X446556D01*
X435356D02*
X436756D01*
X426956D02*
X431156D01*
X424156D02*
X425556D01*
X417156D02*
X422756D01*
X411556D02*
X412956D01*
X405956D02*
X408756D01*
X440956Y222658D02*
X446556D01*
X435356D02*
X436756D01*
X426956D02*
X431156D01*
X424156D02*
X425556D01*
X417156D02*
X422756D01*
X411556D02*
X412956D01*
X405956D02*
X408756D01*
X440956Y222458D02*
X446556D01*
X435356D02*
X436756D01*
X426956D02*
X431156D01*
X424156D02*
X425556D01*
X417156D02*
X422756D01*
X411556D02*
X412956D01*
X405956D02*
X408756D01*
X440956Y222258D02*
X446556D01*
X435356D02*
X436756D01*
X426956D02*
X431156D01*
X424156D02*
X425556D01*
X417156D02*
X422756D01*
X411556D02*
X412956D01*
X405956D02*
X408756D01*
X447956Y222058D02*
X457756D01*
X440956D02*
X445156D01*
X433956D02*
X438156D01*
X429756D02*
X431156D01*
X426956D02*
X428356D01*
X421356D02*
X422756D01*
X417156D02*
X419956D01*
X414356D02*
X415756D01*
X411556D02*
X412956D01*
X405956D02*
X410156D01*
X447956Y221858D02*
X457756D01*
X440956D02*
X445156D01*
X433956D02*
X438156D01*
X429756D02*
X431156D01*
X426956D02*
X428356D01*
X421356D02*
X422756D01*
X417156D02*
X419956D01*
X414356D02*
X415756D01*
X411556D02*
X412956D01*
X405956D02*
X410156D01*
X447956Y221658D02*
X457756D01*
X440956D02*
X445156D01*
X433956D02*
X438156D01*
X429756D02*
X431156D01*
X426956D02*
X428356D01*
X421356D02*
X422756D01*
X417156D02*
X419956D01*
X414356D02*
X415756D01*
X411556D02*
X412956D01*
X405956D02*
X410156D01*
X447956Y221458D02*
X457756D01*
X440956D02*
X445156D01*
X433956D02*
X438156D01*
X429756D02*
X431156D01*
X426956D02*
X428356D01*
X421356D02*
X422756D01*
X417156D02*
X419956D01*
X414356D02*
X415756D01*
X411556D02*
X412956D01*
X405956D02*
X410156D01*
X447956Y221258D02*
X457756D01*
X440956D02*
X445156D01*
X433956D02*
X438156D01*
X429756D02*
X431156D01*
X426956D02*
X428356D01*
X421356D02*
X422756D01*
X417156D02*
X419956D01*
X414356D02*
X415756D01*
X411556D02*
X412956D01*
X405956D02*
X410156D01*
X447956Y221058D02*
X457756D01*
X440956D02*
X445156D01*
X433956D02*
X438156D01*
X429756D02*
X431156D01*
X426956D02*
X428356D01*
X421356D02*
X422756D01*
X417156D02*
X419956D01*
X414356D02*
X415756D01*
X411556D02*
X412956D01*
X405956D02*
X410156D01*
X447956Y220858D02*
X457756D01*
X440956D02*
X445156D01*
X433956D02*
X438156D01*
X429756D02*
X431156D01*
X426956D02*
X428356D01*
X421356D02*
X422756D01*
X417156D02*
X419956D01*
X414356D02*
X415756D01*
X411556D02*
X412956D01*
X405956D02*
X410156D01*
X456356Y220658D02*
X457756D01*
X447956D02*
X449356D01*
X440956D02*
X445156D01*
X436756D02*
X439556D01*
X433956D02*
X435356D01*
X428356D02*
X431156D01*
X424156D02*
X426956D01*
X417156D02*
X419956D01*
X411556D02*
X412956D01*
X408756D02*
X410156D01*
X456356Y220458D02*
X457756D01*
X447956D02*
X449356D01*
X440956D02*
X445156D01*
X436756D02*
X439556D01*
X433956D02*
X435356D01*
X428356D02*
X431156D01*
X424156D02*
X426956D01*
X417156D02*
X419956D01*
X411556D02*
X412956D01*
X408756D02*
X410156D01*
X456356Y220258D02*
X457756D01*
X447956D02*
X449356D01*
X440956D02*
X445156D01*
X436756D02*
X439556D01*
X433956D02*
X435356D01*
X428356D02*
X431156D01*
X424156D02*
X426956D01*
X417156D02*
X419956D01*
X411556D02*
X412956D01*
X408756D02*
X410156D01*
X456356Y220058D02*
X457756D01*
X447956D02*
X449356D01*
X440956D02*
X445156D01*
X436756D02*
X439556D01*
X433956D02*
X435356D01*
X428356D02*
X431156D01*
X424156D02*
X426956D01*
X417156D02*
X419956D01*
X411556D02*
X412956D01*
X408756D02*
X410156D01*
X456356Y219858D02*
X457756D01*
X447956D02*
X449356D01*
X440956D02*
X445156D01*
X436756D02*
X439556D01*
X433956D02*
X435356D01*
X428356D02*
X431156D01*
X424156D02*
X426956D01*
X417156D02*
X419956D01*
X411556D02*
X412956D01*
X408756D02*
X410156D01*
X456356Y219658D02*
X457756D01*
X447956D02*
X449356D01*
X440956D02*
X445156D01*
X436756D02*
X439556D01*
X433956D02*
X435356D01*
X428356D02*
X431156D01*
X424156D02*
X426956D01*
X417156D02*
X419956D01*
X411556D02*
X412956D01*
X408756D02*
X410156D01*
X456356Y219458D02*
X457756D01*
X447956D02*
X449356D01*
X440956D02*
X445156D01*
X436756D02*
X439556D01*
X433956D02*
X435356D01*
X428356D02*
X431156D01*
X424156D02*
X426956D01*
X417156D02*
X419956D01*
X411556D02*
X412956D01*
X408756D02*
X410156D01*
X456356Y219258D02*
X457756D01*
X450756D02*
X454956D01*
X447956D02*
X449356D01*
X438156D02*
X442356D01*
X431156D02*
X433956D01*
X428356D02*
X429756D01*
X425556D02*
X426956D01*
X421356D02*
X422756D01*
X410156D02*
X418556D01*
X407356D02*
X408756D01*
X456356Y219058D02*
X457756D01*
X450756D02*
X454956D01*
X447956D02*
X449356D01*
X438156D02*
X442356D01*
X431156D02*
X433956D01*
X428356D02*
X429756D01*
X425556D02*
X426956D01*
X421356D02*
X422756D01*
X410156D02*
X418556D01*
X407356D02*
X408756D01*
X456356Y218858D02*
X457756D01*
X450756D02*
X454956D01*
X447956D02*
X449356D01*
X438156D02*
X442356D01*
X431156D02*
X433956D01*
X428356D02*
X429756D01*
X425556D02*
X426956D01*
X421356D02*
X422756D01*
X410156D02*
X418556D01*
X407356D02*
X408756D01*
X456356Y218658D02*
X457756D01*
X450756D02*
X454956D01*
X447956D02*
X449356D01*
X438156D02*
X442356D01*
X431156D02*
X433956D01*
X428356D02*
X429756D01*
X425556D02*
X426956D01*
X421356D02*
X422756D01*
X410156D02*
X418556D01*
X407356D02*
X408756D01*
X456356Y218458D02*
X457756D01*
X450756D02*
X454956D01*
X447956D02*
X449356D01*
X438156D02*
X442356D01*
X431156D02*
X433956D01*
X428356D02*
X429756D01*
X425556D02*
X426956D01*
X421356D02*
X422756D01*
X410156D02*
X418556D01*
X407356D02*
X408756D01*
X456356Y218258D02*
X457756D01*
X450756D02*
X454956D01*
X447956D02*
X449356D01*
X438156D02*
X442356D01*
X431156D02*
X433956D01*
X428356D02*
X429756D01*
X425556D02*
X426956D01*
X421356D02*
X422756D01*
X410156D02*
X418556D01*
X407356D02*
X408756D01*
X456356Y218058D02*
X457756D01*
X450756D02*
X454956D01*
X447956D02*
X449356D01*
X438156D02*
X442356D01*
X431156D02*
X433956D01*
X428356D02*
X429756D01*
X425556D02*
X426956D01*
X421356D02*
X422756D01*
X410156D02*
X418556D01*
X407356D02*
X408756D01*
X456356Y217858D02*
X457756D01*
X450756D02*
X454956D01*
X447956D02*
X449356D01*
X445156D02*
X446556D01*
X442356D02*
X443756D01*
X432556D02*
X439556D01*
X428356D02*
X431156D01*
X424156D02*
X425556D01*
X418556D02*
X421356D01*
X415756D02*
X417156D01*
X411556D02*
X412956D01*
X405956D02*
X408756D01*
X456356Y217658D02*
X457756D01*
X450756D02*
X454956D01*
X447956D02*
X449356D01*
X445156D02*
X446556D01*
X442356D02*
X443756D01*
X432556D02*
X439556D01*
X428356D02*
X431156D01*
X424156D02*
X425556D01*
X418556D02*
X421356D01*
X415756D02*
X417156D01*
X411556D02*
X412956D01*
X405956D02*
X408756D01*
X456356Y217458D02*
X457756D01*
X450756D02*
X454956D01*
X447956D02*
X449356D01*
X445156D02*
X446556D01*
X442356D02*
X443756D01*
X432556D02*
X439556D01*
X428356D02*
X431156D01*
X424156D02*
X425556D01*
X418556D02*
X421356D01*
X415756D02*
X417156D01*
X411556D02*
X412956D01*
X405956D02*
X408756D01*
X456356Y217258D02*
X457756D01*
X450756D02*
X454956D01*
X447956D02*
X449356D01*
X445156D02*
X446556D01*
X442356D02*
X443756D01*
X432556D02*
X439556D01*
X428356D02*
X431156D01*
X424156D02*
X425556D01*
X418556D02*
X421356D01*
X415756D02*
X417156D01*
X411556D02*
X412956D01*
X405956D02*
X408756D01*
X456356Y217058D02*
X457756D01*
X450756D02*
X454956D01*
X447956D02*
X449356D01*
X445156D02*
X446556D01*
X442356D02*
X443756D01*
X432556D02*
X439556D01*
X428356D02*
X431156D01*
X424156D02*
X425556D01*
X418556D02*
X421356D01*
X415756D02*
X417156D01*
X411556D02*
X412956D01*
X405956D02*
X408756D01*
X456356Y216858D02*
X457756D01*
X450756D02*
X454956D01*
X447956D02*
X449356D01*
X445156D02*
X446556D01*
X442356D02*
X443756D01*
X432556D02*
X439556D01*
X428356D02*
X431156D01*
X424156D02*
X425556D01*
X418556D02*
X421356D01*
X415756D02*
X417156D01*
X411556D02*
X412956D01*
X405956D02*
X408756D01*
X456356Y216658D02*
X457756D01*
X450756D02*
X454956D01*
X447956D02*
X449356D01*
X445156D02*
X446556D01*
X442356D02*
X443756D01*
X432556D02*
X439556D01*
X428356D02*
X431156D01*
X424156D02*
X425556D01*
X418556D02*
X421356D01*
X415756D02*
X417156D01*
X411556D02*
X412956D01*
X405956D02*
X408756D01*
X456356Y216458D02*
X457756D01*
X450756D02*
X454956D01*
X447956D02*
X449356D01*
X443756D02*
X445156D01*
X429756D02*
X442356D01*
X415756D02*
X417156D01*
X410156D02*
X414356D01*
X405956D02*
X407356D01*
X456356Y216258D02*
X457756D01*
X450756D02*
X454956D01*
X447956D02*
X449356D01*
X443756D02*
X445156D01*
X429756D02*
X442356D01*
X415756D02*
X417156D01*
X410156D02*
X414356D01*
X405956D02*
X407356D01*
X456356Y216058D02*
X457756D01*
X450756D02*
X454956D01*
X447956D02*
X449356D01*
X443756D02*
X445156D01*
X429756D02*
X442356D01*
X415756D02*
X417156D01*
X410156D02*
X414356D01*
X405956D02*
X407356D01*
X456356Y215858D02*
X457756D01*
X450756D02*
X454956D01*
X447956D02*
X449356D01*
X443756D02*
X445156D01*
X429756D02*
X442356D01*
X415756D02*
X417156D01*
X410156D02*
X414356D01*
X405956D02*
X407356D01*
X456356Y215658D02*
X457756D01*
X450756D02*
X454956D01*
X447956D02*
X449356D01*
X443756D02*
X445156D01*
X429756D02*
X442356D01*
X415756D02*
X417156D01*
X410156D02*
X414356D01*
X405956D02*
X407356D01*
X456356Y215458D02*
X457756D01*
X450756D02*
X454956D01*
X447956D02*
X449356D01*
X443756D02*
X445156D01*
X429756D02*
X442356D01*
X415756D02*
X417156D01*
X410156D02*
X414356D01*
X405956D02*
X407356D01*
X456356Y215258D02*
X457756D01*
X450756D02*
X454956D01*
X447956D02*
X449356D01*
X443756D02*
X445156D01*
X429756D02*
X442356D01*
X415756D02*
X417156D01*
X410156D02*
X414356D01*
X405956D02*
X407356D01*
X456356Y215058D02*
X457756D01*
X447956D02*
X449356D01*
X440956D02*
X445156D01*
X438156D02*
X439556D01*
X431156D02*
X435356D01*
X425556D02*
X428356D01*
X417156D02*
X422756D01*
X412956D02*
X414356D01*
X456356Y214858D02*
X457756D01*
X447956D02*
X449356D01*
X440956D02*
X445156D01*
X438156D02*
X439556D01*
X431156D02*
X435356D01*
X425556D02*
X428356D01*
X417156D02*
X422756D01*
X412956D02*
X414356D01*
X456356Y214658D02*
X457756D01*
X447956D02*
X449356D01*
X440956D02*
X445156D01*
X438156D02*
X439556D01*
X431156D02*
X435356D01*
X425556D02*
X428356D01*
X417156D02*
X422756D01*
X412956D02*
X414356D01*
X456356Y214458D02*
X457756D01*
X447956D02*
X449356D01*
X440956D02*
X445156D01*
X438156D02*
X439556D01*
X431156D02*
X435356D01*
X425556D02*
X428356D01*
X417156D02*
X422756D01*
X412956D02*
X414356D01*
X456356Y214258D02*
X457756D01*
X447956D02*
X449356D01*
X440956D02*
X445156D01*
X438156D02*
X439556D01*
X431156D02*
X435356D01*
X425556D02*
X428356D01*
X417156D02*
X422756D01*
X412956D02*
X414356D01*
X456356Y214058D02*
X457756D01*
X447956D02*
X449356D01*
X440956D02*
X445156D01*
X438156D02*
X439556D01*
X431156D02*
X435356D01*
X425556D02*
X428356D01*
X417156D02*
X422756D01*
X412956D02*
X414356D01*
X456356Y213858D02*
X457756D01*
X447956D02*
X449356D01*
X440956D02*
X445156D01*
X438156D02*
X439556D01*
X431156D02*
X435356D01*
X425556D02*
X428356D01*
X417156D02*
X422756D01*
X412956D02*
X414356D01*
X447956Y213658D02*
X457756D01*
X443756D02*
X445156D01*
X440956D02*
X442356D01*
X436756D02*
X438156D01*
X432556D02*
X433956D01*
X429756D02*
X431156D01*
X425556D02*
X428356D01*
X421356D02*
X424156D01*
X415756D02*
X419956D01*
X411556D02*
X414356D01*
X405956D02*
X408756D01*
X447956Y213458D02*
X457756D01*
X443756D02*
X445156D01*
X440956D02*
X442356D01*
X436756D02*
X438156D01*
X432556D02*
X433956D01*
X429756D02*
X431156D01*
X425556D02*
X428356D01*
X421356D02*
X424156D01*
X415756D02*
X419956D01*
X411556D02*
X414356D01*
X405956D02*
X408756D01*
X447956Y213258D02*
X457756D01*
X443756D02*
X445156D01*
X440956D02*
X442356D01*
X436756D02*
X438156D01*
X432556D02*
X433956D01*
X429756D02*
X431156D01*
X425556D02*
X428356D01*
X421356D02*
X424156D01*
X415756D02*
X419956D01*
X411556D02*
X414356D01*
X405956D02*
X408756D01*
X447956Y213058D02*
X457756D01*
X443756D02*
X445156D01*
X440956D02*
X442356D01*
X436756D02*
X438156D01*
X432556D02*
X433956D01*
X429756D02*
X431156D01*
X425556D02*
X428356D01*
X421356D02*
X424156D01*
X415756D02*
X419956D01*
X411556D02*
X414356D01*
X405956D02*
X408756D01*
X447956Y212858D02*
X457756D01*
X443756D02*
X445156D01*
X440956D02*
X442356D01*
X436756D02*
X438156D01*
X432556D02*
X433956D01*
X429756D02*
X431156D01*
X425556D02*
X428356D01*
X421356D02*
X424156D01*
X415756D02*
X419956D01*
X411556D02*
X414356D01*
X405956D02*
X408756D01*
X447956Y212658D02*
X457756D01*
X443756D02*
X445156D01*
X440956D02*
X442356D01*
X436756D02*
X438156D01*
X432556D02*
X433956D01*
X429756D02*
X431156D01*
X425556D02*
X428356D01*
X421356D02*
X424156D01*
X415756D02*
X419956D01*
X411556D02*
X414356D01*
X405956D02*
X408756D01*
X447956Y212458D02*
X457756D01*
X443756D02*
X445156D01*
X440956D02*
X442356D01*
X436756D02*
X438156D01*
X432556D02*
X433956D01*
X429756D02*
X431156D01*
X425556D02*
X428356D01*
X421356D02*
X424156D01*
X415756D02*
X419956D01*
X411556D02*
X414356D01*
X405956D02*
X408756D01*
M02*
